<?xml version="1.0" encoding="UTF-8" standalone="no"?>
<!DOCTYPE svg PUBLIC "-//W3C//DTD SVG 1.1//EN"
 "http://www.w3.org/Graphics/SVG/1.1/DTD/svg11.dtd">
<!-- Generated by graphviz version 2.38.0 (20140413.2041)
 -->
<!-- Title: snakemake_dag Pages: 1 -->
<svg width="208pt" height="210pt"
 viewBox="0.00 0.00 208.29 210.00" xmlns="http://www.w3.org/2000/svg" xmlns:xlink="http://www.w3.org/1999/xlink">
<g id="graph0" class="graph" transform="scale(1 1) rotate(0) translate(4 206)">
<title>snakemake_dag</title>
<polygon fill="white" stroke="none" points="-4,4 -4,-206 204.29,-206 204.29,4 -4,4"/>
<text text-anchor="middle" x="100.145" y="-186.8" font-family="Times,serif" font-size="14.00">20171213 dag for simulated data</text>
<!-- 0 -->
<g id="node1" class="node"><title>0</title>
<path fill="none" stroke="#d85656" stroke-width="2" d="M129.958,-108C129.958,-108 70.3323,-108 70.3323,-108 64.3323,-108 58.3323,-102 58.3323,-96 58.3323,-96 58.3323,-84 58.3323,-84 58.3323,-78 64.3323,-72 70.3323,-72 70.3323,-72 129.958,-72 129.958,-72 135.958,-72 141.958,-78 141.958,-84 141.958,-84 141.958,-96 141.958,-96 141.958,-102 135.958,-108 129.958,-108"/>
<text text-anchor="middle" x="100.145" y="-87" font-family="sans" font-size="10.00">simulate_reads</text>
</g>
<!-- 2 -->
<g id="node3" class="node"><title>2</title>
<path fill="none" stroke="#56d8a9" stroke-width="2" d="M115.145,-36C115.145,-36 85.145,-36 85.145,-36 79.145,-36 73.145,-30 73.145,-24 73.145,-24 73.145,-12 73.145,-12 73.145,-6 79.145,-0 85.145,-0 85.145,-0 115.145,-0 115.145,-0 121.145,-0 127.145,-6 127.145,-12 127.145,-12 127.145,-24 127.145,-24 127.145,-30 121.145,-36 115.145,-36"/>
<text text-anchor="middle" x="100.145" y="-15" font-family="sans" font-size="10.00">all</text>
</g>
<!-- 0&#45;&gt;2 -->
<g id="edge2" class="edge"><title>0&#45;&gt;2</title>
<path fill="none" stroke="grey" stroke-width="2" d="M100.145,-71.6966C100.145,-63.9827 100.145,-54.7125 100.145,-46.1124"/>
<polygon fill="grey" stroke="grey" stroke-width="2" points="103.645,-46.1043 100.145,-36.1043 96.6451,-46.1044 103.645,-46.1043"/>
</g>
<!-- 1 -->
<g id="node2" class="node"><title>1</title>
<path fill="none" stroke="#afd856" stroke-width="2" d="M134.312,-180C134.312,-180 65.9779,-180 65.9779,-180 59.9779,-180 53.9779,-174 53.9779,-168 53.9779,-168 53.9779,-156 53.9779,-156 53.9779,-150 59.9779,-144 65.9779,-144 65.9779,-144 134.312,-144 134.312,-144 140.312,-144 146.312,-150 146.312,-156 146.312,-156 146.312,-168 146.312,-168 146.312,-174 140.312,-180 134.312,-180"/>
<text text-anchor="middle" x="100.145" y="-159" font-family="sans" font-size="10.00">prepare_genome</text>
</g>
<!-- 1&#45;&gt;0 -->
<g id="edge1" class="edge"><title>1&#45;&gt;0</title>
<path fill="none" stroke="grey" stroke-width="2" d="M100.145,-143.697C100.145,-135.983 100.145,-126.712 100.145,-118.112"/>
<polygon fill="grey" stroke="grey" stroke-width="2" points="103.645,-118.104 100.145,-108.104 96.6451,-118.104 103.645,-118.104"/>
</g>
</g>
</svg>
