<?xml version="1.0" encoding="UTF-8" standalone="no"?>
<!DOCTYPE svg PUBLIC "-//W3C//DTD SVG 1.1//EN"
 "http://www.w3.org/Graphics/SVG/1.1/DTD/svg11.dtd">
<!-- Generated by graphviz version 2.38.0 (20140413.2041)
 -->
<!-- Title: snakemake_dag Pages: 1 -->
<svg width="242pt" height="210pt"
 viewBox="0.00 0.00 241.72 210.00" xmlns="http://www.w3.org/2000/svg" xmlns:xlink="http://www.w3.org/1999/xlink">
<g id="graph0" class="graph" transform="scale(1 1) rotate(0) translate(4 206)">
<title>snakemake_dag</title>
<polygon fill="white" stroke="none" points="-4,4 -4,-206 237.718,-206 237.718,4 -4,4"/>
<text text-anchor="middle" x="116.859" y="-186.8" font-family="Times,serif" font-size="14.00">20171213 rulegraph for simulated data</text>
<!-- 0 -->
<g id="node1" class="node"><title>0</title>
<path fill="none" stroke="#d85656" stroke-width="2" d="M131.859,-36C131.859,-36 101.859,-36 101.859,-36 95.8589,-36 89.8589,-30 89.8589,-24 89.8589,-24 89.8589,-12 89.8589,-12 89.8589,-6 95.8589,-0 101.859,-0 101.859,-0 131.859,-0 131.859,-0 137.859,-0 143.859,-6 143.859,-12 143.859,-12 143.859,-24 143.859,-24 143.859,-30 137.859,-36 131.859,-36"/>
<text text-anchor="middle" x="116.859" y="-15" font-family="sans" font-size="10.00">all</text>
</g>
<!-- 1 -->
<g id="node2" class="node"><title>1</title>
<path fill="none" stroke="#afd856" stroke-width="2" d="M151.026,-180C151.026,-180 82.6917,-180 82.6917,-180 76.6917,-180 70.6917,-174 70.6917,-168 70.6917,-168 70.6917,-156 70.6917,-156 70.6917,-150 76.6917,-144 82.6917,-144 82.6917,-144 151.026,-144 151.026,-144 157.026,-144 163.026,-150 163.026,-156 163.026,-156 163.026,-168 163.026,-168 163.026,-174 157.026,-180 151.026,-180"/>
<text text-anchor="middle" x="116.859" y="-159" font-family="sans" font-size="10.00">prepare_genome</text>
</g>
<!-- 2 -->
<g id="node3" class="node"><title>2</title>
<path fill="none" stroke="#56d8a9" stroke-width="2" d="M146.672,-108C146.672,-108 87.0462,-108 87.0462,-108 81.0462,-108 75.0462,-102 75.0462,-96 75.0462,-96 75.0462,-84 75.0462,-84 75.0462,-78 81.0462,-72 87.0462,-72 87.0462,-72 146.672,-72 146.672,-72 152.672,-72 158.672,-78 158.672,-84 158.672,-84 158.672,-96 158.672,-96 158.672,-102 152.672,-108 146.672,-108"/>
<text text-anchor="middle" x="116.859" y="-87" font-family="sans" font-size="10.00">simulate_reads</text>
</g>
<!-- 1&#45;&gt;2 -->
<g id="edge2" class="edge"><title>1&#45;&gt;2</title>
<path fill="none" stroke="grey" stroke-width="2" d="M116.859,-143.697C116.859,-135.983 116.859,-126.712 116.859,-118.112"/>
<polygon fill="grey" stroke="grey" stroke-width="2" points="120.359,-118.104 116.859,-108.104 113.359,-118.104 120.359,-118.104"/>
</g>
<!-- 2&#45;&gt;0 -->
<g id="edge1" class="edge"><title>2&#45;&gt;0</title>
<path fill="none" stroke="grey" stroke-width="2" d="M116.859,-71.6966C116.859,-63.9827 116.859,-54.7125 116.859,-46.1124"/>
<polygon fill="grey" stroke="grey" stroke-width="2" points="120.359,-46.1043 116.859,-36.1043 113.359,-46.1044 120.359,-46.1043"/>
</g>
</g>
</svg>
