<?xml version="1.0" encoding="UTF-8" standalone="no"?>
<!DOCTYPE svg PUBLIC "-//W3C//DTD SVG 1.1//EN"
 "http://www.w3.org/Graphics/SVG/1.1/DTD/svg11.dtd">
<!-- Generated by graphviz version 2.38.0 (20140413.2041)
 -->
<!-- Title: snakemake_dag Pages: 1 -->
<svg width="254pt" height="570pt"
 viewBox="0.00 0.00 253.86 570.00" xmlns="http://www.w3.org/2000/svg" xmlns:xlink="http://www.w3.org/1999/xlink">
<g id="graph0" class="graph" transform="scale(1 1) rotate(0) translate(4 566)">
<title>snakemake_dag</title>
<polygon fill="white" stroke="none" points="-4,4 -4,-566 249.857,-566 249.857,4 -4,4"/>
<text text-anchor="middle" x="122.928" y="-546.8" font-family="Times,serif" font-size="14.00">Title: dag for variant calling</text>
<!-- 0 -->
<g id="node1" class="node"><title>0</title>
<path fill="none" stroke="#70d856" stroke-width="2" d="M181.337,-180C181.337,-180 76.663,-180 76.663,-180 70.663,-180 64.663,-174 64.663,-168 64.663,-168 64.663,-156 64.663,-156 64.663,-150 70.663,-144 76.663,-144 76.663,-144 181.337,-144 181.337,-144 187.337,-144 193.337,-150 193.337,-156 193.337,-156 193.337,-168 193.337,-168 193.337,-174 187.337,-180 181.337,-180"/>
<text text-anchor="middle" x="129" y="-159" font-family="sans" font-size="10.00">samtools_bed_from_bam</text>
</g>
<!-- 5 -->
<g id="node6" class="node"><title>5</title>
<path fill="none" stroke="#56c9d8" stroke-width="2" d="M173.771,-108C173.771,-108 84.2292,-108 84.2292,-108 78.2292,-108 72.2292,-102 72.2292,-96 72.2292,-96 72.2292,-84 72.2292,-84 72.2292,-78 78.2292,-72 84.2292,-72 84.2292,-72 173.771,-72 173.771,-72 179.771,-72 185.771,-78 185.771,-84 185.771,-84 185.771,-96 185.771,-96 185.771,-102 179.771,-108 173.771,-108"/>
<text text-anchor="middle" x="129" y="-87" font-family="sans" font-size="10.00">vardict_varcall_paired</text>
</g>
<!-- 0&#45;&gt;5 -->
<g id="edge5" class="edge"><title>0&#45;&gt;5</title>
<path fill="none" stroke="grey" stroke-width="2" d="M129,-143.697C129,-135.983 129,-126.712 129,-118.112"/>
<polygon fill="grey" stroke="grey" stroke-width="2" points="132.5,-118.104 129,-108.104 125.5,-118.104 132.5,-118.104"/>
</g>
<!-- 1 -->
<g id="node2" class="node"><title>1</title>
<path fill="none" stroke="#d8cb56" stroke-width="2" d="M93,-36C93,-36 63,-36 63,-36 57,-36 51,-30 51,-24 51,-24 51,-12 51,-12 51,-6 57,-0 63,-0 63,-0 93,-0 93,-0 99,-0 105,-6 105,-12 105,-12 105,-24 105,-24 105,-30 99,-36 93,-36"/>
<text text-anchor="middle" x="78" y="-15" font-family="sans" font-size="10.00">all</text>
</g>
<!-- 2 -->
<g id="node3" class="node"><title>2</title>
<path fill="none" stroke="#5692d8" stroke-width="2" d="M42,-108C42,-108 12,-108 12,-108 6,-108 0,-102 0,-96 0,-96 0,-84 0,-84 0,-78 6,-72 12,-72 12,-72 42,-72 42,-72 48,-72 54,-78 54,-84 54,-84 54,-96 54,-96 54,-102 48,-108 42,-108"/>
<text text-anchor="middle" x="27" y="-87" font-family="sans" font-size="10.00">fastqc</text>
</g>
<!-- 2&#45;&gt;1 -->
<g id="edge3" class="edge"><title>2&#45;&gt;1</title>
<path fill="none" stroke="grey" stroke-width="2" d="M39.6067,-71.6966C45.5974,-63.4741 52.8765,-53.4832 59.4792,-44.4207"/>
<polygon fill="grey" stroke="grey" stroke-width="2" points="62.4785,-46.2477 65.5383,-36.1043 56.8208,-42.1257 62.4785,-46.2477"/>
</g>
<!-- 3 -->
<g id="node4" class="node"><title>3</title>
<path fill="none" stroke="#56d8a9" stroke-width="2" d="M169.337,-540C169.337,-540 94.663,-540 94.663,-540 88.663,-540 82.663,-534 82.663,-528 82.663,-528 82.663,-516 82.663,-516 82.663,-510 88.663,-504 94.663,-504 94.663,-504 169.337,-504 169.337,-504 175.337,-504 181.337,-510 181.337,-516 181.337,-516 181.337,-528 181.337,-528 181.337,-534 175.337,-540 169.337,-540"/>
<text text-anchor="middle" x="132" y="-519" font-family="sans" font-size="10.00">ref_genome_index</text>
</g>
<!-- 4 -->
<g id="node5" class="node"><title>4</title>
<path fill="none" stroke="#d85656" stroke-width="2" d="M106.855,-468C106.855,-468 51.1447,-468 51.1447,-468 45.1447,-468 39.1447,-462 39.1447,-456 39.1447,-456 39.1447,-444 39.1447,-444 39.1447,-438 45.1447,-432 51.1447,-432 51.1447,-432 106.855,-432 106.855,-432 112.855,-432 118.855,-438 118.855,-444 118.855,-444 118.855,-456 118.855,-456 118.855,-462 112.855,-468 106.855,-468"/>
<text text-anchor="middle" x="79" y="-452" font-family="sans" font-size="10.00">bwa_mem</text>
<text text-anchor="middle" x="79" y="-442" font-family="sans" font-size="10.00">sample: tumor</text>
</g>
<!-- 3&#45;&gt;4 -->
<g id="edge4" class="edge"><title>3&#45;&gt;4</title>
<path fill="none" stroke="grey" stroke-width="2" d="M118.899,-503.697C112.609,-495.389 104.953,-485.277 98.0351,-476.141"/>
<polygon fill="grey" stroke="grey" stroke-width="2" points="100.777,-473.964 91.9504,-468.104 95.1964,-478.19 100.777,-473.964"/>
</g>
<!-- 9 -->
<g id="node10" class="node"><title>9</title>
<path fill="none" stroke="#d85656" stroke-width="2" d="M215.36,-468C215.36,-468 154.64,-468 154.64,-468 148.64,-468 142.64,-462 142.64,-456 142.64,-456 142.64,-444 142.64,-444 142.64,-438 148.64,-432 154.64,-432 154.64,-432 215.36,-432 215.36,-432 221.36,-432 227.36,-438 227.36,-444 227.36,-444 227.36,-456 227.36,-456 227.36,-462 221.36,-468 215.36,-468"/>
<text text-anchor="middle" x="185" y="-452" font-family="sans" font-size="10.00">bwa_mem</text>
<text text-anchor="middle" x="185" y="-442" font-family="sans" font-size="10.00">sample: normal</text>
</g>
<!-- 3&#45;&gt;9 -->
<g id="edge12" class="edge"><title>3&#45;&gt;9</title>
<path fill="none" stroke="grey" stroke-width="2" d="M145.101,-503.697C151.391,-495.389 159.047,-485.277 165.965,-476.141"/>
<polygon fill="grey" stroke="grey" stroke-width="2" points="168.804,-478.19 172.05,-468.104 163.223,-473.964 168.804,-478.19"/>
</g>
<!-- 8 -->
<g id="node9" class="node"><title>8</title>
<path fill="none" stroke="#d88d56" stroke-width="2" d="M107.714,-396C107.714,-396 24.2858,-396 24.2858,-396 18.2858,-396 12.2858,-390 12.2858,-384 12.2858,-384 12.2858,-372 12.2858,-372 12.2858,-366 18.2858,-360 24.2858,-360 24.2858,-360 107.714,-360 107.714,-360 113.714,-360 119.714,-366 119.714,-372 119.714,-372 119.714,-384 119.714,-384 119.714,-390 113.714,-396 107.714,-396"/>
<text text-anchor="middle" x="66" y="-375" font-family="sans" font-size="10.00">samtools_sort_index</text>
</g>
<!-- 4&#45;&gt;8 -->
<g id="edge11" class="edge"><title>4&#45;&gt;8</title>
<path fill="none" stroke="grey" stroke-width="2" d="M75.7865,-431.697C74.3539,-423.983 72.6323,-414.712 71.0352,-406.112"/>
<polygon fill="grey" stroke="grey" stroke-width="2" points="74.4437,-405.297 69.1765,-396.104 67.5614,-406.575 74.4437,-405.297"/>
</g>
<!-- 5&#45;&gt;1 -->
<g id="edge2" class="edge"><title>5&#45;&gt;1</title>
<path fill="none" stroke="grey" stroke-width="2" d="M116.393,-71.6966C110.403,-63.4741 103.124,-53.4832 96.5208,-44.4207"/>
<polygon fill="grey" stroke="grey" stroke-width="2" points="99.1792,-42.1257 90.4617,-36.1043 93.5215,-46.2477 99.1792,-42.1257"/>
</g>
<!-- 6 -->
<g id="node7" class="node"><title>6</title>
<path fill="none" stroke="#afd856" stroke-width="2" d="M161.921,-252C161.921,-252 96.0791,-252 96.0791,-252 90.0791,-252 84.0791,-246 84.0791,-240 84.0791,-240 84.0791,-228 84.0791,-228 84.0791,-222 90.0791,-216 96.0791,-216 96.0791,-216 161.921,-216 161.921,-216 167.921,-216 173.921,-222 173.921,-228 173.921,-228 173.921,-240 173.921,-240 173.921,-246 167.921,-252 161.921,-252"/>
<text text-anchor="middle" x="129" y="-231" font-family="sans" font-size="10.00">samtools_merge</text>
</g>
<!-- 6&#45;&gt;0 -->
<g id="edge1" class="edge"><title>6&#45;&gt;0</title>
<path fill="none" stroke="grey" stroke-width="2" d="M129,-215.697C129,-207.983 129,-198.712 129,-190.112"/>
<polygon fill="grey" stroke="grey" stroke-width="2" points="132.5,-190.104 129,-180.104 125.5,-190.104 132.5,-190.104"/>
</g>
<!-- 7 -->
<g id="node8" class="node"><title>7</title>
<path fill="none" stroke="#56d873" stroke-width="2" d="M227.436,-324C227.436,-324 156.564,-324 156.564,-324 150.564,-324 144.564,-318 144.564,-312 144.564,-312 144.564,-300 144.564,-300 144.564,-294 150.564,-288 156.564,-288 156.564,-288 227.436,-288 227.436,-288 233.436,-288 239.436,-294 239.436,-300 239.436,-300 239.436,-312 239.436,-312 239.436,-318 233.436,-324 227.436,-324"/>
<text text-anchor="middle" x="192" y="-303" font-family="sans" font-size="10.00">remove_duplicate</text>
</g>
<!-- 7&#45;&gt;5 -->
<g id="edge6" class="edge"><title>7&#45;&gt;5</title>
<path fill="none" stroke="grey" stroke-width="2" d="M198.47,-287.867C208.952,-257.13 226.165,-191.406 202,-144 195.765,-131.769 185.242,-121.7 174.097,-113.747"/>
<polygon fill="grey" stroke="grey" stroke-width="2" points="175.787,-110.668 165.514,-108.076 171.928,-116.509 175.787,-110.668"/>
</g>
<!-- 7&#45;&gt;6 -->
<g id="edge8" class="edge"><title>7&#45;&gt;6</title>
<path fill="none" stroke="grey" stroke-width="2" d="M176.427,-287.697C168.798,-279.22 159.477,-268.864 151.124,-259.583"/>
<polygon fill="grey" stroke="grey" stroke-width="2" points="153.685,-257.196 144.394,-252.104 148.482,-261.879 153.685,-257.196"/>
</g>
<!-- 10 -->
<g id="node11" class="node"><title>10</title>
<path fill="none" stroke="#56d873" stroke-width="2" d="M101.436,-324C101.436,-324 30.5644,-324 30.5644,-324 24.5644,-324 18.5644,-318 18.5644,-312 18.5644,-312 18.5644,-300 18.5644,-300 18.5644,-294 24.5644,-288 30.5644,-288 30.5644,-288 101.436,-288 101.436,-288 107.436,-288 113.436,-294 113.436,-300 113.436,-300 113.436,-312 113.436,-312 113.436,-318 107.436,-324 101.436,-324"/>
<text text-anchor="middle" x="66" y="-303" font-family="sans" font-size="10.00">remove_duplicate</text>
</g>
<!-- 8&#45;&gt;10 -->
<g id="edge13" class="edge"><title>8&#45;&gt;10</title>
<path fill="none" stroke="grey" stroke-width="2" d="M66,-359.697C66,-351.983 66,-342.712 66,-334.112"/>
<polygon fill="grey" stroke="grey" stroke-width="2" points="69.5001,-334.104 66,-324.104 62.5001,-334.104 69.5001,-334.104"/>
</g>
<!-- 11 -->
<g id="node12" class="node"><title>11</title>
<path fill="none" stroke="#d88d56" stroke-width="2" d="M233.714,-396C233.714,-396 150.286,-396 150.286,-396 144.286,-396 138.286,-390 138.286,-384 138.286,-384 138.286,-372 138.286,-372 138.286,-366 144.286,-360 150.286,-360 150.286,-360 233.714,-360 233.714,-360 239.714,-360 245.714,-366 245.714,-372 245.714,-372 245.714,-384 245.714,-384 245.714,-390 239.714,-396 233.714,-396"/>
<text text-anchor="middle" x="192" y="-375" font-family="sans" font-size="10.00">samtools_sort_index</text>
</g>
<!-- 9&#45;&gt;11 -->
<g id="edge14" class="edge"><title>9&#45;&gt;11</title>
<path fill="none" stroke="grey" stroke-width="2" d="M186.73,-431.697C187.502,-423.983 188.429,-414.712 189.289,-406.112"/>
<polygon fill="grey" stroke="grey" stroke-width="2" points="192.777,-406.403 190.29,-396.104 185.812,-405.706 192.777,-406.403"/>
</g>
<!-- 10&#45;&gt;5 -->
<g id="edge7" class="edge"><title>10&#45;&gt;5</title>
<path fill="none" stroke="grey" stroke-width="2" d="M59.5302,-287.867C49.0484,-257.13 31.8352,-191.406 56,-144 62.2346,-131.769 72.7584,-121.7 83.9031,-113.747"/>
<polygon fill="grey" stroke="grey" stroke-width="2" points="86.0717,-116.509 92.4858,-108.076 82.2129,-110.668 86.0717,-116.509"/>
</g>
<!-- 10&#45;&gt;6 -->
<g id="edge9" class="edge"><title>10&#45;&gt;6</title>
<path fill="none" stroke="grey" stroke-width="2" d="M81.573,-287.697C89.2022,-279.22 98.5228,-268.864 106.876,-259.583"/>
<polygon fill="grey" stroke="grey" stroke-width="2" points="109.518,-261.879 113.606,-252.104 104.315,-257.196 109.518,-261.879"/>
</g>
<!-- 11&#45;&gt;7 -->
<g id="edge10" class="edge"><title>11&#45;&gt;7</title>
<path fill="none" stroke="grey" stroke-width="2" d="M192,-359.697C192,-351.983 192,-342.712 192,-334.112"/>
<polygon fill="grey" stroke="grey" stroke-width="2" points="195.5,-334.104 192,-324.104 188.5,-334.104 195.5,-334.104"/>
</g>
</g>
</svg>
