<?xml version="1.0" encoding="UTF-8" standalone="no"?>
<!DOCTYPE svg PUBLIC "-//W3C//DTD SVG 1.1//EN"
 "http://www.w3.org/Graphics/SVG/1.1/DTD/svg11.dtd">
<!-- Generated by graphviz version 2.38.0 (20140413.2041)
 -->
<!-- Title: snakemake_dag Pages: 1 -->
<svg width="433pt" height="404pt"
 viewBox="0.00 0.00 433.48 404.00" xmlns="http://www.w3.org/2000/svg" xmlns:xlink="http://www.w3.org/1999/xlink">
<g id="graph0" class="graph" transform="scale(1 1) rotate(0) translate(4 400)">
<title>snakemake_dag</title>
<polygon fill="white" stroke="none" points="-4,4 -4,-400 429.482,-400 429.482,4 -4,4"/>
<!-- 0 -->
<g id="node1" class="node"><title>0</title>
<path fill="none" stroke="#d8a456" stroke-width="2" d="M141.596,-396C141.596,-396 85.8859,-396 85.8859,-396 79.8859,-396 73.8859,-390 73.8859,-384 73.8859,-384 73.8859,-372 73.8859,-372 73.8859,-366 79.8859,-360 85.8859,-360 85.8859,-360 141.596,-360 141.596,-360 147.596,-360 153.596,-366 153.596,-372 153.596,-372 153.596,-384 153.596,-384 153.596,-390 147.596,-396 141.596,-396"/>
<text text-anchor="middle" x="113.741" y="-380" font-family="sans" font-size="10.00">bwa_map</text>
<text text-anchor="middle" x="113.741" y="-370" font-family="sans" font-size="10.00">sample: tumor</text>
</g>
<!-- 4 -->
<g id="node5" class="node"><title>4</title>
<path fill="none" stroke="#d85656" stroke-width="2" d="M140.988,-324C140.988,-324 86.4947,-324 86.4947,-324 80.4947,-324 74.4947,-318 74.4947,-312 74.4947,-312 74.4947,-300 74.4947,-300 74.4947,-294 80.4947,-288 86.4947,-288 86.4947,-288 140.988,-288 140.988,-288 146.988,-288 152.988,-294 152.988,-300 152.988,-300 152.988,-312 152.988,-312 152.988,-318 146.988,-324 140.988,-324"/>
<text text-anchor="middle" x="113.741" y="-303" font-family="sans" font-size="10.00">samtools_sort</text>
</g>
<!-- 0&#45;&gt;4 -->
<g id="edge4" class="edge"><title>0&#45;&gt;4</title>
<path fill="none" stroke="grey" stroke-width="2" d="M113.741,-359.697C113.741,-351.983 113.741,-342.712 113.741,-334.112"/>
<polygon fill="grey" stroke="grey" stroke-width="2" points="117.241,-334.104 113.741,-324.104 110.241,-334.104 117.241,-334.104"/>
</g>
<!-- 1 -->
<g id="node2" class="node"><title>1</title>
<path fill="none" stroke="#56d8c9" stroke-width="2" d="M149.177,-252C149.177,-252 78.3056,-252 78.3056,-252 72.3056,-252 66.3056,-246 66.3056,-240 66.3056,-240 66.3056,-228 66.3056,-228 66.3056,-222 72.3056,-216 78.3056,-216 78.3056,-216 149.177,-216 149.177,-216 155.177,-216 161.177,-222 161.177,-228 161.177,-228 161.177,-240 161.177,-240 161.177,-246 155.177,-252 149.177,-252"/>
<text text-anchor="middle" x="113.741" y="-231" font-family="sans" font-size="10.00">remove_duplicate</text>
</g>
<!-- 3 -->
<g id="node4" class="node"><title>3</title>
<path fill="none" stroke="#56d87b" stroke-width="2" d="M73.725,-180C73.725,-180 11.7574,-180 11.7574,-180 5.75742,-180 -0.24258,-174 -0.24258,-168 -0.24258,-168 -0.24258,-156 -0.24258,-156 -0.24258,-150 5.75742,-144 11.7574,-144 11.7574,-144 73.725,-144 73.725,-144 79.725,-144 85.725,-150 85.725,-156 85.725,-156 85.725,-168 85.725,-168 85.725,-174 79.725,-180 73.725,-180"/>
<text text-anchor="middle" x="42.7412" y="-159" font-family="sans" font-size="10.00">samtools_index</text>
</g>
<!-- 1&#45;&gt;3 -->
<g id="edge3" class="edge"><title>1&#45;&gt;3</title>
<path fill="none" stroke="grey" stroke-width="2" d="M96.1906,-215.697C87.5067,-207.135 76.8783,-196.656 67.3929,-187.304"/>
<polygon fill="grey" stroke="grey" stroke-width="2" points="69.6682,-184.633 60.0899,-180.104 64.7537,-189.617 69.6682,-184.633"/>
</g>
<!-- 5 -->
<g id="node6" class="node"><title>5</title>
<path fill="none" stroke="#78d856" stroke-width="2" d="M257.512,-108C257.512,-108 167.97,-108 167.97,-108 161.97,-108 155.97,-102 155.97,-96 155.97,-96 155.97,-84 155.97,-84 155.97,-78 161.97,-72 167.97,-72 167.97,-72 257.512,-72 257.512,-72 263.512,-72 269.512,-78 269.512,-84 269.512,-84 269.512,-96 269.512,-96 269.512,-102 263.512,-108 257.512,-108"/>
<text text-anchor="middle" x="212.741" y="-87" font-family="sans" font-size="10.00">vardict_varcall_paired</text>
</g>
<!-- 1&#45;&gt;5 -->
<g id="edge8" class="edge"><title>1&#45;&gt;5</title>
<path fill="none" stroke="grey" stroke-width="2" d="M113.66,-215.771C114.37,-196.663 117.975,-165.676 132.741,-144 141.201,-131.582 153.628,-121.336 166.179,-113.272"/>
<polygon fill="grey" stroke="grey" stroke-width="2" points="168.091,-116.206 174.84,-108.038 164.471,-110.215 168.091,-116.206"/>
</g>
<!-- 7 -->
<g id="node8" class="node"><title>7</title>
<path fill="none" stroke="#c6d856" stroke-width="2" d="M271.928,-180C271.928,-180 153.555,-180 153.555,-180 147.555,-180 141.555,-174 141.555,-168 141.555,-168 141.555,-156 141.555,-156 141.555,-150 147.555,-144 153.555,-144 153.555,-144 271.928,-144 271.928,-144 277.928,-144 283.928,-150 283.928,-156 283.928,-156 283.928,-168 283.928,-168 283.928,-174 277.928,-180 271.928,-180"/>
<text text-anchor="middle" x="212.741" y="-159" font-family="sans" font-size="10.00">vardict_varcall_prepare_bed</text>
</g>
<!-- 1&#45;&gt;7 -->
<g id="edge11" class="edge"><title>1&#45;&gt;7</title>
<path fill="none" stroke="grey" stroke-width="2" d="M137.959,-215.876C150.664,-206.893 166.406,-195.763 180.164,-186.034"/>
<polygon fill="grey" stroke="grey" stroke-width="2" points="182.286,-188.821 188.43,-180.19 178.244,-183.105 182.286,-188.821"/>
</g>
<!-- 2 -->
<g id="node3" class="node"><title>2</title>
<path fill="none" stroke="#d85656" stroke-width="2" d="M338.988,-324C338.988,-324 284.495,-324 284.495,-324 278.495,-324 272.495,-318 272.495,-312 272.495,-312 272.495,-300 272.495,-300 272.495,-294 278.495,-288 284.495,-288 284.495,-288 338.988,-288 338.988,-288 344.988,-288 350.988,-294 350.988,-300 350.988,-300 350.988,-312 350.988,-312 350.988,-318 344.988,-324 338.988,-324"/>
<text text-anchor="middle" x="311.741" y="-303" font-family="sans" font-size="10.00">samtools_sort</text>
</g>
<!-- 9 -->
<g id="node10" class="node"><title>9</title>
<path fill="none" stroke="#56d8c9" stroke-width="2" d="M347.177,-252C347.177,-252 276.306,-252 276.306,-252 270.306,-252 264.306,-246 264.306,-240 264.306,-240 264.306,-228 264.306,-228 264.306,-222 270.306,-216 276.306,-216 276.306,-216 347.177,-216 347.177,-216 353.177,-216 359.177,-222 359.177,-228 359.177,-228 359.177,-240 359.177,-240 359.177,-246 353.177,-252 347.177,-252"/>
<text text-anchor="middle" x="311.741" y="-231" font-family="sans" font-size="10.00">remove_duplicate</text>
</g>
<!-- 2&#45;&gt;9 -->
<g id="edge13" class="edge"><title>2&#45;&gt;9</title>
<path fill="none" stroke="grey" stroke-width="2" d="M311.741,-287.697C311.741,-279.983 311.741,-270.712 311.741,-262.112"/>
<polygon fill="grey" stroke="grey" stroke-width="2" points="315.241,-262.104 311.741,-252.104 308.241,-262.104 315.241,-262.104"/>
</g>
<!-- 3&#45;&gt;5 -->
<g id="edge7" class="edge"><title>3&#45;&gt;5</title>
<path fill="none" stroke="grey" stroke-width="2" d="M84.3279,-143.876C107.775,-134.222 137.245,-122.087 162.039,-111.878"/>
<polygon fill="grey" stroke="grey" stroke-width="2" points="163.375,-115.112 171.29,-108.068 160.71,-108.639 163.375,-115.112"/>
</g>
<!-- 4&#45;&gt;1 -->
<g id="edge1" class="edge"><title>4&#45;&gt;1</title>
<path fill="none" stroke="grey" stroke-width="2" d="M113.741,-287.697C113.741,-279.983 113.741,-270.712 113.741,-262.112"/>
<polygon fill="grey" stroke="grey" stroke-width="2" points="117.241,-262.104 113.741,-252.104 110.241,-262.104 117.241,-262.104"/>
</g>
<!-- 10 -->
<g id="node11" class="node"><title>10</title>
<path fill="none" stroke="#56a2d8" stroke-width="2" d="M227.741,-36C227.741,-36 197.741,-36 197.741,-36 191.741,-36 185.741,-30 185.741,-24 185.741,-24 185.741,-12 185.741,-12 185.741,-6 191.741,-0 197.741,-0 197.741,-0 227.741,-0 227.741,-0 233.741,-0 239.741,-6 239.741,-12 239.741,-12 239.741,-24 239.741,-24 239.741,-30 233.741,-36 227.741,-36"/>
<text text-anchor="middle" x="212.741" y="-15" font-family="sans" font-size="10.00">final</text>
</g>
<!-- 5&#45;&gt;10 -->
<g id="edge14" class="edge"><title>5&#45;&gt;10</title>
<path fill="none" stroke="grey" stroke-width="2" d="M212.741,-71.6966C212.741,-63.9827 212.741,-54.7125 212.741,-46.1124"/>
<polygon fill="grey" stroke="grey" stroke-width="2" points="216.241,-46.1043 212.741,-36.1043 209.241,-46.1044 216.241,-46.1043"/>
</g>
<!-- 6 -->
<g id="node7" class="node"><title>6</title>
<path fill="none" stroke="#56d87b" stroke-width="2" d="M413.725,-180C413.725,-180 351.757,-180 351.757,-180 345.757,-180 339.757,-174 339.757,-168 339.757,-168 339.757,-156 339.757,-156 339.757,-150 345.757,-144 351.757,-144 351.757,-144 413.725,-144 413.725,-144 419.725,-144 425.725,-150 425.725,-156 425.725,-156 425.725,-168 425.725,-168 425.725,-174 419.725,-180 413.725,-180"/>
<text text-anchor="middle" x="382.741" y="-159" font-family="sans" font-size="10.00">samtools_index</text>
</g>
<!-- 6&#45;&gt;5 -->
<g id="edge5" class="edge"><title>6&#45;&gt;5</title>
<path fill="none" stroke="grey" stroke-width="2" d="M341.155,-143.876C317.708,-134.222 288.237,-122.087 263.444,-111.878"/>
<polygon fill="grey" stroke="grey" stroke-width="2" points="264.772,-108.639 254.193,-108.068 262.107,-115.112 264.772,-108.639"/>
</g>
<!-- 7&#45;&gt;5 -->
<g id="edge6" class="edge"><title>7&#45;&gt;5</title>
<path fill="none" stroke="grey" stroke-width="2" d="M212.741,-143.697C212.741,-135.983 212.741,-126.712 212.741,-118.112"/>
<polygon fill="grey" stroke="grey" stroke-width="2" points="216.241,-118.104 212.741,-108.104 209.241,-118.104 216.241,-118.104"/>
</g>
<!-- 8 -->
<g id="node9" class="node"><title>8</title>
<path fill="none" stroke="#d8a456" stroke-width="2" d="M342.101,-396C342.101,-396 281.381,-396 281.381,-396 275.381,-396 269.381,-390 269.381,-384 269.381,-384 269.381,-372 269.381,-372 269.381,-366 275.381,-360 281.381,-360 281.381,-360 342.101,-360 342.101,-360 348.101,-360 354.101,-366 354.101,-372 354.101,-372 354.101,-384 354.101,-384 354.101,-390 348.101,-396 342.101,-396"/>
<text text-anchor="middle" x="311.741" y="-380" font-family="sans" font-size="10.00">bwa_map</text>
<text text-anchor="middle" x="311.741" y="-370" font-family="sans" font-size="10.00">sample: normal</text>
</g>
<!-- 8&#45;&gt;2 -->
<g id="edge2" class="edge"><title>8&#45;&gt;2</title>
<path fill="none" stroke="grey" stroke-width="2" d="M311.741,-359.697C311.741,-351.983 311.741,-342.712 311.741,-334.112"/>
<polygon fill="grey" stroke="grey" stroke-width="2" points="315.241,-334.104 311.741,-324.104 308.241,-334.104 315.241,-334.104"/>
</g>
<!-- 9&#45;&gt;5 -->
<g id="edge9" class="edge"><title>9&#45;&gt;5</title>
<path fill="none" stroke="grey" stroke-width="2" d="M311.822,-215.771C311.112,-196.663 307.507,-165.676 292.741,-144 284.282,-131.582 271.854,-121.336 259.304,-113.272"/>
<polygon fill="grey" stroke="grey" stroke-width="2" points="261.012,-110.215 250.643,-108.038 257.391,-116.206 261.012,-110.215"/>
</g>
<!-- 9&#45;&gt;6 -->
<g id="edge10" class="edge"><title>9&#45;&gt;6</title>
<path fill="none" stroke="grey" stroke-width="2" d="M329.292,-215.697C337.976,-207.135 348.604,-196.656 358.09,-187.304"/>
<polygon fill="grey" stroke="grey" stroke-width="2" points="360.729,-189.617 365.393,-180.104 355.814,-184.633 360.729,-189.617"/>
</g>
<!-- 9&#45;&gt;7 -->
<g id="edge12" class="edge"><title>9&#45;&gt;7</title>
<path fill="none" stroke="grey" stroke-width="2" d="M287.523,-215.876C274.819,-206.893 259.077,-195.763 245.318,-186.034"/>
<polygon fill="grey" stroke="grey" stroke-width="2" points="247.238,-183.105 237.052,-180.19 243.197,-188.821 247.238,-183.105"/>
</g>
</g>
</svg>
