<?xml version="1.0" encoding="UTF-8" standalone="no"?>
<!DOCTYPE svg PUBLIC "-//W3C//DTD SVG 1.1//EN"
 "http://www.w3.org/Graphics/SVG/1.1/DTD/svg11.dtd">
<!-- Generated by graphviz version 2.38.0 (20140413.2041)
 -->
<!-- Title: snakemake_dag Pages: 1 -->
<svg width="241pt" height="570pt"
 viewBox="0.00 0.00 240.93 570.00" xmlns="http://www.w3.org/2000/svg" xmlns:xlink="http://www.w3.org/1999/xlink">
<g id="graph0" class="graph" transform="scale(1 1) rotate(0) translate(4 566)">
<title>snakemake_dag</title>
<polygon fill="white" stroke="none" points="-4,4 -4,-566 236.932,-566 236.932,4 -4,4"/>
<text text-anchor="middle" x="116.466" y="-546.8" font-family="Times,serif" font-size="14.00">20171213 rulegraph for variant calling</text>
<!-- 0 -->
<g id="node1" class="node"><title>0</title>
<path fill="none" stroke="#d85656" stroke-width="2" d="M113.731,-540C113.731,-540 39.0572,-540 39.0572,-540 33.0572,-540 27.0572,-534 27.0572,-528 27.0572,-528 27.0572,-516 27.0572,-516 27.0572,-510 33.0572,-504 39.0572,-504 39.0572,-504 113.731,-504 113.731,-504 119.731,-504 125.731,-510 125.731,-516 125.731,-516 125.731,-528 125.731,-528 125.731,-534 119.731,-540 113.731,-540"/>
<text text-anchor="middle" x="76.3943" y="-519" font-family="sans" font-size="10.00">ref_genome_index</text>
</g>
<!-- 1 -->
<g id="node2" class="node"><title>1</title>
<path fill="none" stroke="#d88d56" stroke-width="2" d="M95.5223,-468C95.5223,-468 57.2662,-468 57.2662,-468 51.2662,-468 45.2662,-462 45.2662,-456 45.2662,-456 45.2662,-444 45.2662,-444 45.2662,-438 51.2662,-432 57.2662,-432 57.2662,-432 95.5223,-432 95.5223,-432 101.522,-432 107.522,-438 107.522,-444 107.522,-444 107.522,-456 107.522,-456 107.522,-462 101.522,-468 95.5223,-468"/>
<text text-anchor="middle" x="76.3943" y="-447" font-family="sans" font-size="10.00">bwa_mem</text>
</g>
<!-- 0&#45;&gt;1 -->
<g id="edge1" class="edge"><title>0&#45;&gt;1</title>
<path fill="none" stroke="grey" stroke-width="2" d="M76.3943,-503.697C76.3943,-495.983 76.3943,-486.712 76.3943,-478.112"/>
<polygon fill="grey" stroke="grey" stroke-width="2" points="79.8944,-478.104 76.3943,-468.104 72.8944,-478.104 79.8944,-478.104"/>
</g>
<!-- 8 -->
<g id="node9" class="node"><title>8</title>
<path fill="none" stroke="#afd856" stroke-width="2" d="M118.109,-396C118.109,-396 34.68,-396 34.68,-396 28.68,-396 22.68,-390 22.68,-384 22.68,-384 22.68,-372 22.68,-372 22.68,-366 28.68,-360 34.68,-360 34.68,-360 118.109,-360 118.109,-360 124.109,-360 130.109,-366 130.109,-372 130.109,-372 130.109,-384 130.109,-384 130.109,-390 124.109,-396 118.109,-396"/>
<text text-anchor="middle" x="76.3943" y="-375" font-family="sans" font-size="10.00">samtools_sort_index</text>
</g>
<!-- 1&#45;&gt;8 -->
<g id="edge9" class="edge"><title>1&#45;&gt;8</title>
<path fill="none" stroke="grey" stroke-width="2" d="M76.3943,-431.697C76.3943,-423.983 76.3943,-414.712 76.3943,-406.112"/>
<polygon fill="grey" stroke="grey" stroke-width="2" points="79.8944,-406.104 76.3943,-396.104 72.8944,-406.104 79.8944,-406.104"/>
</g>
<!-- 2 -->
<g id="node3" class="node"><title>2</title>
<path fill="none" stroke="#d8cb56" stroke-width="2" d="M198.394,-108C198.394,-108 168.394,-108 168.394,-108 162.394,-108 156.394,-102 156.394,-96 156.394,-96 156.394,-84 156.394,-84 156.394,-78 162.394,-72 168.394,-72 168.394,-72 198.394,-72 198.394,-72 204.394,-72 210.394,-78 210.394,-84 210.394,-84 210.394,-96 210.394,-96 210.394,-102 204.394,-108 198.394,-108"/>
<text text-anchor="middle" x="183.394" y="-87" font-family="sans" font-size="10.00">fastqc</text>
</g>
<!-- 5 -->
<g id="node6" class="node"><title>5</title>
<path fill="none" stroke="#56c9d8" stroke-width="2" d="M147.394,-36C147.394,-36 117.394,-36 117.394,-36 111.394,-36 105.394,-30 105.394,-24 105.394,-24 105.394,-12 105.394,-12 105.394,-6 111.394,-0 117.394,-0 117.394,-0 147.394,-0 147.394,-0 153.394,-0 159.394,-6 159.394,-12 159.394,-12 159.394,-24 159.394,-24 159.394,-30 153.394,-36 147.394,-36"/>
<text text-anchor="middle" x="132.394" y="-15" font-family="sans" font-size="10.00">all</text>
</g>
<!-- 2&#45;&gt;5 -->
<g id="edge5" class="edge"><title>2&#45;&gt;5</title>
<path fill="none" stroke="grey" stroke-width="2" d="M170.788,-71.6966C164.797,-63.4741 157.518,-53.4832 150.915,-44.4207"/>
<polygon fill="grey" stroke="grey" stroke-width="2" points="153.573,-42.1257 144.856,-36.1043 147.916,-46.2477 153.573,-42.1257"/>
</g>
<!-- 3 -->
<g id="node4" class="node"><title>3</title>
<path fill="none" stroke="#56d873" stroke-width="2" d="M126.165,-108C126.165,-108 36.6235,-108 36.6235,-108 30.6235,-108 24.6235,-102 24.6235,-96 24.6235,-96 24.6235,-84 24.6235,-84 24.6235,-78 30.6235,-72 36.6235,-72 36.6235,-72 126.165,-72 126.165,-72 132.165,-72 138.165,-78 138.165,-84 138.165,-84 138.165,-96 138.165,-96 138.165,-102 132.165,-108 126.165,-108"/>
<text text-anchor="middle" x="81.3943" y="-87" font-family="sans" font-size="10.00">vardict_varcall_paired</text>
</g>
<!-- 3&#45;&gt;5 -->
<g id="edge6" class="edge"><title>3&#45;&gt;5</title>
<path fill="none" stroke="grey" stroke-width="2" d="M94.001,-71.6966C99.9917,-63.4741 107.271,-53.4832 113.873,-44.4207"/>
<polygon fill="grey" stroke="grey" stroke-width="2" points="116.873,-46.2477 119.933,-36.1043 111.215,-42.1257 116.873,-46.2477"/>
</g>
<!-- 4 -->
<g id="node5" class="node"><title>4</title>
<path fill="none" stroke="#56d8a9" stroke-width="2" d="M111.83,-324C111.83,-324 40.9587,-324 40.9587,-324 34.9587,-324 28.9587,-318 28.9587,-312 28.9587,-312 28.9587,-300 28.9587,-300 28.9587,-294 34.9587,-288 40.9587,-288 40.9587,-288 111.83,-288 111.83,-288 117.83,-288 123.83,-294 123.83,-300 123.83,-300 123.83,-312 123.83,-312 123.83,-318 117.83,-324 111.83,-324"/>
<text text-anchor="middle" x="76.3943" y="-303" font-family="sans" font-size="10.00">remove_duplicate</text>
</g>
<!-- 4&#45;&gt;3 -->
<g id="edge3" class="edge"><title>4&#45;&gt;3</title>
<path fill="none" stroke="grey" stroke-width="2" d="M69.9418,-287.872C59.6825,-258.226 42.0149,-195.572 54.3943,-144 56.6009,-134.807 60.6821,-125.412 65.015,-117.134"/>
<polygon fill="grey" stroke="grey" stroke-width="2" points="68.1095,-118.771 69.9274,-108.333 61.9973,-115.359 68.1095,-118.771"/>
</g>
<!-- 6 -->
<g id="node7" class="node"><title>6</title>
<path fill="none" stroke="#70d856" stroke-width="2" d="M150.315,-252C150.315,-252 84.4734,-252 84.4734,-252 78.4734,-252 72.4734,-246 72.4734,-240 72.4734,-240 72.4734,-228 72.4734,-228 72.4734,-222 78.4734,-216 84.4734,-216 84.4734,-216 150.315,-216 150.315,-216 156.315,-216 162.315,-222 162.315,-228 162.315,-228 162.315,-240 162.315,-240 162.315,-246 156.315,-252 150.315,-252"/>
<text text-anchor="middle" x="117.394" y="-231" font-family="sans" font-size="10.00">samtools_merge</text>
</g>
<!-- 4&#45;&gt;6 -->
<g id="edge7" class="edge"><title>4&#45;&gt;6</title>
<path fill="none" stroke="grey" stroke-width="2" d="M86.5291,-287.697C91.2459,-279.644 96.9561,-269.894 102.176,-260.982"/>
<polygon fill="grey" stroke="grey" stroke-width="2" points="105.342,-262.502 107.376,-252.104 99.3019,-258.964 105.342,-262.502"/>
</g>
<!-- 7 -->
<g id="node8" class="node"><title>7</title>
<path fill="none" stroke="#5692d8" stroke-width="2" d="M179.731,-180C179.731,-180 75.0573,-180 75.0573,-180 69.0573,-180 63.0573,-174 63.0573,-168 63.0573,-168 63.0573,-156 63.0573,-156 63.0573,-150 69.0573,-144 75.0573,-144 75.0573,-144 179.731,-144 179.731,-144 185.731,-144 191.731,-150 191.731,-156 191.731,-156 191.731,-168 191.731,-168 191.731,-174 185.731,-180 179.731,-180"/>
<text text-anchor="middle" x="127.394" y="-159" font-family="sans" font-size="10.00">samtools_bed_from_bam</text>
</g>
<!-- 6&#45;&gt;7 -->
<g id="edge8" class="edge"><title>6&#45;&gt;7</title>
<path fill="none" stroke="grey" stroke-width="2" d="M119.866,-215.697C120.968,-207.983 122.293,-198.712 123.521,-190.112"/>
<polygon fill="grey" stroke="grey" stroke-width="2" points="127.001,-190.499 124.951,-180.104 120.072,-189.509 127.001,-190.499"/>
</g>
<!-- 7&#45;&gt;3 -->
<g id="edge2" class="edge"><title>7&#45;&gt;3</title>
<path fill="none" stroke="grey" stroke-width="2" d="M116.023,-143.697C110.676,-135.559 104.19,-125.689 98.2837,-116.701"/>
<polygon fill="grey" stroke="grey" stroke-width="2" points="101.051,-114.539 92.6343,-108.104 95.2011,-118.384 101.051,-114.539"/>
</g>
<!-- 8&#45;&gt;4 -->
<g id="edge4" class="edge"><title>8&#45;&gt;4</title>
<path fill="none" stroke="grey" stroke-width="2" d="M76.3943,-359.697C76.3943,-351.983 76.3943,-342.712 76.3943,-334.112"/>
<polygon fill="grey" stroke="grey" stroke-width="2" points="79.8944,-334.104 76.3943,-324.104 72.8944,-334.104 79.8944,-334.104"/>
</g>
</g>
</svg>
