<?xml version="1.0" encoding="UTF-8" standalone="no"?>
<!DOCTYPE svg PUBLIC "-//W3C//DTD SVG 1.1//EN"
 "http://www.w3.org/Graphics/SVG/1.1/DTD/svg11.dtd">
<!-- Generated by graphviz version 2.40.1 (20161225.0304)
 -->
<!-- Title: snakemake_dag Pages: 1 -->
<svg width="462pt" height="642pt"
 viewBox="0.00 0.00 461.74 642.00" xmlns="http://www.w3.org/2000/svg" xmlns:xlink="http://www.w3.org/1999/xlink">
<g id="graph0" class="graph" transform="scale(1 1) rotate(0) translate(4 638)">
<title>snakemake_dag</title>
<polygon fill="#ffffff" stroke="transparent" points="-4,4 -4,-638 457.7412,-638 457.7412,4 -4,4"/>
<text text-anchor="middle" x="226.8706" y="-618.8" font-family="Times,serif" font-size="14.00" fill="#000000">Title: dag for variant calling</text>
<!-- 0 -->
<g id="node1" class="node">
<title>0</title>
<path fill="none" stroke="#d8bc56" stroke-width="2" d="M190,-36C190,-36 160,-36 160,-36 154,-36 148,-30 148,-24 148,-24 148,-12 148,-12 148,-6 154,0 160,0 160,0 190,0 190,0 196,0 202,-6 202,-12 202,-12 202,-24 202,-24 202,-30 196,-36 190,-36"/>
<text text-anchor="middle" x="175" y="-15" font-family="sans" font-size="10.00" fill="#000000">final</text>
</g>
<!-- 1 -->
<g id="node2" class="node">
<title>1</title>
<path fill="none" stroke="#56d88a" stroke-width="2" d="M219.7708,-108C219.7708,-108 130.2292,-108 130.2292,-108 124.2292,-108 118.2292,-102 118.2292,-96 118.2292,-96 118.2292,-84 118.2292,-84 118.2292,-78 124.2292,-72 130.2292,-72 130.2292,-72 219.7708,-72 219.7708,-72 225.7708,-72 231.7708,-78 231.7708,-84 231.7708,-84 231.7708,-96 231.7708,-96 231.7708,-102 225.7708,-108 219.7708,-108"/>
<text text-anchor="middle" x="175" y="-87" font-family="sans" font-size="10.00" fill="#000000">vardict_varcall_paired</text>
</g>
<!-- 1&#45;&gt;0 -->
<g id="edge1" class="edge">
<title>1&#45;&gt;0</title>
<path fill="none" stroke="#c0c0c0" stroke-width="2" d="M175,-71.8314C175,-64.131 175,-54.9743 175,-46.4166"/>
<polygon fill="#c0c0c0" stroke="#c0c0c0" stroke-width="2" points="178.5001,-46.4132 175,-36.4133 171.5001,-46.4133 178.5001,-46.4132"/>
</g>
<!-- 2 -->
<g id="node3" class="node">
<title>2</title>
<path fill="none" stroke="#56c1d8" stroke-width="2" d="M300.1866,-180C300.1866,-180 181.8134,-180 181.8134,-180 175.8134,-180 169.8134,-174 169.8134,-168 169.8134,-168 169.8134,-156 169.8134,-156 169.8134,-150 175.8134,-144 181.8134,-144 181.8134,-144 300.1866,-144 300.1866,-144 306.1866,-144 312.1866,-150 312.1866,-156 312.1866,-156 312.1866,-168 312.1866,-168 312.1866,-174 306.1866,-180 300.1866,-180"/>
<text text-anchor="middle" x="241" y="-159" font-family="sans" font-size="10.00" fill="#000000">vardict_varcall_prepare_bed</text>
</g>
<!-- 2&#45;&gt;1 -->
<g id="edge2" class="edge">
<title>2&#45;&gt;1</title>
<path fill="none" stroke="#c0c0c0" stroke-width="2" d="M224.3454,-143.8314C216.5886,-135.3694 207.2198,-125.1489 198.739,-115.8971"/>
<polygon fill="#c0c0c0" stroke="#c0c0c0" stroke-width="2" points="201.2162,-113.4198 191.8788,-108.4133 196.0561,-118.1499 201.2162,-113.4198"/>
</g>
<!-- 3 -->
<g id="node4" class="node">
<title>3</title>
<path fill="none" stroke="#d88d56" stroke-width="2" d="M139.9838,-180C139.9838,-180 78.0162,-180 78.0162,-180 72.0162,-180 66.0162,-174 66.0162,-168 66.0162,-168 66.0162,-156 66.0162,-156 66.0162,-150 72.0162,-144 78.0162,-144 78.0162,-144 139.9838,-144 139.9838,-144 145.9838,-144 151.9838,-150 151.9838,-156 151.9838,-156 151.9838,-168 151.9838,-168 151.9838,-174 145.9838,-180 139.9838,-180"/>
<text text-anchor="middle" x="109" y="-159" font-family="sans" font-size="10.00" fill="#000000">samtools_index</text>
</g>
<!-- 3&#45;&gt;1 -->
<g id="edge3" class="edge">
<title>3&#45;&gt;1</title>
<path fill="none" stroke="#c0c0c0" stroke-width="2" d="M125.6546,-143.8314C133.4114,-135.3694 142.7802,-125.1489 151.261,-115.8971"/>
<polygon fill="#c0c0c0" stroke="#c0c0c0" stroke-width="2" points="153.9439,-118.1499 158.1212,-108.4133 148.7838,-113.4198 153.9439,-118.1499"/>
</g>
<!-- 4 -->
<g id="node5" class="node">
<title>4</title>
<path fill="none" stroke="#59d856" stroke-width="2" d="M144.4356,-324C144.4356,-324 73.5644,-324 73.5644,-324 67.5644,-324 61.5644,-318 61.5644,-312 61.5644,-312 61.5644,-300 61.5644,-300 61.5644,-294 67.5644,-288 73.5644,-288 73.5644,-288 144.4356,-288 144.4356,-288 150.4356,-288 156.4356,-294 156.4356,-300 156.4356,-300 156.4356,-312 156.4356,-312 156.4356,-318 150.4356,-324 144.4356,-324"/>
<text text-anchor="middle" x="109" y="-303" font-family="sans" font-size="10.00" fill="#000000">remove_duplicate</text>
</g>
<!-- 4&#45;&gt;1 -->
<g id="edge4" class="edge">
<title>4&#45;&gt;1</title>
<path fill="none" stroke="#c0c0c0" stroke-width="2" d="M93.5912,-287.6727C69.1039,-256.1921 26.9953,-190.7283 57,-144 68.8222,-125.5885 88.6573,-113.3748 108.7241,-105.3061"/>
<polygon fill="#c0c0c0" stroke="#c0c0c0" stroke-width="2" points="110.085,-108.5344 118.2446,-101.7764 107.6515,-101.971 110.085,-108.5344"/>
</g>
<!-- 4&#45;&gt;3 -->
<g id="edge9" class="edge">
<title>4&#45;&gt;3</title>
<path fill="none" stroke="#c0c0c0" stroke-width="2" d="M109,-287.7623C109,-263.201 109,-219.2474 109,-190.3541"/>
<polygon fill="#c0c0c0" stroke="#c0c0c0" stroke-width="2" points="112.5001,-190.0896 109,-180.0896 105.5001,-190.0897 112.5001,-190.0896"/>
</g>
<!-- 8 -->
<g id="node9" class="node">
<title>8</title>
<path fill="none" stroke="#56d8c1" stroke-width="2" d="M273.9209,-252C273.9209,-252 208.0791,-252 208.0791,-252 202.0791,-252 196.0791,-246 196.0791,-240 196.0791,-240 196.0791,-228 196.0791,-228 196.0791,-222 202.0791,-216 208.0791,-216 208.0791,-216 273.9209,-216 273.9209,-216 279.9209,-216 285.9209,-222 285.9209,-228 285.9209,-228 285.9209,-240 285.9209,-240 285.9209,-246 279.9209,-252 273.9209,-252"/>
<text text-anchor="middle" x="241" y="-231" font-family="sans" font-size="10.00" fill="#000000">samtools_merge</text>
</g>
<!-- 4&#45;&gt;8 -->
<g id="edge13" class="edge">
<title>4&#45;&gt;8</title>
<path fill="none" stroke="#c0c0c0" stroke-width="2" d="M142.3092,-287.8314C159.4273,-278.4942 180.4706,-267.016 198.7222,-257.0606"/>
<polygon fill="#c0c0c0" stroke="#c0c0c0" stroke-width="2" points="200.5985,-260.024 207.7015,-252.1628 197.2465,-253.8788 200.5985,-260.024"/>
</g>
<!-- 5 -->
<g id="node6" class="node">
<title>5</title>
<path fill="none" stroke="#d85656" stroke-width="2" d="M124.4258,-612C124.4258,-612 93.5742,-612 93.5742,-612 87.5742,-612 81.5742,-606 81.5742,-600 81.5742,-600 81.5742,-588 81.5742,-588 81.5742,-582 87.5742,-576 93.5742,-576 93.5742,-576 124.4258,-576 124.4258,-576 130.4258,-576 136.4258,-582 136.4258,-588 136.4258,-588 136.4258,-600 136.4258,-600 136.4258,-606 130.4258,-612 124.4258,-612"/>
<text text-anchor="middle" x="109" y="-591" font-family="sans" font-size="10.00" fill="#000000">get_data</text>
</g>
<!-- 5&#45;&gt;1 -->
<g id="edge5" class="edge">
<title>5&#45;&gt;1</title>
<path fill="none" stroke="#c0c0c0" stroke-width="2" d="M82.6141,-575.9342C50.3553,-551.4749 0,-504.5568 0,-450 0,-450 0,-450 0,-234 0,-189.669 10.7668,-174.4344 43,-144 61.1945,-126.8209 85.5954,-114.7898 108.4669,-106.5194"/>
<polygon fill="#c0c0c0" stroke="#c0c0c0" stroke-width="2" points="109.8268,-109.7533 118.1527,-103.2012 107.5581,-103.1311 109.8268,-109.7533"/>
</g>
<!-- 11 -->
<g id="node12" class="node">
<title>11</title>
<path fill="none" stroke="#bed856" stroke-width="2" d="M136.8553,-468C136.8553,-468 81.1447,-468 81.1447,-468 75.1447,-468 69.1447,-462 69.1447,-456 69.1447,-456 69.1447,-444 69.1447,-444 69.1447,-438 75.1447,-432 81.1447,-432 81.1447,-432 136.8553,-432 136.8553,-432 142.8553,-432 148.8553,-438 148.8553,-444 148.8553,-444 148.8553,-456 148.8553,-456 148.8553,-462 142.8553,-468 136.8553,-468"/>
<text text-anchor="middle" x="109" y="-452" font-family="sans" font-size="10.00" fill="#000000">bwa_map</text>
<text text-anchor="middle" x="109" y="-442" font-family="sans" font-size="10.00" fill="#000000">sample: tumor</text>
</g>
<!-- 5&#45;&gt;11 -->
<g id="edge18" class="edge">
<title>5&#45;&gt;11</title>
<path fill="none" stroke="#c0c0c0" stroke-width="2" d="M100.9083,-575.9165C96.7439,-565.6179 92.1082,-552.3436 90,-540 87.3063,-524.2284 87.3063,-519.7716 90,-504 91.4988,-495.2245 94.2751,-485.9785 97.2513,-477.6659"/>
<polygon fill="#c0c0c0" stroke="#c0c0c0" stroke-width="2" points="100.6126,-478.6742 100.9083,-468.0835 94.0727,-476.1782 100.6126,-478.6742"/>
</g>
<!-- 12 -->
<g id="node13" class="node">
<title>12</title>
<path fill="none" stroke="#bed856" stroke-width="2" d="M255.3601,-468C255.3601,-468 194.6399,-468 194.6399,-468 188.6399,-468 182.6399,-462 182.6399,-456 182.6399,-456 182.6399,-444 182.6399,-444 182.6399,-438 188.6399,-432 194.6399,-432 194.6399,-432 255.3601,-432 255.3601,-432 261.3601,-432 267.3601,-438 267.3601,-444 267.3601,-444 267.3601,-456 267.3601,-456 267.3601,-462 261.3601,-468 255.3601,-468"/>
<text text-anchor="middle" x="225" y="-452" font-family="sans" font-size="10.00" fill="#000000">bwa_map</text>
<text text-anchor="middle" x="225" y="-442" font-family="sans" font-size="10.00" fill="#000000">sample: normal</text>
</g>
<!-- 5&#45;&gt;12 -->
<g id="edge20" class="edge">
<title>5&#45;&gt;12</title>
<path fill="none" stroke="#c0c0c0" stroke-width="2" d="M136.7383,-585.6981C158.8916,-577.6139 188.9548,-563.1127 206,-540 219.0549,-522.2979 223.562,-497.5918 224.9402,-478.5425"/>
<polygon fill="#c0c0c0" stroke="#c0c0c0" stroke-width="2" points="228.4459,-478.5045 225.4249,-468.3496 221.4538,-478.172 228.4459,-478.5045"/>
</g>
<!-- 13 -->
<g id="node14" class="node">
<title>13</title>
<path fill="none" stroke="#568ad8" stroke-width="2" d="M185.337,-540C185.337,-540 110.663,-540 110.663,-540 104.663,-540 98.663,-534 98.663,-528 98.663,-528 98.663,-516 98.663,-516 98.663,-510 104.663,-504 110.663,-504 110.663,-504 185.337,-504 185.337,-504 191.337,-504 197.337,-510 197.337,-516 197.337,-516 197.337,-528 197.337,-528 197.337,-534 191.337,-540 185.337,-540"/>
<text text-anchor="middle" x="148" y="-519" font-family="sans" font-size="10.00" fill="#000000">ref_genome_index</text>
</g>
<!-- 5&#45;&gt;13 -->
<g id="edge21" class="edge">
<title>5&#45;&gt;13</title>
<path fill="none" stroke="#c0c0c0" stroke-width="2" d="M118.8413,-575.8314C123.1957,-567.7925 128.4098,-558.1666 133.2169,-549.2918"/>
<polygon fill="#c0c0c0" stroke="#c0c0c0" stroke-width="2" points="136.3408,-550.8732 138.0261,-540.4133 130.1857,-547.5392 136.3408,-550.8732"/>
</g>
<!-- 6 -->
<g id="node7" class="node">
<title>6</title>
<path fill="none" stroke="#d88d56" stroke-width="2" d="M441.9838,-252C441.9838,-252 380.0162,-252 380.0162,-252 374.0162,-252 368.0162,-246 368.0162,-240 368.0162,-240 368.0162,-228 368.0162,-228 368.0162,-222 374.0162,-216 380.0162,-216 380.0162,-216 441.9838,-216 441.9838,-216 447.9838,-216 453.9838,-222 453.9838,-228 453.9838,-228 453.9838,-240 453.9838,-240 453.9838,-246 447.9838,-252 441.9838,-252"/>
<text text-anchor="middle" x="411" y="-231" font-family="sans" font-size="10.00" fill="#000000">samtools_index</text>
</g>
<!-- 6&#45;&gt;1 -->
<g id="edge6" class="edge">
<title>6&#45;&gt;1</title>
<path fill="none" stroke="#c0c0c0" stroke-width="2" d="M404.0406,-215.7042C395.3582,-195.29 378.5958,-162.6827 354,-144 321.5129,-119.3232 277.78,-105.8608 241.6741,-98.5493"/>
<polygon fill="#c0c0c0" stroke="#c0c0c0" stroke-width="2" points="242.1874,-95.0841 231.7083,-96.646 240.8742,-101.9599 242.1874,-95.0841"/>
</g>
<!-- 7 -->
<g id="node8" class="node">
<title>7</title>
<path fill="none" stroke="#59d856" stroke-width="2" d="M325.4356,-324C325.4356,-324 254.5644,-324 254.5644,-324 248.5644,-324 242.5644,-318 242.5644,-312 242.5644,-312 242.5644,-300 242.5644,-300 242.5644,-294 248.5644,-288 254.5644,-288 254.5644,-288 325.4356,-288 325.4356,-288 331.4356,-288 337.4356,-294 337.4356,-300 337.4356,-300 337.4356,-312 337.4356,-312 337.4356,-318 331.4356,-324 325.4356,-324"/>
<text text-anchor="middle" x="290" y="-303" font-family="sans" font-size="10.00" fill="#000000">remove_duplicate</text>
</g>
<!-- 7&#45;&gt;1 -->
<g id="edge7" class="edge">
<title>7&#45;&gt;1</title>
<path fill="none" stroke="#c0c0c0" stroke-width="2" d="M301.466,-287.8995C320.1238,-255.9027 352.009,-188.5311 321,-144 311.231,-129.9711 275.4613,-116.62 241.775,-106.7031"/>
<polygon fill="#c0c0c0" stroke="#c0c0c0" stroke-width="2" points="242.4645,-103.2598 231.8872,-103.8693 240.5359,-109.9889 242.4645,-103.2598"/>
</g>
<!-- 7&#45;&gt;6 -->
<g id="edge11" class="edge">
<title>7&#45;&gt;6</title>
<path fill="none" stroke="#c0c0c0" stroke-width="2" d="M320.5334,-287.8314C336.0101,-278.6221 354.9869,-267.3301 371.5563,-257.4706"/>
<polygon fill="#c0c0c0" stroke="#c0c0c0" stroke-width="2" points="373.6724,-260.2843 380.4764,-252.1628 370.0929,-254.2687 373.6724,-260.2843"/>
</g>
<!-- 7&#45;&gt;8 -->
<g id="edge14" class="edge">
<title>7&#45;&gt;8</title>
<path fill="none" stroke="#c0c0c0" stroke-width="2" d="M277.6352,-287.8314C272.0491,-279.6232 265.337,-269.7606 259.1928,-260.7323"/>
<polygon fill="#c0c0c0" stroke="#c0c0c0" stroke-width="2" points="262.051,-258.7112 253.5313,-252.4133 256.264,-262.6496 262.051,-258.7112"/>
</g>
<!-- 8&#45;&gt;2 -->
<g id="edge8" class="edge">
<title>8&#45;&gt;2</title>
<path fill="none" stroke="#c0c0c0" stroke-width="2" d="M241,-215.8314C241,-208.131 241,-198.9743 241,-190.4166"/>
<polygon fill="#c0c0c0" stroke="#c0c0c0" stroke-width="2" points="244.5001,-190.4132 241,-180.4133 237.5001,-190.4133 244.5001,-190.4132"/>
</g>
<!-- 9 -->
<g id="node10" class="node">
<title>9</title>
<path fill="none" stroke="#88d856" stroke-width="2" d="M136.2465,-396C136.2465,-396 81.7535,-396 81.7535,-396 75.7535,-396 69.7535,-390 69.7535,-384 69.7535,-384 69.7535,-372 69.7535,-372 69.7535,-366 75.7535,-360 81.7535,-360 81.7535,-360 136.2465,-360 136.2465,-360 142.2465,-360 148.2465,-366 148.2465,-372 148.2465,-372 148.2465,-384 148.2465,-384 148.2465,-390 142.2465,-396 136.2465,-396"/>
<text text-anchor="middle" x="109" y="-375" font-family="sans" font-size="10.00" fill="#000000">samtools_sort</text>
</g>
<!-- 9&#45;&gt;4 -->
<g id="edge10" class="edge">
<title>9&#45;&gt;4</title>
<path fill="none" stroke="#c0c0c0" stroke-width="2" d="M109,-359.8314C109,-352.131 109,-342.9743 109,-334.4166"/>
<polygon fill="#c0c0c0" stroke="#c0c0c0" stroke-width="2" points="112.5001,-334.4132 109,-324.4133 105.5001,-334.4133 112.5001,-334.4132"/>
</g>
<!-- 10 -->
<g id="node11" class="node">
<title>10</title>
<path fill="none" stroke="#88d856" stroke-width="2" d="M284.2465,-396C284.2465,-396 229.7535,-396 229.7535,-396 223.7535,-396 217.7535,-390 217.7535,-384 217.7535,-384 217.7535,-372 217.7535,-372 217.7535,-366 223.7535,-360 229.7535,-360 229.7535,-360 284.2465,-360 284.2465,-360 290.2465,-360 296.2465,-366 296.2465,-372 296.2465,-372 296.2465,-384 296.2465,-384 296.2465,-390 290.2465,-396 284.2465,-396"/>
<text text-anchor="middle" x="257" y="-375" font-family="sans" font-size="10.00" fill="#000000">samtools_sort</text>
</g>
<!-- 10&#45;&gt;7 -->
<g id="edge12" class="edge">
<title>10&#45;&gt;7</title>
<path fill="none" stroke="#c0c0c0" stroke-width="2" d="M265.3273,-359.8314C268.973,-351.8771 273.3309,-342.369 277.3627,-333.5723"/>
<polygon fill="#c0c0c0" stroke="#c0c0c0" stroke-width="2" points="280.5757,-334.9622 281.5606,-324.4133 274.2123,-332.0456 280.5757,-334.9622"/>
</g>
<!-- 11&#45;&gt;9 -->
<g id="edge15" class="edge">
<title>11&#45;&gt;9</title>
<path fill="none" stroke="#c0c0c0" stroke-width="2" d="M109,-431.8314C109,-424.131 109,-414.9743 109,-406.4166"/>
<polygon fill="#c0c0c0" stroke="#c0c0c0" stroke-width="2" points="112.5001,-406.4132 109,-396.4133 105.5001,-406.4133 112.5001,-406.4132"/>
</g>
<!-- 12&#45;&gt;10 -->
<g id="edge16" class="edge">
<title>12&#45;&gt;10</title>
<path fill="none" stroke="#c0c0c0" stroke-width="2" d="M233.075,-431.8314C236.6102,-423.8771 240.836,-414.369 244.7456,-405.5723"/>
<polygon fill="#c0c0c0" stroke="#c0c0c0" stroke-width="2" points="247.9532,-406.9729 248.8163,-396.4133 241.5565,-404.1299 247.9532,-406.9729"/>
</g>
<!-- 13&#45;&gt;11 -->
<g id="edge17" class="edge">
<title>13&#45;&gt;11</title>
<path fill="none" stroke="#c0c0c0" stroke-width="2" d="M138.1587,-503.8314C133.8043,-495.7925 128.5902,-486.1666 123.7831,-477.2918"/>
<polygon fill="#c0c0c0" stroke="#c0c0c0" stroke-width="2" points="126.8143,-475.5392 118.9739,-468.4133 120.6592,-478.8732 126.8143,-475.5392"/>
</g>
<!-- 13&#45;&gt;12 -->
<g id="edge19" class="edge">
<title>13&#45;&gt;12</title>
<path fill="none" stroke="#c0c0c0" stroke-width="2" d="M167.4304,-503.8314C176.732,-495.1337 188.0204,-484.5783 198.1286,-475.1265"/>
<polygon fill="#c0c0c0" stroke="#c0c0c0" stroke-width="2" points="200.6621,-477.5493 205.5759,-468.1628 195.8811,-472.4363 200.6621,-477.5493"/>
</g>
</g>
</svg>
