<?xml version="1.0" encoding="UTF-8" standalone="no"?>
<!DOCTYPE svg PUBLIC "-//W3C//DTD SVG 1.1//EN"
 "http://www.w3.org/Graphics/SVG/1.1/DTD/svg11.dtd">
<!-- Generated by graphviz version 2.40.1 (20161225.0304)
 -->
<!-- Title: snakemake_dag Pages: 1 -->
<svg width="462pt" height="642pt"
 viewBox="0.00 0.00 461.74 642.00" xmlns="http://www.w3.org/2000/svg" xmlns:xlink="http://www.w3.org/1999/xlink">
<g id="graph0" class="graph" transform="scale(1 1) rotate(0) translate(4 638)">
<title>snakemake_dag</title>
<polygon fill="#ffffff" stroke="transparent" points="-4,4 -4,-638 457.7412,-638 457.7412,4 -4,4"/>
<text text-anchor="middle" x="226.8706" y="-618.8" font-family="Times,serif" font-size="14.00" fill="#000000">Title: dag for variant calling</text>
<!-- 0 -->
<g id="node1" class="node">
<title>0</title>
<path fill="none" stroke="#56d86b" stroke-width="2" d="M190,-36C190,-36 160,-36 160,-36 154,-36 148,-30 148,-24 148,-24 148,-12 148,-12 148,-6 154,0 160,0 160,0 190,0 190,0 196,0 202,-6 202,-12 202,-12 202,-24 202,-24 202,-30 196,-36 190,-36"/>
<text text-anchor="middle" x="175" y="-15" font-family="sans" font-size="10.00" fill="#000000">final</text>
</g>
<!-- 1 -->
<g id="node2" class="node">
<title>1</title>
<path fill="none" stroke="#d85656" stroke-width="2" d="M219.7708,-108C219.7708,-108 130.2292,-108 130.2292,-108 124.2292,-108 118.2292,-102 118.2292,-96 118.2292,-96 118.2292,-84 118.2292,-84 118.2292,-78 124.2292,-72 130.2292,-72 130.2292,-72 219.7708,-72 219.7708,-72 225.7708,-72 231.7708,-78 231.7708,-84 231.7708,-84 231.7708,-96 231.7708,-96 231.7708,-102 225.7708,-108 219.7708,-108"/>
<text text-anchor="middle" x="175" y="-87" font-family="sans" font-size="10.00" fill="#000000">vardict_varcall_paired</text>
</g>
<!-- 1&#45;&gt;0 -->
<g id="edge1" class="edge">
<title>1&#45;&gt;0</title>
<path fill="none" stroke="#c0c0c0" stroke-width="2" d="M175,-71.8314C175,-64.131 175,-54.9743 175,-46.4166"/>
<polygon fill="#c0c0c0" stroke="#c0c0c0" stroke-width="2" points="178.5001,-46.4132 175,-36.4133 171.5001,-46.4133 178.5001,-46.4132"/>
</g>
<!-- 2 -->
<g id="node3" class="node">
<title>2</title>
<path fill="none" stroke="#70d856" stroke-width="2" d="M144.4356,-324C144.4356,-324 73.5644,-324 73.5644,-324 67.5644,-324 61.5644,-318 61.5644,-312 61.5644,-312 61.5644,-300 61.5644,-300 61.5644,-294 67.5644,-288 73.5644,-288 73.5644,-288 144.4356,-288 144.4356,-288 150.4356,-288 156.4356,-294 156.4356,-300 156.4356,-300 156.4356,-312 156.4356,-312 156.4356,-318 150.4356,-324 144.4356,-324"/>
<text text-anchor="middle" x="109" y="-303" font-family="sans" font-size="10.00" fill="#000000">remove_duplicate</text>
</g>
<!-- 2&#45;&gt;1 -->
<g id="edge2" class="edge">
<title>2&#45;&gt;1</title>
<path fill="none" stroke="#c0c0c0" stroke-width="2" d="M93.5912,-287.6727C69.1039,-256.1921 26.9953,-190.7283 57,-144 68.8222,-125.5885 88.6573,-113.3748 108.7241,-105.3061"/>
<polygon fill="#c0c0c0" stroke="#c0c0c0" stroke-width="2" points="110.085,-108.5344 118.2446,-101.7764 107.6515,-101.971 110.085,-108.5344"/>
</g>
<!-- 5 -->
<g id="node6" class="node">
<title>5</title>
<path fill="none" stroke="#56d8c9" stroke-width="2" d="M139.9838,-180C139.9838,-180 78.0162,-180 78.0162,-180 72.0162,-180 66.0162,-174 66.0162,-168 66.0162,-168 66.0162,-156 66.0162,-156 66.0162,-150 72.0162,-144 78.0162,-144 78.0162,-144 139.9838,-144 139.9838,-144 145.9838,-144 151.9838,-150 151.9838,-156 151.9838,-156 151.9838,-168 151.9838,-168 151.9838,-174 145.9838,-180 139.9838,-180"/>
<text text-anchor="middle" x="109" y="-159" font-family="sans" font-size="10.00" fill="#000000">samtools_index</text>
</g>
<!-- 2&#45;&gt;5 -->
<g id="edge11" class="edge">
<title>2&#45;&gt;5</title>
<path fill="none" stroke="#c0c0c0" stroke-width="2" d="M109,-287.7623C109,-263.201 109,-219.2474 109,-190.3541"/>
<polygon fill="#c0c0c0" stroke="#c0c0c0" stroke-width="2" points="112.5001,-190.0896 109,-180.0896 105.5001,-190.0897 112.5001,-190.0896"/>
</g>
<!-- 9 -->
<g id="node10" class="node">
<title>9</title>
<path fill="none" stroke="#56b1d8" stroke-width="2" d="M273.9209,-252C273.9209,-252 208.0791,-252 208.0791,-252 202.0791,-252 196.0791,-246 196.0791,-240 196.0791,-240 196.0791,-228 196.0791,-228 196.0791,-222 202.0791,-216 208.0791,-216 208.0791,-216 273.9209,-216 273.9209,-216 279.9209,-216 285.9209,-222 285.9209,-228 285.9209,-228 285.9209,-240 285.9209,-240 285.9209,-246 279.9209,-252 273.9209,-252"/>
<text text-anchor="middle" x="241" y="-231" font-family="sans" font-size="10.00" fill="#000000">samtools_merge</text>
</g>
<!-- 2&#45;&gt;9 -->
<g id="edge14" class="edge">
<title>2&#45;&gt;9</title>
<path fill="none" stroke="#c0c0c0" stroke-width="2" d="M142.3092,-287.8314C159.4273,-278.4942 180.4706,-267.016 198.7222,-257.0606"/>
<polygon fill="#c0c0c0" stroke="#c0c0c0" stroke-width="2" points="200.5985,-260.024 207.7015,-252.1628 197.2465,-253.8788 200.5985,-260.024"/>
</g>
<!-- 3 -->
<g id="node4" class="node">
<title>3</title>
<path fill="none" stroke="#56d89a" stroke-width="2" d="M300.1866,-180C300.1866,-180 181.8134,-180 181.8134,-180 175.8134,-180 169.8134,-174 169.8134,-168 169.8134,-168 169.8134,-156 169.8134,-156 169.8134,-150 175.8134,-144 181.8134,-144 181.8134,-144 300.1866,-144 300.1866,-144 306.1866,-144 312.1866,-150 312.1866,-156 312.1866,-156 312.1866,-168 312.1866,-168 312.1866,-174 306.1866,-180 300.1866,-180"/>
<text text-anchor="middle" x="241" y="-159" font-family="sans" font-size="10.00" fill="#000000">vardict_varcall_prepare_bed</text>
</g>
<!-- 3&#45;&gt;1 -->
<g id="edge3" class="edge">
<title>3&#45;&gt;1</title>
<path fill="none" stroke="#c0c0c0" stroke-width="2" d="M224.3454,-143.8314C216.5886,-135.3694 207.2198,-125.1489 198.739,-115.8971"/>
<polygon fill="#c0c0c0" stroke="#c0c0c0" stroke-width="2" points="201.2162,-113.4198 191.8788,-108.4133 196.0561,-118.1499 201.2162,-113.4198"/>
</g>
<!-- 4 -->
<g id="node5" class="node">
<title>4</title>
<path fill="none" stroke="#56d8c9" stroke-width="2" d="M441.9838,-252C441.9838,-252 380.0162,-252 380.0162,-252 374.0162,-252 368.0162,-246 368.0162,-240 368.0162,-240 368.0162,-228 368.0162,-228 368.0162,-222 374.0162,-216 380.0162,-216 380.0162,-216 441.9838,-216 441.9838,-216 447.9838,-216 453.9838,-222 453.9838,-228 453.9838,-228 453.9838,-240 453.9838,-240 453.9838,-246 447.9838,-252 441.9838,-252"/>
<text text-anchor="middle" x="411" y="-231" font-family="sans" font-size="10.00" fill="#000000">samtools_index</text>
</g>
<!-- 4&#45;&gt;1 -->
<g id="edge4" class="edge">
<title>4&#45;&gt;1</title>
<path fill="none" stroke="#c0c0c0" stroke-width="2" d="M404.0406,-215.7042C395.3582,-195.29 378.5958,-162.6827 354,-144 321.5129,-119.3232 277.78,-105.8608 241.6741,-98.5493"/>
<polygon fill="#c0c0c0" stroke="#c0c0c0" stroke-width="2" points="242.1874,-95.0841 231.7083,-96.646 240.8742,-101.9599 242.1874,-95.0841"/>
</g>
<!-- 5&#45;&gt;1 -->
<g id="edge5" class="edge">
<title>5&#45;&gt;1</title>
<path fill="none" stroke="#c0c0c0" stroke-width="2" d="M125.6546,-143.8314C133.4114,-135.3694 142.7802,-125.1489 151.261,-115.8971"/>
<polygon fill="#c0c0c0" stroke="#c0c0c0" stroke-width="2" points="153.9439,-118.1499 158.1212,-108.4133 148.7838,-113.4198 153.9439,-118.1499"/>
</g>
<!-- 6 -->
<g id="node7" class="node">
<title>6</title>
<path fill="none" stroke="#ced856" stroke-width="2" d="M152.6017,-612C152.6017,-612 105.3983,-612 105.3983,-612 99.3983,-612 93.3983,-606 93.3983,-600 93.3983,-600 93.3983,-588 93.3983,-588 93.3983,-582 99.3983,-576 105.3983,-576 105.3983,-576 152.6017,-576 152.6017,-576 158.6017,-576 164.6017,-582 164.6017,-588 164.6017,-588 164.6017,-600 164.6017,-600 164.6017,-606 158.6017,-612 152.6017,-612"/>
<text text-anchor="middle" x="129" y="-591" font-family="sans" font-size="10.00" fill="#000000">get_genome</text>
</g>
<!-- 6&#45;&gt;1 -->
<g id="edge6" class="edge">
<title>6&#45;&gt;1</title>
<path fill="none" stroke="#c0c0c0" stroke-width="2" d="M95.7793,-575.899C57.5575,-552.3643 0,-507.3952 0,-450 0,-450 0,-450 0,-234 0,-189.669 10.7668,-174.4344 43,-144 61.1945,-126.8209 85.5954,-114.7898 108.4669,-106.5194"/>
<polygon fill="#c0c0c0" stroke="#c0c0c0" stroke-width="2" points="109.8268,-109.7533 118.1527,-103.2012 107.5581,-103.1311 109.8268,-109.7533"/>
</g>
<!-- 11 -->
<g id="node12" class="node">
<title>11</title>
<path fill="none" stroke="#5682d8" stroke-width="2" d="M126.8605,-468C126.8605,-468 91.1395,-468 91.1395,-468 85.1395,-468 79.1395,-462 79.1395,-456 79.1395,-456 79.1395,-444 79.1395,-444 79.1395,-438 85.1395,-432 91.1395,-432 91.1395,-432 126.8605,-432 126.8605,-432 132.8605,-432 138.8605,-438 138.8605,-444 138.8605,-444 138.8605,-456 138.8605,-456 138.8605,-462 132.8605,-468 126.8605,-468"/>
<text text-anchor="middle" x="109" y="-447" font-family="sans" font-size="10.00" fill="#000000">bwa_map</text>
</g>
<!-- 6&#45;&gt;11 -->
<g id="edge18" class="edge">
<title>6&#45;&gt;11</title>
<path fill="none" stroke="#c0c0c0" stroke-width="2" d="M93.0709,-575.9923C79.4828,-567.158 65.4983,-555.1235 58,-540 50.8928,-525.6652 52.0888,-518.868 58,-504 62.2676,-493.2659 69.7931,-483.4321 77.7739,-475.1828"/>
<polygon fill="#c0c0c0" stroke="#c0c0c0" stroke-width="2" points="80.3801,-477.5319 85.1509,-468.072 75.5221,-472.4921 80.3801,-477.5319"/>
</g>
<!-- 12 -->
<g id="node13" class="node">
<title>12</title>
<path fill="none" stroke="#5682d8" stroke-width="2" d="M324.8605,-468C324.8605,-468 289.1395,-468 289.1395,-468 283.1395,-468 277.1395,-462 277.1395,-456 277.1395,-456 277.1395,-444 277.1395,-444 277.1395,-438 283.1395,-432 289.1395,-432 289.1395,-432 324.8605,-432 324.8605,-432 330.8605,-432 336.8605,-438 336.8605,-444 336.8605,-444 336.8605,-456 336.8605,-456 336.8605,-462 330.8605,-468 324.8605,-468"/>
<text text-anchor="middle" x="307" y="-447" font-family="sans" font-size="10.00" fill="#000000">bwa_map</text>
</g>
<!-- 6&#45;&gt;12 -->
<g id="edge22" class="edge">
<title>6&#45;&gt;12</title>
<path fill="none" stroke="#c0c0c0" stroke-width="2" d="M164.8516,-589.8319C198.1826,-584.1227 247.0654,-570.788 277,-540 293.1556,-523.3839 300.6148,-497.8434 304.0567,-478.2091"/>
<polygon fill="#c0c0c0" stroke="#c0c0c0" stroke-width="2" points="307.5235,-478.6908 305.5503,-468.2813 300.6014,-477.6493 307.5235,-478.6908"/>
</g>
<!-- 13 -->
<g id="node14" class="node">
<title>13</title>
<path fill="none" stroke="#d8b456" stroke-width="2" d="M256.337,-540C256.337,-540 181.663,-540 181.663,-540 175.663,-540 169.663,-534 169.663,-528 169.663,-528 169.663,-516 169.663,-516 169.663,-510 175.663,-504 181.663,-504 181.663,-504 256.337,-504 256.337,-504 262.337,-504 268.337,-510 268.337,-516 268.337,-516 268.337,-528 268.337,-528 268.337,-534 262.337,-540 256.337,-540"/>
<text text-anchor="middle" x="219" y="-519" font-family="sans" font-size="10.00" fill="#000000">ref_genome_index</text>
</g>
<!-- 6&#45;&gt;13 -->
<g id="edge23" class="edge">
<title>6&#45;&gt;13</title>
<path fill="none" stroke="#c0c0c0" stroke-width="2" d="M151.7108,-575.8314C162.796,-566.9632 176.2954,-556.1637 188.2852,-546.5718"/>
<polygon fill="#c0c0c0" stroke="#c0c0c0" stroke-width="2" points="190.6742,-549.1429 196.2965,-540.1628 186.3013,-543.6768 190.6742,-549.1429"/>
</g>
<!-- 7 -->
<g id="node8" class="node">
<title>7</title>
<path fill="none" stroke="#70d856" stroke-width="2" d="M369.4356,-324C369.4356,-324 298.5644,-324 298.5644,-324 292.5644,-324 286.5644,-318 286.5644,-312 286.5644,-312 286.5644,-300 286.5644,-300 286.5644,-294 292.5644,-288 298.5644,-288 298.5644,-288 369.4356,-288 369.4356,-288 375.4356,-288 381.4356,-294 381.4356,-300 381.4356,-300 381.4356,-312 381.4356,-312 381.4356,-318 375.4356,-324 369.4356,-324"/>
<text text-anchor="middle" x="334" y="-303" font-family="sans" font-size="10.00" fill="#000000">remove_duplicate</text>
</g>
<!-- 7&#45;&gt;1 -->
<g id="edge7" class="edge">
<title>7&#45;&gt;1</title>
<path fill="none" stroke="#c0c0c0" stroke-width="2" d="M338.3082,-287.7699C344.8524,-255.2703 353.3713,-186.7324 321,-144 310.7144,-130.4223 275.1582,-117.123 241.7122,-107.12"/>
<polygon fill="#c0c0c0" stroke="#c0c0c0" stroke-width="2" points="242.4756,-103.6969 231.8956,-104.257 240.5157,-110.417 242.4756,-103.6969"/>
</g>
<!-- 7&#45;&gt;4 -->
<g id="edge10" class="edge">
<title>7&#45;&gt;4</title>
<path fill="none" stroke="#c0c0c0" stroke-width="2" d="M353.4304,-287.8314C362.732,-279.1337 374.0204,-268.5783 384.1286,-259.1265"/>
<polygon fill="#c0c0c0" stroke="#c0c0c0" stroke-width="2" points="386.6621,-261.5493 391.5759,-252.1628 381.8811,-256.4363 386.6621,-261.5493"/>
</g>
<!-- 7&#45;&gt;9 -->
<g id="edge15" class="edge">
<title>7&#45;&gt;9</title>
<path fill="none" stroke="#c0c0c0" stroke-width="2" d="M310.5322,-287.8314C298.9673,-278.8779 284.8596,-267.9558 272.3817,-258.2955"/>
<polygon fill="#c0c0c0" stroke="#c0c0c0" stroke-width="2" points="274.5102,-255.5171 264.4603,-252.1628 270.225,-261.0521 274.5102,-255.5171"/>
</g>
<!-- 8 -->
<g id="node9" class="node">
<title>8</title>
<path fill="none" stroke="#9fd856" stroke-width="2" d="M136.2465,-396C136.2465,-396 81.7535,-396 81.7535,-396 75.7535,-396 69.7535,-390 69.7535,-384 69.7535,-384 69.7535,-372 69.7535,-372 69.7535,-366 75.7535,-360 81.7535,-360 81.7535,-360 136.2465,-360 136.2465,-360 142.2465,-360 148.2465,-366 148.2465,-372 148.2465,-372 148.2465,-384 148.2465,-384 148.2465,-390 142.2465,-396 136.2465,-396"/>
<text text-anchor="middle" x="109" y="-375" font-family="sans" font-size="10.00" fill="#000000">samtools_sort</text>
</g>
<!-- 8&#45;&gt;2 -->
<g id="edge8" class="edge">
<title>8&#45;&gt;2</title>
<path fill="none" stroke="#c0c0c0" stroke-width="2" d="M109,-359.8314C109,-352.131 109,-342.9743 109,-334.4166"/>
<polygon fill="#c0c0c0" stroke="#c0c0c0" stroke-width="2" points="112.5001,-334.4132 109,-324.4133 105.5001,-334.4133 112.5001,-334.4132"/>
</g>
<!-- 9&#45;&gt;3 -->
<g id="edge9" class="edge">
<title>9&#45;&gt;3</title>
<path fill="none" stroke="#c0c0c0" stroke-width="2" d="M241,-215.8314C241,-208.131 241,-198.9743 241,-190.4166"/>
<polygon fill="#c0c0c0" stroke="#c0c0c0" stroke-width="2" points="244.5001,-190.4132 241,-180.4133 237.5001,-190.4133 244.5001,-190.4132"/>
</g>
<!-- 10 -->
<g id="node11" class="node">
<title>10</title>
<path fill="none" stroke="#9fd856" stroke-width="2" d="M356.2465,-396C356.2465,-396 301.7535,-396 301.7535,-396 295.7535,-396 289.7535,-390 289.7535,-384 289.7535,-384 289.7535,-372 289.7535,-372 289.7535,-366 295.7535,-360 301.7535,-360 301.7535,-360 356.2465,-360 356.2465,-360 362.2465,-360 368.2465,-366 368.2465,-372 368.2465,-372 368.2465,-384 368.2465,-384 368.2465,-390 362.2465,-396 356.2465,-396"/>
<text text-anchor="middle" x="329" y="-375" font-family="sans" font-size="10.00" fill="#000000">samtools_sort</text>
</g>
<!-- 10&#45;&gt;7 -->
<g id="edge12" class="edge">
<title>10&#45;&gt;7</title>
<path fill="none" stroke="#c0c0c0" stroke-width="2" d="M330.2617,-359.8314C330.7965,-352.131 331.4323,-342.9743 332.0266,-334.4166"/>
<polygon fill="#c0c0c0" stroke="#c0c0c0" stroke-width="2" points="335.52,-334.6317 332.7213,-324.4133 328.5368,-334.1467 335.52,-334.6317"/>
</g>
<!-- 11&#45;&gt;8 -->
<g id="edge13" class="edge">
<title>11&#45;&gt;8</title>
<path fill="none" stroke="#c0c0c0" stroke-width="2" d="M109,-431.8314C109,-424.131 109,-414.9743 109,-406.4166"/>
<polygon fill="#c0c0c0" stroke="#c0c0c0" stroke-width="2" points="112.5001,-406.4132 109,-396.4133 105.5001,-406.4133 112.5001,-406.4132"/>
</g>
<!-- 12&#45;&gt;10 -->
<g id="edge16" class="edge">
<title>12&#45;&gt;10</title>
<path fill="none" stroke="#c0c0c0" stroke-width="2" d="M312.5515,-431.8314C314.9303,-424.0463 317.7638,-414.7729 320.4033,-406.1347"/>
<polygon fill="#c0c0c0" stroke="#c0c0c0" stroke-width="2" points="323.7987,-406.9996 323.3737,-396.4133 317.1042,-404.954 323.7987,-406.9996"/>
</g>
<!-- 13&#45;&gt;11 -->
<g id="edge17" class="edge">
<title>13&#45;&gt;11</title>
<path fill="none" stroke="#c0c0c0" stroke-width="2" d="M191.2424,-503.8314C177.303,-494.7074 160.2402,-483.539 145.2769,-473.7449"/>
<polygon fill="#c0c0c0" stroke="#c0c0c0" stroke-width="2" points="147.0326,-470.711 136.7488,-468.1628 143.199,-476.5679 147.0326,-470.711"/>
</g>
<!-- 13&#45;&gt;12 -->
<g id="edge20" class="edge">
<title>13&#45;&gt;12</title>
<path fill="none" stroke="#c0c0c0" stroke-width="2" d="M241.2061,-503.8314C252.045,-494.9632 265.2444,-484.1637 276.9678,-474.5718"/>
<polygon fill="#c0c0c0" stroke="#c0c0c0" stroke-width="2" points="279.2777,-477.2041 284.801,-468.1628 274.845,-471.7864 279.2777,-477.2041"/>
</g>
<!-- 14 -->
<g id="node15" class="node">
<title>14</title>
<path fill="none" stroke="#d88556" stroke-width="2" d="M139.3601,-540C139.3601,-540 78.6399,-540 78.6399,-540 72.6399,-540 66.6399,-534 66.6399,-528 66.6399,-528 66.6399,-516 66.6399,-516 66.6399,-510 72.6399,-504 78.6399,-504 78.6399,-504 139.3601,-504 139.3601,-504 145.3601,-504 151.3601,-510 151.3601,-516 151.3601,-516 151.3601,-528 151.3601,-528 151.3601,-534 145.3601,-540 139.3601,-540"/>
<text text-anchor="middle" x="109" y="-524" font-family="sans" font-size="10.00" fill="#000000">get_fastq</text>
<text text-anchor="middle" x="109" y="-514" font-family="sans" font-size="10.00" fill="#000000">sample: normal</text>
</g>
<!-- 14&#45;&gt;11 -->
<g id="edge19" class="edge">
<title>14&#45;&gt;11</title>
<path fill="none" stroke="#c0c0c0" stroke-width="2" d="M109,-503.8314C109,-496.131 109,-486.9743 109,-478.4166"/>
<polygon fill="#c0c0c0" stroke="#c0c0c0" stroke-width="2" points="112.5001,-478.4132 109,-468.4133 105.5001,-478.4133 112.5001,-478.4132"/>
</g>
<!-- 15 -->
<g id="node16" class="node">
<title>15</title>
<path fill="none" stroke="#d88556" stroke-width="2" d="M391.8553,-540C391.8553,-540 336.1447,-540 336.1447,-540 330.1447,-540 324.1447,-534 324.1447,-528 324.1447,-528 324.1447,-516 324.1447,-516 324.1447,-510 330.1447,-504 336.1447,-504 336.1447,-504 391.8553,-504 391.8553,-504 397.8553,-504 403.8553,-510 403.8553,-516 403.8553,-516 403.8553,-528 403.8553,-528 403.8553,-534 397.8553,-540 391.8553,-540"/>
<text text-anchor="middle" x="364" y="-524" font-family="sans" font-size="10.00" fill="#000000">get_fastq</text>
<text text-anchor="middle" x="364" y="-514" font-family="sans" font-size="10.00" fill="#000000">sample: tumor</text>
</g>
<!-- 15&#45;&gt;12 -->
<g id="edge21" class="edge">
<title>15&#45;&gt;12</title>
<path fill="none" stroke="#c0c0c0" stroke-width="2" d="M349.6165,-503.8314C343.0514,-495.5386 335.1493,-485.557 327.9422,-476.4533"/>
<polygon fill="#c0c0c0" stroke="#c0c0c0" stroke-width="2" points="330.5284,-474.0813 321.5772,-468.4133 325.0401,-478.4262 330.5284,-474.0813"/>
</g>
</g>
</svg>
