<?xml version="1.0" encoding="UTF-8" standalone="no"?>
<!DOCTYPE svg PUBLIC "-//W3C//DTD SVG 1.1//EN"
 "http://www.w3.org/Graphics/SVG/1.1/DTD/svg11.dtd">
<!-- Generated by graphviz version 2.40.1 (20161225.0304)
 -->
<!-- Title: snakemake_dag Pages: 1 -->
<svg width="323pt" height="642pt"
 viewBox="0.00 0.00 323.09 642.00" xmlns="http://www.w3.org/2000/svg" xmlns:xlink="http://www.w3.org/1999/xlink">
<g id="graph0" class="graph" transform="scale(1 1) rotate(0) translate(4 638)">
<title>snakemake_dag</title>
<polygon fill="#ffffff" stroke="transparent" points="-4,4 -4,-638 319.0933,-638 319.0933,4 -4,4"/>
<text text-anchor="middle" x="157.5466" y="-618.8" font-family="Times,serif" font-size="14.00" fill="#000000">Title: rulegraph for variant calling</text>
<!-- 0 -->
<g id="node1" class="node">
<title>0</title>
<path fill="none" stroke="#70d856" stroke-width="2" d="M91,-36C91,-36 61,-36 61,-36 55,-36 49,-30 49,-24 49,-24 49,-12 49,-12 49,-6 55,0 61,0 61,0 91,0 91,0 97,0 103,-6 103,-12 103,-12 103,-24 103,-24 103,-30 97,-36 91,-36"/>
<text text-anchor="middle" x="76" y="-15" font-family="sans" font-size="10.00" fill="#000000">final</text>
</g>
<!-- 1 -->
<g id="node2" class="node">
<title>1</title>
<path fill="none" stroke="#56b1d8" stroke-width="2" d="M120.7708,-108C120.7708,-108 31.2292,-108 31.2292,-108 25.2292,-108 19.2292,-102 19.2292,-96 19.2292,-96 19.2292,-84 19.2292,-84 19.2292,-78 25.2292,-72 31.2292,-72 31.2292,-72 120.7708,-72 120.7708,-72 126.7708,-72 132.7708,-78 132.7708,-84 132.7708,-84 132.7708,-96 132.7708,-96 132.7708,-102 126.7708,-108 120.7708,-108"/>
<text text-anchor="middle" x="76" y="-87" font-family="sans" font-size="10.00" fill="#000000">vardict_varcall_paired</text>
</g>
<!-- 1&#45;&gt;0 -->
<g id="edge1" class="edge">
<title>1&#45;&gt;0</title>
<path fill="none" stroke="#c0c0c0" stroke-width="2" d="M76,-71.8314C76,-64.131 76,-54.9743 76,-46.4166"/>
<polygon fill="#c0c0c0" stroke="#c0c0c0" stroke-width="2" points="79.5001,-46.4132 76,-36.4133 72.5001,-46.4133 79.5001,-46.4132"/>
</g>
<!-- 2 -->
<g id="node3" class="node">
<title>2</title>
<path fill="none" stroke="#56d8c9" stroke-width="2" d="M61.6017,-612C61.6017,-612 14.3983,-612 14.3983,-612 8.3983,-612 2.3983,-606 2.3983,-600 2.3983,-600 2.3983,-588 2.3983,-588 2.3983,-582 8.3983,-576 14.3983,-576 14.3983,-576 61.6017,-576 61.6017,-576 67.6017,-576 73.6017,-582 73.6017,-588 73.6017,-588 73.6017,-600 73.6017,-600 73.6017,-606 67.6017,-612 61.6017,-612"/>
<text text-anchor="middle" x="38" y="-591" font-family="sans" font-size="10.00" fill="#000000">get_genome</text>
</g>
<!-- 2&#45;&gt;1 -->
<g id="edge2" class="edge">
<title>2&#45;&gt;1</title>
<path fill="none" stroke="#c0c0c0" stroke-width="2" d="M29.9412,-575.7668C18.7866,-548.8248 0,-496.5405 0,-450 0,-450 0,-450 0,-234 0,-188.656 29.8384,-143.5999 52.1226,-116.2735"/>
<polygon fill="#c0c0c0" stroke="#c0c0c0" stroke-width="2" points="55.0006,-118.2889 58.7544,-108.3814 49.6415,-113.7856 55.0006,-118.2889"/>
</g>
<!-- 8 -->
<g id="node9" class="node">
<title>8</title>
<path fill="none" stroke="#56d86b" stroke-width="2" d="M131.8605,-468C131.8605,-468 96.1395,-468 96.1395,-468 90.1395,-468 84.1395,-462 84.1395,-456 84.1395,-456 84.1395,-444 84.1395,-444 84.1395,-438 90.1395,-432 96.1395,-432 96.1395,-432 131.8605,-432 131.8605,-432 137.8605,-432 143.8605,-438 143.8605,-444 143.8605,-444 143.8605,-456 143.8605,-456 143.8605,-462 137.8605,-468 131.8605,-468"/>
<text text-anchor="middle" x="114" y="-447" font-family="sans" font-size="10.00" fill="#000000">bwa_map</text>
</g>
<!-- 2&#45;&gt;8 -->
<g id="edge11" class="edge">
<title>2&#45;&gt;8</title>
<path fill="none" stroke="#c0c0c0" stroke-width="2" d="M38.6674,-575.9902C40.0606,-556.9906 44.2873,-526.7146 57,-504 63.0853,-493.127 72.0919,-483.1341 81.1578,-474.7791"/>
<polygon fill="#c0c0c0" stroke="#c0c0c0" stroke-width="2" points="83.5003,-477.3801 88.7243,-468.1627 78.8925,-472.1106 83.5003,-477.3801"/>
</g>
<!-- 9 -->
<g id="node10" class="node">
<title>9</title>
<path fill="none" stroke="#56d89a" stroke-width="2" d="M152.337,-540C152.337,-540 77.663,-540 77.663,-540 71.663,-540 65.663,-534 65.663,-528 65.663,-528 65.663,-516 65.663,-516 65.663,-510 71.663,-504 77.663,-504 77.663,-504 152.337,-504 152.337,-504 158.337,-504 164.337,-510 164.337,-516 164.337,-516 164.337,-528 164.337,-528 164.337,-534 158.337,-540 152.337,-540"/>
<text text-anchor="middle" x="115" y="-519" font-family="sans" font-size="10.00" fill="#000000">ref_genome_index</text>
</g>
<!-- 2&#45;&gt;9 -->
<g id="edge14" class="edge">
<title>2&#45;&gt;9</title>
<path fill="none" stroke="#c0c0c0" stroke-width="2" d="M57.4304,-575.8314C66.732,-567.1337 78.0204,-556.5783 88.1286,-547.1265"/>
<polygon fill="#c0c0c0" stroke="#c0c0c0" stroke-width="2" points="90.6621,-549.5493 95.5759,-540.1628 85.8811,-544.4363 90.6621,-549.5493"/>
</g>
<!-- 3 -->
<g id="node4" class="node">
<title>3</title>
<path fill="none" stroke="#5682d8" stroke-width="2" d="M303.1866,-180C303.1866,-180 184.8134,-180 184.8134,-180 178.8134,-180 172.8134,-174 172.8134,-168 172.8134,-168 172.8134,-156 172.8134,-156 172.8134,-150 178.8134,-144 184.8134,-144 184.8134,-144 303.1866,-144 303.1866,-144 309.1866,-144 315.1866,-150 315.1866,-156 315.1866,-156 315.1866,-168 315.1866,-168 315.1866,-174 309.1866,-180 303.1866,-180"/>
<text text-anchor="middle" x="244" y="-159" font-family="sans" font-size="10.00" fill="#000000">vardict_varcall_prepare_bed</text>
</g>
<!-- 3&#45;&gt;1 -->
<g id="edge5" class="edge">
<title>3&#45;&gt;1</title>
<path fill="none" stroke="#c0c0c0" stroke-width="2" d="M201.6065,-143.8314C179.0376,-134.159 151.1079,-122.1891 127.3204,-111.9944"/>
<polygon fill="#c0c0c0" stroke="#c0c0c0" stroke-width="2" points="128.6588,-108.7602 118.0886,-108.038 125.9014,-115.1943 128.6588,-108.7602"/>
</g>
<!-- 4 -->
<g id="node5" class="node">
<title>4</title>
<path fill="none" stroke="#d8b456" stroke-width="2" d="M142.9838,-180C142.9838,-180 81.0162,-180 81.0162,-180 75.0162,-180 69.0162,-174 69.0162,-168 69.0162,-168 69.0162,-156 69.0162,-156 69.0162,-150 75.0162,-144 81.0162,-144 81.0162,-144 142.9838,-144 142.9838,-144 148.9838,-144 154.9838,-150 154.9838,-156 154.9838,-156 154.9838,-168 154.9838,-168 154.9838,-174 148.9838,-180 142.9838,-180"/>
<text text-anchor="middle" x="112" y="-159" font-family="sans" font-size="10.00" fill="#000000">samtools_index</text>
</g>
<!-- 4&#45;&gt;1 -->
<g id="edge4" class="edge">
<title>4&#45;&gt;1</title>
<path fill="none" stroke="#c0c0c0" stroke-width="2" d="M102.9157,-143.8314C98.9385,-135.8771 94.1845,-126.369 89.7861,-117.5723"/>
<polygon fill="#c0c0c0" stroke="#c0c0c0" stroke-width="2" points="92.8093,-115.7923 85.2066,-108.4133 86.5483,-118.9228 92.8093,-115.7923"/>
</g>
<!-- 5 -->
<g id="node6" class="node">
<title>5</title>
<path fill="none" stroke="#d88556" stroke-width="2" d="M147.4356,-324C147.4356,-324 76.5644,-324 76.5644,-324 70.5644,-324 64.5644,-318 64.5644,-312 64.5644,-312 64.5644,-300 64.5644,-300 64.5644,-294 70.5644,-288 76.5644,-288 76.5644,-288 147.4356,-288 147.4356,-288 153.4356,-288 159.4356,-294 159.4356,-300 159.4356,-300 159.4356,-312 159.4356,-312 159.4356,-318 153.4356,-324 147.4356,-324"/>
<text text-anchor="middle" x="112" y="-303" font-family="sans" font-size="10.00" fill="#000000">remove_duplicate</text>
</g>
<!-- 5&#45;&gt;1 -->
<g id="edge3" class="edge">
<title>5&#45;&gt;1</title>
<path fill="none" stroke="#c0c0c0" stroke-width="2" d="M101.8768,-287.9311C89.1522,-264.084 68.007,-220.3905 60,-180 55.8983,-159.3092 60.3688,-135.8428 65.6158,-118.0604"/>
<polygon fill="#c0c0c0" stroke="#c0c0c0" stroke-width="2" points="69.0212,-118.9022 68.736,-108.3112 62.3544,-116.7684 69.0212,-118.9022"/>
</g>
<!-- 5&#45;&gt;4 -->
<g id="edge7" class="edge">
<title>5&#45;&gt;4</title>
<path fill="none" stroke="#c0c0c0" stroke-width="2" d="M112,-287.7623C112,-263.201 112,-219.2474 112,-190.3541"/>
<polygon fill="#c0c0c0" stroke="#c0c0c0" stroke-width="2" points="115.5001,-190.0896 112,-180.0896 108.5001,-190.0897 115.5001,-190.0896"/>
</g>
<!-- 6 -->
<g id="node7" class="node">
<title>6</title>
<path fill="none" stroke="#ced856" stroke-width="2" d="M246.9209,-252C246.9209,-252 181.0791,-252 181.0791,-252 175.0791,-252 169.0791,-246 169.0791,-240 169.0791,-240 169.0791,-228 169.0791,-228 169.0791,-222 175.0791,-216 181.0791,-216 181.0791,-216 246.9209,-216 246.9209,-216 252.9209,-216 258.9209,-222 258.9209,-228 258.9209,-228 258.9209,-240 258.9209,-240 258.9209,-246 252.9209,-252 246.9209,-252"/>
<text text-anchor="middle" x="214" y="-231" font-family="sans" font-size="10.00" fill="#000000">samtools_merge</text>
</g>
<!-- 5&#45;&gt;6 -->
<g id="edge9" class="edge">
<title>5&#45;&gt;6</title>
<path fill="none" stroke="#c0c0c0" stroke-width="2" d="M137.7389,-287.8314C150.5437,-278.7927 166.1909,-267.7476 179.9719,-258.0198"/>
<polygon fill="#c0c0c0" stroke="#c0c0c0" stroke-width="2" points="182.118,-260.7891 188.2693,-252.1628 178.0812,-255.0703 182.118,-260.7891"/>
</g>
<!-- 6&#45;&gt;3 -->
<g id="edge6" class="edge">
<title>6&#45;&gt;3</title>
<path fill="none" stroke="#c0c0c0" stroke-width="2" d="M221.5703,-215.8314C224.8493,-207.9617 228.762,-198.5712 232.3945,-189.8533"/>
<polygon fill="#c0c0c0" stroke="#c0c0c0" stroke-width="2" points="235.7124,-190.9902 236.3278,-180.4133 229.2508,-188.2979 235.7124,-190.9902"/>
</g>
<!-- 7 -->
<g id="node8" class="node">
<title>7</title>
<path fill="none" stroke="#9fd856" stroke-width="2" d="M140.2465,-396C140.2465,-396 85.7535,-396 85.7535,-396 79.7535,-396 73.7535,-390 73.7535,-384 73.7535,-384 73.7535,-372 73.7535,-372 73.7535,-366 79.7535,-360 85.7535,-360 85.7535,-360 140.2465,-360 140.2465,-360 146.2465,-360 152.2465,-366 152.2465,-372 152.2465,-372 152.2465,-384 152.2465,-384 152.2465,-390 146.2465,-396 140.2465,-396"/>
<text text-anchor="middle" x="113" y="-375" font-family="sans" font-size="10.00" fill="#000000">samtools_sort</text>
</g>
<!-- 7&#45;&gt;5 -->
<g id="edge8" class="edge">
<title>7&#45;&gt;5</title>
<path fill="none" stroke="#c0c0c0" stroke-width="2" d="M112.7477,-359.8314C112.6407,-352.131 112.5135,-342.9743 112.3947,-334.4166"/>
<polygon fill="#c0c0c0" stroke="#c0c0c0" stroke-width="2" points="115.8944,-334.3637 112.2557,-324.4133 108.8951,-334.4609 115.8944,-334.3637"/>
</g>
<!-- 8&#45;&gt;7 -->
<g id="edge10" class="edge">
<title>8&#45;&gt;7</title>
<path fill="none" stroke="#c0c0c0" stroke-width="2" d="M113.7477,-431.8314C113.6407,-424.131 113.5135,-414.9743 113.3947,-406.4166"/>
<polygon fill="#c0c0c0" stroke="#c0c0c0" stroke-width="2" points="116.8944,-406.3637 113.2557,-396.4133 109.8951,-406.4609 116.8944,-406.3637"/>
</g>
<!-- 9&#45;&gt;8 -->
<g id="edge13" class="edge">
<title>9&#45;&gt;8</title>
<path fill="none" stroke="#c0c0c0" stroke-width="2" d="M114.7477,-503.8314C114.6407,-496.131 114.5135,-486.9743 114.3947,-478.4166"/>
<polygon fill="#c0c0c0" stroke="#c0c0c0" stroke-width="2" points="117.8944,-478.3637 114.2557,-468.4133 110.8951,-478.4609 117.8944,-478.3637"/>
</g>
<!-- 10 -->
<g id="node11" class="node">
<title>10</title>
<path fill="none" stroke="#d85656" stroke-width="2" d="M227.6428,-540C227.6428,-540 194.3572,-540 194.3572,-540 188.3572,-540 182.3572,-534 182.3572,-528 182.3572,-528 182.3572,-516 182.3572,-516 182.3572,-510 188.3572,-504 194.3572,-504 194.3572,-504 227.6428,-504 227.6428,-504 233.6428,-504 239.6428,-510 239.6428,-516 239.6428,-516 239.6428,-528 239.6428,-528 239.6428,-534 233.6428,-540 227.6428,-540"/>
<text text-anchor="middle" x="211" y="-519" font-family="sans" font-size="10.00" fill="#000000">get_fastq</text>
</g>
<!-- 10&#45;&gt;8 -->
<g id="edge12" class="edge">
<title>10&#45;&gt;8</title>
<path fill="none" stroke="#c0c0c0" stroke-width="2" d="M186.5228,-503.8314C174.4605,-494.8779 159.746,-483.9558 146.7314,-474.2955"/>
<polygon fill="#c0c0c0" stroke="#c0c0c0" stroke-width="2" points="148.5852,-471.3127 138.4694,-468.1628 144.413,-476.9335 148.5852,-471.3127"/>
</g>
</g>
</svg>
