<?xml version="1.0" encoding="UTF-8" standalone="no"?>
<!DOCTYPE svg PUBLIC "-//W3C//DTD SVG 1.1//EN"
 "http://www.w3.org/Graphics/SVG/1.1/DTD/svg11.dtd">
<!-- Generated by graphviz version 2.26.0 (20091210.2329)
 -->
<!-- Title: snakemake_dag Pages: 1 -->
<svg width="342pt" height="647pt"
 viewBox="0.00 0.00 342.00 647.00" xmlns="http://www.w3.org/2000/svg" xmlns:xlink="http://www.w3.org/1999/xlink">
<g id="graph1" class="graph" transform="scale(1 1) rotate(0) translate(4 643)">
<title>snakemake_dag</title>
<polygon fill="white" stroke="white" points="-4,5 -4,-643 339,-643 339,5 -4,5"/>
<text text-anchor="middle" x="167" y="-622.4" font-family="Times Roman,serif" font-size="14.00">20180222 rulegraph &#45; Cancer pipeline 0.1.0 </text>
<!-- 0 -->
<g id="node1" class="node"><title>0</title>
<polyline fill="none" stroke="#56d8d8" stroke-width="2" points="204,-36 174,-36 "/>
<path fill="none" stroke="#56d8d8" stroke-width="2" d="M174,-36C168,-36 162,-30 162,-24"/>
<polyline fill="none" stroke="#56d8d8" stroke-width="2" points="162,-24 162,-12 "/>
<path fill="none" stroke="#56d8d8" stroke-width="2" d="M162,-12C162,-6 168,-1.61846e-14 174,-1.46056e-14"/>
<polyline fill="none" stroke="#56d8d8" stroke-width="2" points="174,-1.46056e-14 204,-6.71068e-15 "/>
<path fill="none" stroke="#56d8d8" stroke-width="2" d="M204,-6.71068e-15C210,-5.1317e-15 216,-6 216,-12"/>
<polyline fill="none" stroke="#56d8d8" stroke-width="2" points="216,-12 216,-24 "/>
<path fill="none" stroke="#56d8d8" stroke-width="2" d="M216,-24C216,-30 210,-36 204,-36"/>
<text text-anchor="middle" x="189" y="-15.5" font-family="sans" font-size="10.00">all</text>
</g>
<!-- 1 -->
<g id="node2" class="node"><title>1</title>
<polyline fill="none" stroke="#d6d856" stroke-width="2" points="149,-108 87,-108 "/>
<path fill="none" stroke="#d6d856" stroke-width="2" d="M87,-108C81,-108 75,-102 75,-96"/>
<polyline fill="none" stroke="#d6d856" stroke-width="2" points="75,-96 75,-84 "/>
<path fill="none" stroke="#d6d856" stroke-width="2" d="M75,-84C75,-78 81,-72 87,-72"/>
<polyline fill="none" stroke="#d6d856" stroke-width="2" points="87,-72 149,-72 "/>
<path fill="none" stroke="#d6d856" stroke-width="2" d="M149,-72C155,-72 161,-78 161,-84"/>
<polyline fill="none" stroke="#d6d856" stroke-width="2" points="161,-84 161,-96 "/>
<path fill="none" stroke="#d6d856" stroke-width="2" d="M161,-96C161,-102 155,-108 149,-108"/>
<text text-anchor="middle" x="118" y="-87.5" font-family="sans" font-size="10.00">strelka_somatic</text>
</g>
<!-- 1&#45;&gt;0 -->
<g id="edge4" class="edge"><title>1&#45;&gt;0</title>
<path fill="none" stroke="grey" stroke-width="2" d="M135.916,-71.8314C144.344,-63.2848 154.541,-52.9443 163.736,-43.6198"/>
<polygon fill="grey" stroke="grey" points="166.313,-45.9912 170.842,-36.4133 161.329,-41.0761 166.313,-45.9912"/>
</g>
<!-- 2 -->
<g id="node3" class="node"><title>2</title>
<polyline fill="none" stroke="#56d882" stroke-width="2" points="194,-180 136,-180 "/>
<path fill="none" stroke="#56d882" stroke-width="2" d="M136,-180C130,-180 124,-174 124,-168"/>
<polyline fill="none" stroke="#56d882" stroke-width="2" points="124,-168 124,-156 "/>
<path fill="none" stroke="#56d882" stroke-width="2" d="M124,-156C124,-150 130,-144 136,-144"/>
<polyline fill="none" stroke="#56d882" stroke-width="2" points="136,-144 194,-144 "/>
<path fill="none" stroke="#56d882" stroke-width="2" d="M194,-144C200,-144 206,-150 206,-156"/>
<polyline fill="none" stroke="#56d882" stroke-width="2" points="206,-156 206,-168 "/>
<path fill="none" stroke="#56d882" stroke-width="2" d="M206,-168C206,-174 200,-180 194,-180"/>
<text text-anchor="middle" x="165" y="-159.5" font-family="sans" font-size="10.00">manta_somatic</text>
</g>
<!-- 2&#45;&gt;0 -->
<g id="edge6" class="edge"><title>2&#45;&gt;0</title>
<path fill="none" stroke="grey" stroke-width="2" d="M168.04,-143.762C172.151,-119.093 179.523,-74.8598 184.338,-45.9731"/>
<polygon fill="grey" stroke="grey" points="187.793,-46.529 185.985,-36.0896 180.889,-45.3781 187.793,-46.529"/>
</g>
<!-- 2&#45;&gt;1 -->
<g id="edge12" class="edge"><title>2&#45;&gt;1</title>
<path fill="none" stroke="grey" stroke-width="2" d="M153.14,-143.831C147.837,-135.708 141.476,-125.964 135.633,-117.012"/>
<polygon fill="grey" stroke="grey" points="138.417,-114.874 130.02,-108.413 132.555,-118.7 138.417,-114.874"/>
</g>
<!-- 3 -->
<g id="node4" class="node"><title>3</title>
<polyline fill="none" stroke="#56a9d8" stroke-width="2" points="297,-108 267,-108 "/>
<path fill="none" stroke="#56a9d8" stroke-width="2" d="M267,-108C261,-108 255,-102 255,-96"/>
<polyline fill="none" stroke="#56a9d8" stroke-width="2" points="255,-96 255,-84 "/>
<path fill="none" stroke="#56a9d8" stroke-width="2" d="M255,-84C255,-78 261,-72 267,-72"/>
<polyline fill="none" stroke="#56a9d8" stroke-width="2" points="267,-72 297,-72 "/>
<path fill="none" stroke="#56a9d8" stroke-width="2" d="M297,-72C303,-72 309,-78 309,-84"/>
<polyline fill="none" stroke="#56a9d8" stroke-width="2" points="309,-84 309,-96 "/>
<path fill="none" stroke="#56a9d8" stroke-width="2" d="M309,-96C309,-102 303,-108 297,-108"/>
<text text-anchor="middle" x="282" y="-87.5" font-family="sans" font-size="10.00">fastqc</text>
</g>
<!-- 3&#45;&gt;0 -->
<g id="edge8" class="edge"><title>3&#45;&gt;0</title>
<path fill="none" stroke="grey" stroke-width="2" d="M258.532,-71.8314C246.967,-62.8779 232.86,-51.9558 220.382,-42.2955"/>
<polygon fill="grey" stroke="grey" points="222.51,-39.5171 212.46,-36.1628 218.225,-45.0521 222.51,-39.5171"/>
</g>
<!-- 4 -->
<g id="node5" class="node"><title>4</title>
<polyline fill="none" stroke="#5682d8" stroke-width="2" points="82,-252 12,-252 "/>
<path fill="none" stroke="#5682d8" stroke-width="2" d="M12,-252C6,-252 2.84217e-14,-246 2.13163e-14,-240"/>
<polyline fill="none" stroke="#5682d8" stroke-width="2" points="2.13163e-14,-240 7.10543e-15,-228 "/>
<path fill="none" stroke="#5682d8" stroke-width="2" d="M7.10543e-15,-228C0,-222 6,-216 12,-216"/>
<polyline fill="none" stroke="#5682d8" stroke-width="2" points="12,-216 82,-216 "/>
<path fill="none" stroke="#5682d8" stroke-width="2" d="M82,-216C88,-216 94,-222 94,-228"/>
<polyline fill="none" stroke="#5682d8" stroke-width="2" points="94,-228 94,-240 "/>
<path fill="none" stroke="#5682d8" stroke-width="2" d="M94,-240C94,-246 88,-252 82,-252"/>
<text text-anchor="middle" x="47" y="-231.5" font-family="sans" font-size="10.00">sambamba_depth</text>
</g>
<!-- 4&#45;&gt;0 -->
<g id="edge10" class="edge"><title>4&#45;&gt;0</title>
<path fill="none" stroke="grey" stroke-width="2" d="M43.7569,-215.874C39.0347,-183.539 34.0013,-115.254 66,-72 86.3206,-44.5316 123.668,-30.8171 151.897,-24.1104"/>
<polygon fill="grey" stroke="grey" points="152.812,-27.4934 161.837,-21.9441 151.321,-20.654 152.812,-27.4934"/>
</g>
<!-- 5 -->
<g id="node6" class="node"><title>5</title>
<polyline fill="none" stroke="#d88556" stroke-width="2" points="322,-180 236,-180 "/>
<path fill="none" stroke="#d88556" stroke-width="2" d="M236,-180C230,-180 224,-174 224,-168"/>
<polyline fill="none" stroke="#d88556" stroke-width="2" points="224,-168 224,-156 "/>
<path fill="none" stroke="#d88556" stroke-width="2" d="M224,-156C224,-150 230,-144 236,-144"/>
<polyline fill="none" stroke="#d88556" stroke-width="2" points="236,-144 322,-144 "/>
<path fill="none" stroke="#d88556" stroke-width="2" d="M322,-144C328,-144 334,-150 334,-156"/>
<polyline fill="none" stroke="#d88556" stroke-width="2" points="334,-156 334,-168 "/>
<path fill="none" stroke="#d88556" stroke-width="2" d="M334,-168C334,-174 328,-180 322,-180"/>
<text text-anchor="middle" x="279" y="-159.5" font-family="sans" font-size="10.00">vardict_varcall_paired</text>
</g>
<!-- 5&#45;&gt;0 -->
<g id="edge2" class="edge"><title>5&#45;&gt;0</title>
<path fill="none" stroke="grey" stroke-width="2" d="M267.601,-143.762C251.98,-118.768 223.808,-73.6924 205.776,-44.8409"/>
<polygon fill="grey" stroke="grey" points="208.574,-42.7146 200.306,-36.0896 202.638,-46.4246 208.574,-42.7146"/>
</g>
<!-- 6 -->
<g id="node7" class="node"><title>6</title>
<polyline fill="none" stroke="#80d856" stroke-width="2" points="199,-252 131,-252 "/>
<path fill="none" stroke="#80d856" stroke-width="2" d="M131,-252C125,-252 119,-246 119,-240"/>
<polyline fill="none" stroke="#80d856" stroke-width="2" points="119,-240 119,-228 "/>
<path fill="none" stroke="#80d856" stroke-width="2" d="M119,-228C119,-222 125,-216 131,-216"/>
<polyline fill="none" stroke="#80d856" stroke-width="2" points="131,-216 199,-216 "/>
<path fill="none" stroke="#80d856" stroke-width="2" d="M199,-216C205,-216 211,-222 211,-228"/>
<polyline fill="none" stroke="#80d856" stroke-width="2" points="211,-228 211,-240 "/>
<path fill="none" stroke="#80d856" stroke-width="2" d="M211,-240C211,-246 205,-252 199,-252"/>
<text text-anchor="middle" x="165" y="-231.5" font-family="sans" font-size="10.00">GATK_printreads</text>
</g>
<!-- 6&#45;&gt;1 -->
<g id="edge14" class="edge"><title>6&#45;&gt;1</title>
<path fill="none" stroke="grey" stroke-width="2" d="M141.609,-215.838C131.367,-206.394 120.454,-193.918 115,-180 107.323,-160.41 108.547,-136.543 111.435,-118.31"/>
<polygon fill="grey" stroke="grey" points="114.909,-118.769 113.273,-108.301 108.025,-117.505 114.909,-118.769"/>
</g>
<!-- 6&#45;&gt;2 -->
<g id="edge16" class="edge"><title>6&#45;&gt;2</title>
<path fill="none" stroke="grey" stroke-width="2" d="M165,-215.831C165,-208.131 165,-198.974 165,-190.417"/>
<polygon fill="grey" stroke="grey" points="168.5,-190.413 165,-180.413 161.5,-190.413 168.5,-190.413"/>
</g>
<!-- 6&#45;&gt;5 -->
<g id="edge20" class="edge"><title>6&#45;&gt;5</title>
<path fill="none" stroke="grey" stroke-width="2" d="M193.767,-215.831C208.213,-206.707 225.897,-195.539 241.404,-185.745"/>
<polygon fill="grey" stroke="grey" points="243.656,-188.462 250.242,-180.163 239.918,-182.544 243.656,-188.462"/>
</g>
<!-- 7 -->
<g id="node8" class="node"><title>7</title>
<polyline fill="none" stroke="#d85656" stroke-width="2" points="135,-396 35,-396 "/>
<path fill="none" stroke="#d85656" stroke-width="2" d="M35,-396C29,-396 23,-390 23,-384"/>
<polyline fill="none" stroke="#d85656" stroke-width="2" points="23,-384 23,-372 "/>
<path fill="none" stroke="#d85656" stroke-width="2" d="M23,-372C23,-366 29,-360 35,-360"/>
<polyline fill="none" stroke="#d85656" stroke-width="2" points="35,-360 135,-360 "/>
<path fill="none" stroke="#d85656" stroke-width="2" d="M135,-360C141,-360 147,-366 147,-372"/>
<polyline fill="none" stroke="#d85656" stroke-width="2" points="147,-372 147,-384 "/>
<path fill="none" stroke="#d85656" stroke-width="2" d="M147,-384C147,-390 141,-396 135,-396"/>
<text text-anchor="middle" x="85" y="-375.5" font-family="sans" font-size="10.00">picard_remove_duplicate</text>
</g>
<!-- 7&#45;&gt;4 -->
<g id="edge18" class="edge"><title>7&#45;&gt;4</title>
<path fill="none" stroke="grey" stroke-width="2" d="M80.1873,-359.762C73.6773,-335.093 62.0047,-290.86 54.3818,-261.973"/>
<polygon fill="grey" stroke="grey" points="57.7094,-260.866 51.7736,-252.09 50.9411,-262.652 57.7094,-260.866"/>
</g>
<!-- 7&#45;&gt;6 -->
<g id="edge22" class="edge"><title>7&#45;&gt;6</title>
<path fill="none" stroke="grey" stroke-width="2" d="M85.5163,-359.904C86.7833,-340.832 90.9055,-310.497 104,-288 110.448,-276.922 119.975,-266.92 129.593,-258.621"/>
<polygon fill="grey" stroke="grey" points="132.094,-261.098 137.629,-252.064 127.668,-255.675 132.094,-261.098"/>
</g>
<!-- 8 -->
<g id="node9" class="node"><title>8</title>
<polyline fill="none" stroke="#56d8a9" stroke-width="2" points="219,-324 125,-324 "/>
<path fill="none" stroke="#56d8a9" stroke-width="2" d="M125,-324C119,-324 113,-318 113,-312"/>
<polyline fill="none" stroke="#56d8a9" stroke-width="2" points="113,-312 113,-300 "/>
<path fill="none" stroke="#56d8a9" stroke-width="2" d="M113,-300C113,-294 119,-288 125,-288"/>
<polyline fill="none" stroke="#56d8a9" stroke-width="2" points="125,-288 219,-288 "/>
<path fill="none" stroke="#56d8a9" stroke-width="2" d="M219,-288C225,-288 231,-294 231,-300"/>
<polyline fill="none" stroke="#56d8a9" stroke-width="2" points="231,-300 231,-312 "/>
<path fill="none" stroke="#56d8a9" stroke-width="2" d="M231,-312C231,-318 225,-324 219,-324"/>
<text text-anchor="middle" x="172" y="-303.5" font-family="sans" font-size="10.00">GATK_baserecalibrator</text>
</g>
<!-- 7&#45;&gt;8 -->
<g id="edge28" class="edge"><title>7&#45;&gt;8</title>
<path fill="none" stroke="grey" stroke-width="2" d="M106.954,-359.831C117.669,-350.963 130.719,-340.164 142.309,-330.572"/>
<polygon fill="grey" stroke="grey" points="144.581,-333.235 150.053,-324.163 140.118,-327.842 144.581,-333.235"/>
</g>
<!-- 8&#45;&gt;6 -->
<g id="edge24" class="edge"><title>8&#45;&gt;6</title>
<path fill="none" stroke="grey" stroke-width="2" d="M170.234,-287.831C169.485,-280.131 168.595,-270.974 167.763,-262.417"/>
<polygon fill="grey" stroke="grey" points="171.242,-262.028 166.79,-252.413 164.274,-262.705 171.242,-262.028"/>
</g>
<!-- 9 -->
<g id="node10" class="node"><title>9</title>
<polyline fill="none" stroke="#afd856" stroke-width="2" points="126,-468 44,-468 "/>
<path fill="none" stroke="#afd856" stroke-width="2" d="M44,-468C38,-468 32,-462 32,-456"/>
<polyline fill="none" stroke="#afd856" stroke-width="2" points="32,-456 32,-444 "/>
<path fill="none" stroke="#afd856" stroke-width="2" d="M32,-444C32,-438 38,-432 44,-432"/>
<polyline fill="none" stroke="#afd856" stroke-width="2" points="44,-432 126,-432 "/>
<path fill="none" stroke="#afd856" stroke-width="2" d="M126,-432C132,-432 138,-438 138,-444"/>
<polyline fill="none" stroke="#afd856" stroke-width="2" points="138,-444 138,-456 "/>
<path fill="none" stroke="#afd856" stroke-width="2" d="M138,-456C138,-462 132,-468 126,-468"/>
<text text-anchor="middle" x="85" y="-447.5" font-family="sans" font-size="10.00">samtools_sort_index</text>
</g>
<!-- 9&#45;&gt;7 -->
<g id="edge26" class="edge"><title>9&#45;&gt;7</title>
<path fill="none" stroke="grey" stroke-width="2" d="M85,-431.831C85,-424.131 85,-414.974 85,-406.417"/>
<polygon fill="grey" stroke="grey" points="88.5001,-406.413 85,-396.413 81.5001,-406.413 88.5001,-406.413"/>
</g>
<!-- 10 -->
<g id="node11" class="node"><title>10</title>
<polyline fill="none" stroke="#59d856" stroke-width="2" points="104,-540 66,-540 "/>
<path fill="none" stroke="#59d856" stroke-width="2" d="M66,-540C60,-540 54,-534 54,-528"/>
<polyline fill="none" stroke="#59d856" stroke-width="2" points="54,-528 54,-516 "/>
<path fill="none" stroke="#59d856" stroke-width="2" d="M54,-516C54,-510 60,-504 66,-504"/>
<polyline fill="none" stroke="#59d856" stroke-width="2" points="66,-504 104,-504 "/>
<path fill="none" stroke="#59d856" stroke-width="2" d="M104,-504C110,-504 116,-510 116,-516"/>
<polyline fill="none" stroke="#59d856" stroke-width="2" points="116,-516 116,-528 "/>
<path fill="none" stroke="#59d856" stroke-width="2" d="M116,-528C116,-534 110,-540 104,-540"/>
<text text-anchor="middle" x="85" y="-519.5" font-family="sans" font-size="10.00">bwa_mem</text>
</g>
<!-- 10&#45;&gt;9 -->
<g id="edge30" class="edge"><title>10&#45;&gt;9</title>
<path fill="none" stroke="grey" stroke-width="2" d="M85,-503.831C85,-496.131 85,-486.974 85,-478.417"/>
<polygon fill="grey" stroke="grey" points="88.5001,-478.413 85,-468.413 81.5001,-478.413 88.5001,-478.413"/>
</g>
<!-- 11 -->
<g id="node12" class="node"><title>11</title>
<polyline fill="none" stroke="#d8ac56" stroke-width="2" points="100,-612 70,-612 "/>
<path fill="none" stroke="#d8ac56" stroke-width="2" d="M70,-612C64,-612 58,-606 58,-600"/>
<polyline fill="none" stroke="#d8ac56" stroke-width="2" points="58,-600 58,-588 "/>
<path fill="none" stroke="#d8ac56" stroke-width="2" d="M58,-588C58,-582 64,-576 70,-576"/>
<polyline fill="none" stroke="#d8ac56" stroke-width="2" points="70,-576 100,-576 "/>
<path fill="none" stroke="#d8ac56" stroke-width="2" d="M100,-576C106,-576 112,-582 112,-588"/>
<polyline fill="none" stroke="#d8ac56" stroke-width="2" points="112,-588 112,-600 "/>
<path fill="none" stroke="#d8ac56" stroke-width="2" d="M112,-600C112,-606 106,-612 100,-612"/>
<text text-anchor="middle" x="85" y="-591.5" font-family="sans" font-size="10.00">cutadapt</text>
</g>
<!-- 11&#45;&gt;10 -->
<g id="edge32" class="edge"><title>11&#45;&gt;10</title>
<path fill="none" stroke="grey" stroke-width="2" d="M85,-575.831C85,-568.131 85,-558.974 85,-550.417"/>
<polygon fill="grey" stroke="grey" points="88.5001,-550.413 85,-540.413 81.5001,-550.413 88.5001,-550.413"/>
</g>
</g>
</svg>
