<?xml version="1.0" encoding="UTF-8" standalone="no"?>
<!DOCTYPE svg PUBLIC "-//W3C//DTD SVG 1.1//EN"
 "http://www.w3.org/Graphics/SVG/1.1/DTD/svg11.dtd">
<!-- Generated by graphviz version 2.26.0 (20091210.2329)
 -->
<!-- Title: snakemake_dag Pages: 1 -->
<svg width="340pt" height="647pt"
 viewBox="0.00 0.00 340.00 647.00" xmlns="http://www.w3.org/2000/svg" xmlns:xlink="http://www.w3.org/1999/xlink">
<g id="graph1" class="graph" transform="scale(1 1) rotate(0) translate(4 643)">
<title>snakemake_dag</title>
<polygon fill="white" stroke="white" points="-4,5 -4,-643 337,-643 337,5 -4,5"/>
<text text-anchor="middle" x="166" y="-622.4" font-family="Times Roman,serif" font-size="14.00">20180222 rulegraph for variant calling</text>
<!-- 0 -->
<g id="node1" class="node"><title>0</title>
<polyline fill="none" stroke="#56d882" stroke-width="2" points="194,-36 164,-36 "/>
<path fill="none" stroke="#56d882" stroke-width="2" d="M164,-36C158,-36 152,-30 152,-24"/>
<polyline fill="none" stroke="#56d882" stroke-width="2" points="152,-24 152,-12 "/>
<path fill="none" stroke="#56d882" stroke-width="2" d="M152,-12C152,-6 158,-1.61846e-14 164,-1.46056e-14"/>
<polyline fill="none" stroke="#56d882" stroke-width="2" points="164,-1.46056e-14 194,-6.71068e-15 "/>
<path fill="none" stroke="#56d882" stroke-width="2" d="M194,-6.71068e-15C200,-5.1317e-15 206,-6 206,-12"/>
<polyline fill="none" stroke="#56d882" stroke-width="2" points="206,-12 206,-24 "/>
<path fill="none" stroke="#56d882" stroke-width="2" d="M206,-24C206,-30 200,-36 194,-36"/>
<text text-anchor="middle" x="179" y="-15.5" font-family="sans" font-size="10.00">all</text>
</g>
<!-- 1 -->
<g id="node2" class="node"><title>1</title>
<polyline fill="none" stroke="#d8ac56" stroke-width="2" points="139,-180 81,-180 "/>
<path fill="none" stroke="#d8ac56" stroke-width="2" d="M81,-180C75,-180 69,-174 69,-168"/>
<polyline fill="none" stroke="#d8ac56" stroke-width="2" points="69,-168 69,-156 "/>
<path fill="none" stroke="#d8ac56" stroke-width="2" d="M69,-156C69,-150 75,-144 81,-144"/>
<polyline fill="none" stroke="#d8ac56" stroke-width="2" points="81,-144 139,-144 "/>
<path fill="none" stroke="#d8ac56" stroke-width="2" d="M139,-144C145,-144 151,-150 151,-156"/>
<polyline fill="none" stroke="#d8ac56" stroke-width="2" points="151,-156 151,-168 "/>
<path fill="none" stroke="#d8ac56" stroke-width="2" d="M151,-168C151,-174 145,-180 139,-180"/>
<text text-anchor="middle" x="110" y="-159.5" font-family="sans" font-size="10.00">manta_somatic</text>
</g>
<!-- 1&#45;&gt;0 -->
<g id="edge4" class="edge"><title>1&#45;&gt;0</title>
<path fill="none" stroke="grey" stroke-width="2" d="M110.413,-143.766C111.513,-124.85 115.182,-94.8893 127,-72 132.496,-61.3561 140.761,-51.3857 149.094,-42.9803"/>
<polygon fill="grey" stroke="grey" points="151.563,-45.4622 156.367,-36.0191 146.723,-40.4053 151.563,-45.4622"/>
</g>
<!-- 5 -->
<g id="node6" class="node"><title>5</title>
<polyline fill="none" stroke="#d88556" stroke-width="2" points="210,-108 148,-108 "/>
<path fill="none" stroke="#d88556" stroke-width="2" d="M148,-108C142,-108 136,-102 136,-96"/>
<polyline fill="none" stroke="#d88556" stroke-width="2" points="136,-96 136,-84 "/>
<path fill="none" stroke="#d88556" stroke-width="2" d="M136,-84C136,-78 142,-72 148,-72"/>
<polyline fill="none" stroke="#d88556" stroke-width="2" points="148,-72 210,-72 "/>
<path fill="none" stroke="#d88556" stroke-width="2" d="M210,-72C216,-72 222,-78 222,-84"/>
<polyline fill="none" stroke="#d88556" stroke-width="2" points="222,-84 222,-96 "/>
<path fill="none" stroke="#d88556" stroke-width="2" d="M222,-96C222,-102 216,-108 210,-108"/>
<text text-anchor="middle" x="179" y="-87.5" font-family="sans" font-size="10.00">strelka_somatic</text>
</g>
<!-- 1&#45;&gt;5 -->
<g id="edge20" class="edge"><title>1&#45;&gt;5</title>
<path fill="none" stroke="grey" stroke-width="2" d="M127.412,-143.831C135.521,-135.369 145.316,-125.149 154.182,-115.897"/>
<polygon fill="grey" stroke="grey" points="156.962,-118.055 161.354,-108.413 151.908,-113.211 156.962,-118.055"/>
</g>
<!-- 2 -->
<g id="node3" class="node"><title>2</title>
<polyline fill="none" stroke="#59d856" stroke-width="2" points="305,-180 219,-180 "/>
<path fill="none" stroke="#59d856" stroke-width="2" d="M219,-180C213,-180 207,-174 207,-168"/>
<polyline fill="none" stroke="#59d856" stroke-width="2" points="207,-168 207,-156 "/>
<path fill="none" stroke="#59d856" stroke-width="2" d="M207,-156C207,-150 213,-144 219,-144"/>
<polyline fill="none" stroke="#59d856" stroke-width="2" points="219,-144 305,-144 "/>
<path fill="none" stroke="#59d856" stroke-width="2" d="M305,-144C311,-144 317,-150 317,-156"/>
<polyline fill="none" stroke="#59d856" stroke-width="2" points="317,-156 317,-168 "/>
<path fill="none" stroke="#59d856" stroke-width="2" d="M317,-168C317,-174 311,-180 305,-180"/>
<text text-anchor="middle" x="262" y="-159.5" font-family="sans" font-size="10.00">vardict_varcall_paired</text>
</g>
<!-- 2&#45;&gt;0 -->
<g id="edge6" class="edge"><title>2&#45;&gt;0</title>
<path fill="none" stroke="grey" stroke-width="2" d="M258.182,-143.745C253.676,-124.811 244.973,-94.836 231,-72 224.643,-61.6105 215.984,-51.6005 207.556,-43.0811"/>
<polygon fill="grey" stroke="grey" points="209.885,-40.4634 200.273,-36.0059 205.007,-45.4843 209.885,-40.4634"/>
</g>
<!-- 3 -->
<g id="node4" class="node"><title>3</title>
<polyline fill="none" stroke="#5682d8" stroke-width="2" points="320,-108 290,-108 "/>
<path fill="none" stroke="#5682d8" stroke-width="2" d="M290,-108C284,-108 278,-102 278,-96"/>
<polyline fill="none" stroke="#5682d8" stroke-width="2" points="278,-96 278,-84 "/>
<path fill="none" stroke="#5682d8" stroke-width="2" d="M278,-84C278,-78 284,-72 290,-72"/>
<polyline fill="none" stroke="#5682d8" stroke-width="2" points="290,-72 320,-72 "/>
<path fill="none" stroke="#5682d8" stroke-width="2" d="M320,-72C326,-72 332,-78 332,-84"/>
<polyline fill="none" stroke="#5682d8" stroke-width="2" points="332,-84 332,-96 "/>
<path fill="none" stroke="#5682d8" stroke-width="2" d="M332,-96C332,-102 326,-108 320,-108"/>
<text text-anchor="middle" x="305" y="-87.5" font-family="sans" font-size="10.00">fastqc</text>
</g>
<!-- 3&#45;&gt;0 -->
<g id="edge10" class="edge"><title>3&#45;&gt;0</title>
<path fill="none" stroke="grey" stroke-width="2" d="M277.97,-74.5542C259.659,-64.0911 235.253,-50.1444 215.259,-38.7192"/>
<polygon fill="grey" stroke="grey" points="216.839,-35.5913 206.42,-33.6687 213.366,-41.669 216.839,-35.5913"/>
</g>
<!-- 4 -->
<g id="node5" class="node"><title>4</title>
<polyline fill="none" stroke="#d85656" stroke-width="2" points="82,-252 12,-252 "/>
<path fill="none" stroke="#d85656" stroke-width="2" d="M12,-252C6,-252 2.84217e-14,-246 2.13163e-14,-240"/>
<polyline fill="none" stroke="#d85656" stroke-width="2" points="2.13163e-14,-240 7.10543e-15,-228 "/>
<path fill="none" stroke="#d85656" stroke-width="2" d="M7.10543e-15,-228C0,-222 6,-216 12,-216"/>
<polyline fill="none" stroke="#d85656" stroke-width="2" points="12,-216 82,-216 "/>
<path fill="none" stroke="#d85656" stroke-width="2" d="M82,-216C88,-216 94,-222 94,-228"/>
<polyline fill="none" stroke="#d85656" stroke-width="2" points="94,-228 94,-240 "/>
<path fill="none" stroke="#d85656" stroke-width="2" d="M94,-240C94,-246 88,-252 82,-252"/>
<text text-anchor="middle" x="47" y="-231.5" font-family="sans" font-size="10.00">sambamba_depth</text>
</g>
<!-- 4&#45;&gt;0 -->
<g id="edge2" class="edge"><title>4&#45;&gt;0</title>
<path fill="none" stroke="grey" stroke-width="2" d="M47.1036,-215.751C47.7828,-197.084 50.4668,-167.562 60,-144 77.2046,-101.478 116.12,-64.9166 144.786,-42.2966"/>
<polygon fill="grey" stroke="grey" points="147.158,-44.8877 152.945,-36.0131 142.887,-39.3418 147.158,-44.8877"/>
</g>
<!-- 5&#45;&gt;0 -->
<g id="edge8" class="edge"><title>5&#45;&gt;0</title>
<path fill="none" stroke="grey" stroke-width="2" d="M179,-71.8314C179,-64.131 179,-54.9743 179,-46.4166"/>
<polygon fill="grey" stroke="grey" points="182.5,-46.4132 179,-36.4133 175.5,-46.4133 182.5,-46.4132"/>
</g>
<!-- 6 -->
<g id="node7" class="node"><title>6</title>
<polyline fill="none" stroke="#d6d856" stroke-width="2" points="211,-252 143,-252 "/>
<path fill="none" stroke="#d6d856" stroke-width="2" d="M143,-252C137,-252 131,-246 131,-240"/>
<polyline fill="none" stroke="#d6d856" stroke-width="2" points="131,-240 131,-228 "/>
<path fill="none" stroke="#d6d856" stroke-width="2" d="M131,-228C131,-222 137,-216 143,-216"/>
<polyline fill="none" stroke="#d6d856" stroke-width="2" points="143,-216 211,-216 "/>
<path fill="none" stroke="#d6d856" stroke-width="2" d="M211,-216C217,-216 223,-222 223,-228"/>
<polyline fill="none" stroke="#d6d856" stroke-width="2" points="223,-228 223,-240 "/>
<path fill="none" stroke="#d6d856" stroke-width="2" d="M223,-240C223,-246 217,-252 211,-252"/>
<text text-anchor="middle" x="177" y="-231.5" font-family="sans" font-size="10.00">GATK_printreads</text>
</g>
<!-- 6&#45;&gt;1 -->
<g id="edge12" class="edge"><title>6&#45;&gt;1</title>
<path fill="none" stroke="grey" stroke-width="2" d="M160.093,-215.831C152.219,-207.369 142.708,-197.149 134.099,-187.897"/>
<polygon fill="grey" stroke="grey" points="136.509,-185.35 127.135,-180.413 131.385,-190.118 136.509,-185.35"/>
</g>
<!-- 6&#45;&gt;2 -->
<g id="edge14" class="edge"><title>6&#45;&gt;2</title>
<path fill="none" stroke="grey" stroke-width="2" d="M198.449,-215.831C208.818,-207.048 221.423,-196.371 232.665,-186.849"/>
<polygon fill="grey" stroke="grey" points="235.19,-189.297 240.558,-180.163 230.665,-183.956 235.19,-189.297"/>
</g>
<!-- 6&#45;&gt;5 -->
<g id="edge18" class="edge"><title>6&#45;&gt;5</title>
<path fill="none" stroke="grey" stroke-width="2" d="M177.253,-215.762C177.594,-191.201 178.205,-147.247 178.606,-118.354"/>
<polygon fill="grey" stroke="grey" points="182.109,-118.137 178.749,-108.09 175.11,-118.04 182.109,-118.137"/>
</g>
<!-- 7 -->
<g id="node8" class="node"><title>7</title>
<polyline fill="none" stroke="#56d8d8" stroke-width="2" points="140,-396 40,-396 "/>
<path fill="none" stroke="#56d8d8" stroke-width="2" d="M40,-396C34,-396 28,-390 28,-384"/>
<polyline fill="none" stroke="#56d8d8" stroke-width="2" points="28,-384 28,-372 "/>
<path fill="none" stroke="#56d8d8" stroke-width="2" d="M28,-372C28,-366 34,-360 40,-360"/>
<polyline fill="none" stroke="#56d8d8" stroke-width="2" points="40,-360 140,-360 "/>
<path fill="none" stroke="#56d8d8" stroke-width="2" d="M140,-360C146,-360 152,-366 152,-372"/>
<polyline fill="none" stroke="#56d8d8" stroke-width="2" points="152,-372 152,-384 "/>
<path fill="none" stroke="#56d8d8" stroke-width="2" d="M152,-384C152,-390 146,-396 140,-396"/>
<text text-anchor="middle" x="90" y="-375.5" font-family="sans" font-size="10.00">picard_remove_duplicate</text>
</g>
<!-- 7&#45;&gt;4 -->
<g id="edge16" class="edge"><title>7&#45;&gt;4</title>
<path fill="none" stroke="grey" stroke-width="2" d="M84.554,-359.762C77.1874,-335.093 63.979,-290.86 55.3531,-261.973"/>
<polygon fill="grey" stroke="grey" points="58.6168,-260.67 52.4018,-252.09 51.9094,-262.673 58.6168,-260.67"/>
</g>
<!-- 7&#45;&gt;6 -->
<g id="edge24" class="edge"><title>7&#45;&gt;6</title>
<path fill="none" stroke="grey" stroke-width="2" d="M90.2801,-359.762C91.3498,-340.572 95.309,-310.139 109,-288 116.14,-276.455 126.67,-266.35 137.322,-258.101"/>
<polygon fill="grey" stroke="grey" points="139.435,-260.892 145.438,-252.162 135.301,-255.244 139.435,-260.892"/>
</g>
<!-- 8 -->
<g id="node9" class="node"><title>8</title>
<polyline fill="none" stroke="#56d8a9" stroke-width="2" points="224,-324 130,-324 "/>
<path fill="none" stroke="#56d8a9" stroke-width="2" d="M130,-324C124,-324 118,-318 118,-312"/>
<polyline fill="none" stroke="#56d8a9" stroke-width="2" points="118,-312 118,-300 "/>
<path fill="none" stroke="#56d8a9" stroke-width="2" d="M118,-300C118,-294 124,-288 130,-288"/>
<polyline fill="none" stroke="#56d8a9" stroke-width="2" points="130,-288 224,-288 "/>
<path fill="none" stroke="#56d8a9" stroke-width="2" d="M224,-288C230,-288 236,-294 236,-300"/>
<polyline fill="none" stroke="#56d8a9" stroke-width="2" points="236,-300 236,-312 "/>
<path fill="none" stroke="#56d8a9" stroke-width="2" d="M236,-312C236,-318 230,-324 224,-324"/>
<text text-anchor="middle" x="177" y="-303.5" font-family="sans" font-size="10.00">GATK_baserecalibrator</text>
</g>
<!-- 7&#45;&gt;8 -->
<g id="edge28" class="edge"><title>7&#45;&gt;8</title>
<path fill="none" stroke="grey" stroke-width="2" d="M111.954,-359.831C122.669,-350.963 135.719,-340.164 147.309,-330.572"/>
<polygon fill="grey" stroke="grey" points="149.581,-333.235 155.053,-324.163 145.118,-327.842 149.581,-333.235"/>
</g>
<!-- 8&#45;&gt;6 -->
<g id="edge22" class="edge"><title>8&#45;&gt;6</title>
<path fill="none" stroke="grey" stroke-width="2" d="M177,-287.831C177,-280.131 177,-270.974 177,-262.417"/>
<polygon fill="grey" stroke="grey" points="180.5,-262.413 177,-252.413 173.5,-262.413 180.5,-262.413"/>
</g>
<!-- 9 -->
<g id="node10" class="node"><title>9</title>
<polyline fill="none" stroke="#afd856" stroke-width="2" points="131,-468 49,-468 "/>
<path fill="none" stroke="#afd856" stroke-width="2" d="M49,-468C43,-468 37,-462 37,-456"/>
<polyline fill="none" stroke="#afd856" stroke-width="2" points="37,-456 37,-444 "/>
<path fill="none" stroke="#afd856" stroke-width="2" d="M37,-444C37,-438 43,-432 49,-432"/>
<polyline fill="none" stroke="#afd856" stroke-width="2" points="49,-432 131,-432 "/>
<path fill="none" stroke="#afd856" stroke-width="2" d="M131,-432C137,-432 143,-438 143,-444"/>
<polyline fill="none" stroke="#afd856" stroke-width="2" points="143,-444 143,-456 "/>
<path fill="none" stroke="#afd856" stroke-width="2" d="M143,-456C143,-462 137,-468 131,-468"/>
<text text-anchor="middle" x="90" y="-447.5" font-family="sans" font-size="10.00">samtools_sort_index</text>
</g>
<!-- 9&#45;&gt;7 -->
<g id="edge26" class="edge"><title>9&#45;&gt;7</title>
<path fill="none" stroke="grey" stroke-width="2" d="M90,-431.831C90,-424.131 90,-414.974 90,-406.417"/>
<polygon fill="grey" stroke="grey" points="93.5001,-406.413 90,-396.413 86.5001,-406.413 93.5001,-406.413"/>
</g>
<!-- 10 -->
<g id="node11" class="node"><title>10</title>
<polyline fill="none" stroke="#80d856" stroke-width="2" points="109,-540 71,-540 "/>
<path fill="none" stroke="#80d856" stroke-width="2" d="M71,-540C65,-540 59,-534 59,-528"/>
<polyline fill="none" stroke="#80d856" stroke-width="2" points="59,-528 59,-516 "/>
<path fill="none" stroke="#80d856" stroke-width="2" d="M59,-516C59,-510 65,-504 71,-504"/>
<polyline fill="none" stroke="#80d856" stroke-width="2" points="71,-504 109,-504 "/>
<path fill="none" stroke="#80d856" stroke-width="2" d="M109,-504C115,-504 121,-510 121,-516"/>
<polyline fill="none" stroke="#80d856" stroke-width="2" points="121,-516 121,-528 "/>
<path fill="none" stroke="#80d856" stroke-width="2" d="M121,-528C121,-534 115,-540 109,-540"/>
<text text-anchor="middle" x="90" y="-519.5" font-family="sans" font-size="10.00">bwa_mem</text>
</g>
<!-- 10&#45;&gt;9 -->
<g id="edge30" class="edge"><title>10&#45;&gt;9</title>
<path fill="none" stroke="grey" stroke-width="2" d="M90,-503.831C90,-496.131 90,-486.974 90,-478.417"/>
<polygon fill="grey" stroke="grey" points="93.5001,-478.413 90,-468.413 86.5001,-478.413 93.5001,-478.413"/>
</g>
<!-- 11 -->
<g id="node12" class="node"><title>11</title>
<polyline fill="none" stroke="#56a9d8" stroke-width="2" points="105,-612 75,-612 "/>
<path fill="none" stroke="#56a9d8" stroke-width="2" d="M75,-612C69,-612 63,-606 63,-600"/>
<polyline fill="none" stroke="#56a9d8" stroke-width="2" points="63,-600 63,-588 "/>
<path fill="none" stroke="#56a9d8" stroke-width="2" d="M63,-588C63,-582 69,-576 75,-576"/>
<polyline fill="none" stroke="#56a9d8" stroke-width="2" points="75,-576 105,-576 "/>
<path fill="none" stroke="#56a9d8" stroke-width="2" d="M105,-576C111,-576 117,-582 117,-588"/>
<polyline fill="none" stroke="#56a9d8" stroke-width="2" points="117,-588 117,-600 "/>
<path fill="none" stroke="#56a9d8" stroke-width="2" d="M117,-600C117,-606 111,-612 105,-612"/>
<text text-anchor="middle" x="90" y="-591.5" font-family="sans" font-size="10.00">cutadapt</text>
</g>
<!-- 11&#45;&gt;10 -->
<g id="edge32" class="edge"><title>11&#45;&gt;10</title>
<path fill="none" stroke="grey" stroke-width="2" d="M90,-575.831C90,-568.131 90,-558.974 90,-550.417"/>
<polygon fill="grey" stroke="grey" points="93.5001,-550.413 90,-540.413 86.5001,-550.413 93.5001,-550.413"/>
</g>
</g>
</svg>
