<?xml version="1.0" encoding="UTF-8" standalone="no"?>
<!DOCTYPE svg PUBLIC "-//W3C//DTD SVG 1.1//EN"
 "http://www.w3.org/Graphics/SVG/1.1/DTD/svg11.dtd">
<!-- Generated by graphviz version 2.40.1 (20161225.0304)
 -->
<!-- Title: snakemake_dag Pages: 1 -->
<svg width="320pt" height="642pt"
 viewBox="0.00 0.00 320.09 642.00" xmlns="http://www.w3.org/2000/svg" xmlns:xlink="http://www.w3.org/1999/xlink">
<g id="graph0" class="graph" transform="scale(1 1) rotate(0) translate(4 638)">
<title>snakemake_dag</title>
<polygon fill="#ffffff" stroke="transparent" points="-4,4 -4,-638 316.0933,-638 316.0933,4 -4,4"/>
<text text-anchor="middle" x="156.0466" y="-618.8" font-family="Times,serif" font-size="14.00" fill="#000000">Title: rulegraph for variant calling</text>
<!-- 0 -->
<g id="node1" class="node">
<title>0</title>
<path fill="none" stroke="#d88d56" stroke-width="2" d="M88,-36C88,-36 58,-36 58,-36 52,-36 46,-30 46,-24 46,-24 46,-12 46,-12 46,-6 52,0 58,0 58,0 88,0 88,0 94,0 100,-6 100,-12 100,-12 100,-24 100,-24 100,-30 94,-36 88,-36"/>
<text text-anchor="middle" x="73" y="-15" font-family="sans" font-size="10.00" fill="#000000">final</text>
</g>
<!-- 1 -->
<g id="node2" class="node">
<title>1</title>
<path fill="none" stroke="#56c1d8" stroke-width="2" d="M117.7708,-108C117.7708,-108 28.2292,-108 28.2292,-108 22.2292,-108 16.2292,-102 16.2292,-96 16.2292,-96 16.2292,-84 16.2292,-84 16.2292,-78 22.2292,-72 28.2292,-72 28.2292,-72 117.7708,-72 117.7708,-72 123.7708,-72 129.7708,-78 129.7708,-84 129.7708,-84 129.7708,-96 129.7708,-96 129.7708,-102 123.7708,-108 117.7708,-108"/>
<text text-anchor="middle" x="73" y="-87" font-family="sans" font-size="10.00" fill="#000000">vardict_varcall_paired</text>
</g>
<!-- 1&#45;&gt;0 -->
<g id="edge1" class="edge">
<title>1&#45;&gt;0</title>
<path fill="none" stroke="#c0c0c0" stroke-width="2" d="M73,-71.8314C73,-64.131 73,-54.9743 73,-46.4166"/>
<polygon fill="#c0c0c0" stroke="#c0c0c0" stroke-width="2" points="76.5001,-46.4132 73,-36.4133 69.5001,-46.4133 76.5001,-46.4132"/>
</g>
<!-- 2 -->
<g id="node3" class="node">
<title>2</title>
<path fill="none" stroke="#59d856" stroke-width="2" d="M139.9838,-180C139.9838,-180 78.0162,-180 78.0162,-180 72.0162,-180 66.0162,-174 66.0162,-168 66.0162,-168 66.0162,-156 66.0162,-156 66.0162,-150 72.0162,-144 78.0162,-144 78.0162,-144 139.9838,-144 139.9838,-144 145.9838,-144 151.9838,-150 151.9838,-156 151.9838,-156 151.9838,-168 151.9838,-168 151.9838,-174 145.9838,-180 139.9838,-180"/>
<text text-anchor="middle" x="109" y="-159" font-family="sans" font-size="10.00" fill="#000000">samtools_index</text>
</g>
<!-- 2&#45;&gt;1 -->
<g id="edge5" class="edge">
<title>2&#45;&gt;1</title>
<path fill="none" stroke="#c0c0c0" stroke-width="2" d="M99.9157,-143.8314C95.9385,-135.8771 91.1845,-126.369 86.7861,-117.5723"/>
<polygon fill="#c0c0c0" stroke="#c0c0c0" stroke-width="2" points="89.8093,-115.7923 82.2066,-108.4133 83.5483,-118.9228 89.8093,-115.7923"/>
</g>
<!-- 3 -->
<g id="node4" class="node">
<title>3</title>
<path fill="none" stroke="#d85656" stroke-width="2" d="M144.4356,-324C144.4356,-324 73.5644,-324 73.5644,-324 67.5644,-324 61.5644,-318 61.5644,-312 61.5644,-312 61.5644,-300 61.5644,-300 61.5644,-294 67.5644,-288 73.5644,-288 73.5644,-288 144.4356,-288 144.4356,-288 150.4356,-288 156.4356,-294 156.4356,-300 156.4356,-300 156.4356,-312 156.4356,-312 156.4356,-318 150.4356,-324 144.4356,-324"/>
<text text-anchor="middle" x="109" y="-303" font-family="sans" font-size="10.00" fill="#000000">remove_duplicate</text>
</g>
<!-- 3&#45;&gt;1 -->
<g id="edge2" class="edge">
<title>3&#45;&gt;1</title>
<path fill="none" stroke="#c0c0c0" stroke-width="2" d="M98.8768,-287.9311C86.1522,-264.084 65.007,-220.3905 57,-180 52.8983,-159.3092 57.3688,-135.8428 62.6158,-118.0604"/>
<polygon fill="#c0c0c0" stroke="#c0c0c0" stroke-width="2" points="66.0212,-118.9022 65.736,-108.3112 59.3544,-116.7684 66.0212,-118.9022"/>
</g>
<!-- 3&#45;&gt;2 -->
<g id="edge6" class="edge">
<title>3&#45;&gt;2</title>
<path fill="none" stroke="#c0c0c0" stroke-width="2" d="M109,-287.7623C109,-263.201 109,-219.2474 109,-190.3541"/>
<polygon fill="#c0c0c0" stroke="#c0c0c0" stroke-width="2" points="112.5001,-190.0896 109,-180.0896 105.5001,-190.0897 112.5001,-190.0896"/>
</g>
<!-- 7 -->
<g id="node8" class="node">
<title>7</title>
<path fill="none" stroke="#88d856" stroke-width="2" d="M243.9209,-252C243.9209,-252 178.0791,-252 178.0791,-252 172.0791,-252 166.0791,-246 166.0791,-240 166.0791,-240 166.0791,-228 166.0791,-228 166.0791,-222 172.0791,-216 178.0791,-216 178.0791,-216 243.9209,-216 243.9209,-216 249.9209,-216 255.9209,-222 255.9209,-228 255.9209,-228 255.9209,-240 255.9209,-240 255.9209,-246 249.9209,-252 243.9209,-252"/>
<text text-anchor="middle" x="211" y="-231" font-family="sans" font-size="10.00" fill="#000000">samtools_merge</text>
</g>
<!-- 3&#45;&gt;7 -->
<g id="edge10" class="edge">
<title>3&#45;&gt;7</title>
<path fill="none" stroke="#c0c0c0" stroke-width="2" d="M134.7389,-287.8314C147.5437,-278.7927 163.1909,-267.7476 176.9719,-258.0198"/>
<polygon fill="#c0c0c0" stroke="#c0c0c0" stroke-width="2" points="179.118,-260.7891 185.2693,-252.1628 175.0812,-255.0703 179.118,-260.7891"/>
</g>
<!-- 4 -->
<g id="node5" class="node">
<title>4</title>
<path fill="none" stroke="#bed856" stroke-width="2" d="M53.4258,-612C53.4258,-612 22.5742,-612 22.5742,-612 16.5742,-612 10.5742,-606 10.5742,-600 10.5742,-600 10.5742,-588 10.5742,-588 10.5742,-582 16.5742,-576 22.5742,-576 22.5742,-576 53.4258,-576 53.4258,-576 59.4258,-576 65.4258,-582 65.4258,-588 65.4258,-588 65.4258,-600 65.4258,-600 65.4258,-606 59.4258,-612 53.4258,-612"/>
<text text-anchor="middle" x="38" y="-591" font-family="sans" font-size="10.00" fill="#000000">get_data</text>
</g>
<!-- 4&#45;&gt;1 -->
<g id="edge4" class="edge">
<title>4&#45;&gt;1</title>
<path fill="none" stroke="#c0c0c0" stroke-width="2" d="M29.9412,-575.7668C18.7866,-548.8248 0,-496.5405 0,-450 0,-450 0,-450 0,-234 0,-188.7858 28.9854,-143.3764 50.4272,-115.9705"/>
<polygon fill="#c0c0c0" stroke="#c0c0c0" stroke-width="2" points="53.2496,-118.046 56.7989,-108.0633 47.7991,-113.6538 53.2496,-118.046"/>
</g>
<!-- 8 -->
<g id="node9" class="node">
<title>8</title>
<path fill="none" stroke="#568ad8" stroke-width="2" d="M126.8605,-468C126.8605,-468 91.1395,-468 91.1395,-468 85.1395,-468 79.1395,-462 79.1395,-456 79.1395,-456 79.1395,-444 79.1395,-444 79.1395,-438 85.1395,-432 91.1395,-432 91.1395,-432 126.8605,-432 126.8605,-432 132.8605,-432 138.8605,-438 138.8605,-444 138.8605,-444 138.8605,-456 138.8605,-456 138.8605,-462 132.8605,-468 126.8605,-468"/>
<text text-anchor="middle" x="109" y="-447" font-family="sans" font-size="10.00" fill="#000000">bwa_map</text>
</g>
<!-- 4&#45;&gt;8 -->
<g id="edge11" class="edge">
<title>4&#45;&gt;8</title>
<path fill="none" stroke="#c0c0c0" stroke-width="2" d="M38.9042,-575.7541C40.4956,-556.8279 44.8865,-526.8592 57,-504 62.609,-493.4154 70.9063,-483.4616 79.2339,-475.0533"/>
<polygon fill="#c0c0c0" stroke="#c0c0c0" stroke-width="2" points="81.7027,-477.535 86.4931,-468.085 76.8552,-472.4851 81.7027,-477.535"/>
</g>
<!-- 9 -->
<g id="node10" class="node">
<title>9</title>
<path fill="none" stroke="#56d88a" stroke-width="2" d="M152.337,-540C152.337,-540 77.663,-540 77.663,-540 71.663,-540 65.663,-534 65.663,-528 65.663,-528 65.663,-516 65.663,-516 65.663,-510 71.663,-504 77.663,-504 77.663,-504 152.337,-504 152.337,-504 158.337,-504 164.337,-510 164.337,-516 164.337,-516 164.337,-528 164.337,-528 164.337,-534 158.337,-540 152.337,-540"/>
<text text-anchor="middle" x="115" y="-519" font-family="sans" font-size="10.00" fill="#000000">ref_genome_index</text>
</g>
<!-- 4&#45;&gt;9 -->
<g id="edge13" class="edge">
<title>4&#45;&gt;9</title>
<path fill="none" stroke="#c0c0c0" stroke-width="2" d="M57.4304,-575.8314C66.732,-567.1337 78.0204,-556.5783 88.1286,-547.1265"/>
<polygon fill="#c0c0c0" stroke="#c0c0c0" stroke-width="2" points="90.6621,-549.5493 95.5759,-540.1628 85.8811,-544.4363 90.6621,-549.5493"/>
</g>
<!-- 5 -->
<g id="node6" class="node">
<title>5</title>
<path fill="none" stroke="#56d8c1" stroke-width="2" d="M300.1866,-180C300.1866,-180 181.8134,-180 181.8134,-180 175.8134,-180 169.8134,-174 169.8134,-168 169.8134,-168 169.8134,-156 169.8134,-156 169.8134,-150 175.8134,-144 181.8134,-144 181.8134,-144 300.1866,-144 300.1866,-144 306.1866,-144 312.1866,-150 312.1866,-156 312.1866,-156 312.1866,-168 312.1866,-168 312.1866,-174 306.1866,-180 300.1866,-180"/>
<text text-anchor="middle" x="241" y="-159" font-family="sans" font-size="10.00" fill="#000000">vardict_varcall_prepare_bed</text>
</g>
<!-- 5&#45;&gt;1 -->
<g id="edge3" class="edge">
<title>5&#45;&gt;1</title>
<path fill="none" stroke="#c0c0c0" stroke-width="2" d="M198.6065,-143.8314C176.0376,-134.159 148.1079,-122.1891 124.3204,-111.9944"/>
<polygon fill="#c0c0c0" stroke="#c0c0c0" stroke-width="2" points="125.6588,-108.7602 115.0886,-108.038 122.9014,-115.1943 125.6588,-108.7602"/>
</g>
<!-- 6 -->
<g id="node7" class="node">
<title>6</title>
<path fill="none" stroke="#d8bc56" stroke-width="2" d="M136.2465,-396C136.2465,-396 81.7535,-396 81.7535,-396 75.7535,-396 69.7535,-390 69.7535,-384 69.7535,-384 69.7535,-372 69.7535,-372 69.7535,-366 75.7535,-360 81.7535,-360 81.7535,-360 136.2465,-360 136.2465,-360 142.2465,-360 148.2465,-366 148.2465,-372 148.2465,-372 148.2465,-384 148.2465,-384 148.2465,-390 142.2465,-396 136.2465,-396"/>
<text text-anchor="middle" x="109" y="-375" font-family="sans" font-size="10.00" fill="#000000">samtools_sort</text>
</g>
<!-- 6&#45;&gt;3 -->
<g id="edge7" class="edge">
<title>6&#45;&gt;3</title>
<path fill="none" stroke="#c0c0c0" stroke-width="2" d="M109,-359.8314C109,-352.131 109,-342.9743 109,-334.4166"/>
<polygon fill="#c0c0c0" stroke="#c0c0c0" stroke-width="2" points="112.5001,-334.4132 109,-324.4133 105.5001,-334.4133 112.5001,-334.4132"/>
</g>
<!-- 7&#45;&gt;5 -->
<g id="edge8" class="edge">
<title>7&#45;&gt;5</title>
<path fill="none" stroke="#c0c0c0" stroke-width="2" d="M218.5703,-215.8314C221.8493,-207.9617 225.762,-198.5712 229.3945,-189.8533"/>
<polygon fill="#c0c0c0" stroke="#c0c0c0" stroke-width="2" points="232.7124,-190.9902 233.3278,-180.4133 226.2508,-188.2979 232.7124,-190.9902"/>
</g>
<!-- 8&#45;&gt;6 -->
<g id="edge9" class="edge">
<title>8&#45;&gt;6</title>
<path fill="none" stroke="#c0c0c0" stroke-width="2" d="M109,-431.8314C109,-424.131 109,-414.9743 109,-406.4166"/>
<polygon fill="#c0c0c0" stroke="#c0c0c0" stroke-width="2" points="112.5001,-406.4132 109,-396.4133 105.5001,-406.4133 112.5001,-406.4132"/>
</g>
<!-- 9&#45;&gt;8 -->
<g id="edge12" class="edge">
<title>9&#45;&gt;8</title>
<path fill="none" stroke="#c0c0c0" stroke-width="2" d="M113.4859,-503.8314C112.8442,-496.131 112.0812,-486.9743 111.3681,-478.4166"/>
<polygon fill="#c0c0c0" stroke="#c0c0c0" stroke-width="2" points="114.8529,-478.088 110.5344,-468.4133 107.8771,-478.6694 114.8529,-478.088"/>
</g>
</g>
</svg>
