<?xml version="1.0" encoding="UTF-8" standalone="no"?>
<!DOCTYPE svg PUBLIC "-//W3C//DTD SVG 1.1//EN"
 "http://www.w3.org/Graphics/SVG/1.1/DTD/svg11.dtd">
<!-- Generated by graphviz version 2.38.0 (20140413.2041)
 -->
<!-- Title: snakemake_dag Pages: 1 -->
<svg width="410pt" height="642pt"
 viewBox="0.00 0.00 409.74 642.00" xmlns="http://www.w3.org/2000/svg" xmlns:xlink="http://www.w3.org/1999/xlink">
<g id="graph0" class="graph" transform="scale(1 1) rotate(0) translate(4 638)">
<title>snakemake_dag</title>
<polygon fill="white" stroke="none" points="-4,4 -4,-638 405.741,-638 405.741,4 -4,4"/>
<text text-anchor="middle" x="200.871" y="-618.8" font-family="Times,serif" font-size="14.00">20171213 dag for variant calling</text>
<!-- 0 -->
<g id="node1" class="node"><title>0</title>
<path fill="none" stroke="#d85656" stroke-width="2" d="M296.167,-612C296.167,-612 265.315,-612 265.315,-612 259.315,-612 253.315,-606 253.315,-600 253.315,-600 253.315,-588 253.315,-588 253.315,-582 259.315,-576 265.315,-576 265.315,-576 296.167,-576 296.167,-576 302.167,-576 308.167,-582 308.167,-588 308.167,-588 308.167,-600 308.167,-600 308.167,-606 302.167,-612 296.167,-612"/>
<text text-anchor="middle" x="280.741" y="-591" font-family="sans" font-size="10.00">get_data</text>
</g>
<!-- 3 -->
<g id="node4" class="node"><title>3</title>
<path fill="none" stroke="#59d856" stroke-width="2" d="M280.078,-540C280.078,-540 205.404,-540 205.404,-540 199.404,-540 193.404,-534 193.404,-528 193.404,-528 193.404,-516 193.404,-516 193.404,-510 199.404,-504 205.404,-504 205.404,-504 280.078,-504 280.078,-504 286.078,-504 292.078,-510 292.078,-516 292.078,-516 292.078,-528 292.078,-528 292.078,-534 286.078,-540 280.078,-540"/>
<text text-anchor="middle" x="242.741" y="-519" font-family="sans" font-size="10.00">ref_genome_index</text>
</g>
<!-- 0&#45;&gt;3 -->
<g id="edge3" class="edge"><title>0&#45;&gt;3</title>
<path fill="none" stroke="grey" stroke-width="2" d="M271.348,-575.697C266.976,-567.644 261.684,-557.894 256.846,-548.982"/>
<polygon fill="grey" stroke="grey" stroke-width="2" points="259.873,-547.223 252.026,-540.104 253.721,-550.563 259.873,-547.223"/>
</g>
<!-- 9 -->
<g id="node10" class="node"><title>9</title>
<path fill="none" stroke="#56c1d8" stroke-width="2" d="M196.101,-468C196.101,-468 135.381,-468 135.381,-468 129.381,-468 123.381,-462 123.381,-456 123.381,-456 123.381,-444 123.381,-444 123.381,-438 129.381,-432 135.381,-432 135.381,-432 196.101,-432 196.101,-432 202.101,-432 208.101,-438 208.101,-444 208.101,-444 208.101,-456 208.101,-456 208.101,-462 202.101,-468 196.101,-468"/>
<text text-anchor="middle" x="165.741" y="-452" font-family="sans" font-size="10.00">bwa_map</text>
<text text-anchor="middle" x="165.741" y="-442" font-family="sans" font-size="10.00">sample: normal</text>
</g>
<!-- 0&#45;&gt;9 -->
<g id="edge9" class="edge"><title>0&#45;&gt;9</title>
<path fill="none" stroke="grey" stroke-width="2" d="M253.306,-584.902C231.392,-576.998 201.644,-562.781 184.741,-540 171.537,-522.204 167.098,-497.194 165.783,-478.216"/>
<polygon fill="grey" stroke="grey" stroke-width="2" points="169.275,-477.942 165.333,-468.108 162.282,-478.254 169.275,-477.942"/>
</g>
<!-- 11 -->
<g id="node12" class="node"><title>11</title>
<path fill="none" stroke="#bed856" stroke-width="2" d="M306.512,-108C306.512,-108 216.97,-108 216.97,-108 210.97,-108 204.97,-102 204.97,-96 204.97,-96 204.97,-84 204.97,-84 204.97,-78 210.97,-72 216.97,-72 216.97,-72 306.512,-72 306.512,-72 312.512,-72 318.512,-78 318.512,-84 318.512,-84 318.512,-96 318.512,-96 318.512,-102 312.512,-108 306.512,-108"/>
<text text-anchor="middle" x="261.741" y="-87" font-family="sans" font-size="10.00">vardict_varcall_paired</text>
</g>
<!-- 0&#45;&gt;11 -->
<g id="edge13" class="edge"><title>0&#45;&gt;11</title>
<path fill="none" stroke="grey" stroke-width="2" d="M308.198,-577.156C343.898,-554.265 401.741,-508.329 401.741,-451 401.741,-451 401.741,-451 401.741,-233 401.741,-178.009 347.841,-136.589 306.929,-113.072"/>
<polygon fill="grey" stroke="grey" stroke-width="2" points="308.598,-109.995 298.159,-108.186 305.191,-116.11 308.598,-109.995"/>
</g>
<!-- 12 -->
<g id="node13" class="node"><title>12</title>
<path fill="none" stroke="#56c1d8" stroke-width="2" d="M320.596,-468C320.596,-468 264.886,-468 264.886,-468 258.886,-468 252.886,-462 252.886,-456 252.886,-456 252.886,-444 252.886,-444 252.886,-438 258.886,-432 264.886,-432 264.886,-432 320.596,-432 320.596,-432 326.596,-432 332.596,-438 332.596,-444 332.596,-444 332.596,-456 332.596,-456 332.596,-462 326.596,-468 320.596,-468"/>
<text text-anchor="middle" x="292.741" y="-452" font-family="sans" font-size="10.00">bwa_map</text>
<text text-anchor="middle" x="292.741" y="-442" font-family="sans" font-size="10.00">sample: tumor</text>
</g>
<!-- 0&#45;&gt;12 -->
<g id="edge18" class="edge"><title>0&#45;&gt;12</title>
<path fill="none" stroke="grey" stroke-width="2" d="M289.047,-575.788C293.482,-565.634 298.482,-552.384 300.741,-540 304.476,-519.525 302.099,-496.068 298.991,-478.378"/>
<polygon fill="grey" stroke="grey" stroke-width="2" points="302.354,-477.334 297.009,-468.186 295.482,-478.67 302.354,-477.334"/>
</g>
<!-- 1 -->
<g id="node2" class="node"><title>1</title>
<path fill="none" stroke="#d8bc56" stroke-width="2" d="M179.988,-396C179.988,-396 125.495,-396 125.495,-396 119.495,-396 113.495,-390 113.495,-384 113.495,-384 113.495,-372 113.495,-372 113.495,-366 119.495,-360 125.495,-360 125.495,-360 179.988,-360 179.988,-360 185.988,-360 191.988,-366 191.988,-372 191.988,-372 191.988,-384 191.988,-384 191.988,-390 185.988,-396 179.988,-396"/>
<text text-anchor="middle" x="152.741" y="-375" font-family="sans" font-size="10.00">samtools_sort</text>
</g>
<!-- 7 -->
<g id="node8" class="node"><title>7</title>
<path fill="none" stroke="#d88d56" stroke-width="2" d="M162.177,-324C162.177,-324 91.3056,-324 91.3056,-324 85.3056,-324 79.3056,-318 79.3056,-312 79.3056,-312 79.3056,-300 79.3056,-300 79.3056,-294 85.3056,-288 91.3056,-288 91.3056,-288 162.177,-288 162.177,-288 168.177,-288 174.177,-294 174.177,-300 174.177,-300 174.177,-312 174.177,-312 174.177,-318 168.177,-324 162.177,-324"/>
<text text-anchor="middle" x="126.741" y="-303" font-family="sans" font-size="10.00">remove_duplicate</text>
</g>
<!-- 1&#45;&gt;7 -->
<g id="edge7" class="edge"><title>1&#45;&gt;7</title>
<path fill="none" stroke="grey" stroke-width="2" d="M146.314,-359.697C143.386,-351.813 139.854,-342.304 136.601,-333.546"/>
<polygon fill="grey" stroke="grey" stroke-width="2" points="139.857,-332.26 133.094,-324.104 133.295,-334.697 139.857,-332.26"/>
</g>
<!-- 2 -->
<g id="node3" class="node"><title>2</title>
<path fill="none" stroke="#56d8c1" stroke-width="2" d="M323.725,-252C323.725,-252 261.757,-252 261.757,-252 255.757,-252 249.757,-246 249.757,-240 249.757,-240 249.757,-228 249.757,-228 249.757,-222 255.757,-216 261.757,-216 261.757,-216 323.725,-216 323.725,-216 329.725,-216 335.725,-222 335.725,-228 335.725,-228 335.725,-240 335.725,-240 335.725,-246 329.725,-252 323.725,-252"/>
<text text-anchor="middle" x="292.741" y="-231" font-family="sans" font-size="10.00">samtools_index</text>
</g>
<!-- 2&#45;&gt;11 -->
<g id="edge14" class="edge"><title>2&#45;&gt;11</title>
<path fill="none" stroke="grey" stroke-width="2" d="M295.349,-215.922C297.527,-197.744 299.328,-168.309 292.741,-144 290.161,-134.48 285.397,-124.917 280.363,-116.587"/>
<polygon fill="grey" stroke="grey" stroke-width="2" points="283.247,-114.601 274.887,-108.092 277.363,-118.393 283.247,-114.601"/>
</g>
<!-- 3&#45;&gt;9 -->
<g id="edge10" class="edge"><title>3&#45;&gt;9</title>
<path fill="none" stroke="grey" stroke-width="2" d="M223.707,-503.697C214.196,-495.05 202.535,-484.449 192.171,-475.027"/>
<polygon fill="grey" stroke="grey" stroke-width="2" points="194.31,-472.241 184.556,-468.104 189.601,-477.421 194.31,-472.241"/>
</g>
<!-- 3&#45;&gt;12 -->
<g id="edge19" class="edge"><title>3&#45;&gt;12</title>
<path fill="none" stroke="grey" stroke-width="2" d="M255.101,-503.697C260.974,-495.474 268.11,-485.483 274.584,-476.421"/>
<polygon fill="grey" stroke="grey" stroke-width="2" points="277.559,-478.276 280.524,-468.104 271.863,-474.207 277.559,-478.276"/>
</g>
<!-- 4 -->
<g id="node5" class="node"><title>4</title>
<path fill="none" stroke="#d8bc56" stroke-width="2" d="M319.988,-396C319.988,-396 265.495,-396 265.495,-396 259.495,-396 253.495,-390 253.495,-384 253.495,-384 253.495,-372 253.495,-372 253.495,-366 259.495,-360 265.495,-360 265.495,-360 319.988,-360 319.988,-360 325.988,-360 331.988,-366 331.988,-372 331.988,-372 331.988,-384 331.988,-384 331.988,-390 325.988,-396 319.988,-396"/>
<text text-anchor="middle" x="292.741" y="-375" font-family="sans" font-size="10.00">samtools_sort</text>
</g>
<!-- 10 -->
<g id="node11" class="node"><title>10</title>
<path fill="none" stroke="#d88d56" stroke-width="2" d="M328.177,-324C328.177,-324 257.306,-324 257.306,-324 251.306,-324 245.306,-318 245.306,-312 245.306,-312 245.306,-300 245.306,-300 245.306,-294 251.306,-288 257.306,-288 257.306,-288 328.177,-288 328.177,-288 334.177,-288 340.177,-294 340.177,-300 340.177,-300 340.177,-312 340.177,-312 340.177,-318 334.177,-324 328.177,-324"/>
<text text-anchor="middle" x="292.741" y="-303" font-family="sans" font-size="10.00">remove_duplicate</text>
</g>
<!-- 4&#45;&gt;10 -->
<g id="edge11" class="edge"><title>4&#45;&gt;10</title>
<path fill="none" stroke="grey" stroke-width="2" d="M292.741,-359.697C292.741,-351.983 292.741,-342.712 292.741,-334.112"/>
<polygon fill="grey" stroke="grey" stroke-width="2" points="296.241,-334.104 292.741,-324.104 289.241,-334.104 296.241,-334.104"/>
</g>
<!-- 5 -->
<g id="node6" class="node"><title>5</title>
<path fill="none" stroke="#56d8c1" stroke-width="2" d="M73.725,-180C73.725,-180 11.7574,-180 11.7574,-180 5.75742,-180 -0.24258,-174 -0.24258,-168 -0.24258,-168 -0.24258,-156 -0.24258,-156 -0.24258,-150 5.75742,-144 11.7574,-144 11.7574,-144 73.725,-144 73.725,-144 79.725,-144 85.725,-150 85.725,-156 85.725,-156 85.725,-168 85.725,-168 85.725,-174 79.725,-180 73.725,-180"/>
<text text-anchor="middle" x="42.7412" y="-159" font-family="sans" font-size="10.00">samtools_index</text>
</g>
<!-- 5&#45;&gt;11 -->
<g id="edge17" class="edge"><title>5&#45;&gt;11</title>
<path fill="none" stroke="grey" stroke-width="2" d="M85.4865,-147.337C117.573,-137.081 162.025,-122.873 198.259,-111.291"/>
<polygon fill="grey" stroke="grey" stroke-width="2" points="199.785,-114.478 208.244,-108.099 197.654,-107.81 199.785,-114.478"/>
</g>
<!-- 6 -->
<g id="node7" class="node"><title>6</title>
<path fill="none" stroke="#56d88a" stroke-width="2" d="M276.741,-36C276.741,-36 246.741,-36 246.741,-36 240.741,-36 234.741,-30 234.741,-24 234.741,-24 234.741,-12 234.741,-12 234.741,-6 240.741,-0 246.741,-0 246.741,-0 276.741,-0 276.741,-0 282.741,-0 288.741,-6 288.741,-12 288.741,-12 288.741,-24 288.741,-24 288.741,-30 282.741,-36 276.741,-36"/>
<text text-anchor="middle" x="261.741" y="-15" font-family="sans" font-size="10.00">final</text>
</g>
<!-- 7&#45;&gt;5 -->
<g id="edge5" class="edge"><title>7&#45;&gt;5</title>
<path fill="none" stroke="grey" stroke-width="2" d="M116.609,-287.871C102.04,-263.244 75.0621,-217.638 58.0532,-188.885"/>
<polygon fill="grey" stroke="grey" stroke-width="2" points="61.0133,-187.014 52.9095,-180.189 54.9885,-190.578 61.0133,-187.014"/>
</g>
<!-- 7&#45;&gt;11 -->
<g id="edge12" class="edge"><title>7&#45;&gt;11</title>
<path fill="none" stroke="grey" stroke-width="2" d="M121.856,-287.855C113.941,-256.229 102.095,-187.931 132.741,-144 147.291,-123.143 171.615,-110.479 195.245,-102.796"/>
<polygon fill="grey" stroke="grey" stroke-width="2" points="196.367,-106.114 204.945,-99.8958 194.362,-99.4074 196.367,-106.114"/>
</g>
<!-- 13 -->
<g id="node14" class="node"><title>13</title>
<path fill="none" stroke="#568ad8" stroke-width="2" d="M219.662,-252C219.662,-252 153.82,-252 153.82,-252 147.82,-252 141.82,-246 141.82,-240 141.82,-240 141.82,-228 141.82,-228 141.82,-222 147.82,-216 153.82,-216 153.82,-216 219.662,-216 219.662,-216 225.662,-216 231.662,-222 231.662,-228 231.662,-228 231.662,-240 231.662,-240 231.662,-246 225.662,-252 219.662,-252"/>
<text text-anchor="middle" x="186.741" y="-231" font-family="sans" font-size="10.00">samtools_merge</text>
</g>
<!-- 7&#45;&gt;13 -->
<g id="edge20" class="edge"><title>7&#45;&gt;13</title>
<path fill="none" stroke="grey" stroke-width="2" d="M141.573,-287.697C148.766,-279.305 157.538,-269.07 165.431,-259.861"/>
<polygon fill="grey" stroke="grey" stroke-width="2" points="168.23,-261.975 172.08,-252.104 162.915,-257.419 168.23,-261.975"/>
</g>
<!-- 8 -->
<g id="node9" class="node"><title>8</title>
<path fill="none" stroke="#88d856" stroke-width="2" d="M271.928,-180C271.928,-180 153.555,-180 153.555,-180 147.555,-180 141.555,-174 141.555,-168 141.555,-168 141.555,-156 141.555,-156 141.555,-150 147.555,-144 153.555,-144 153.555,-144 271.928,-144 271.928,-144 277.928,-144 283.928,-150 283.928,-156 283.928,-156 283.928,-168 283.928,-168 283.928,-174 277.928,-180 271.928,-180"/>
<text text-anchor="middle" x="212.741" y="-159" font-family="sans" font-size="10.00">vardict_varcall_prepare_bed</text>
</g>
<!-- 8&#45;&gt;11 -->
<g id="edge16" class="edge"><title>8&#45;&gt;11</title>
<path fill="none" stroke="grey" stroke-width="2" d="M224.854,-143.697C230.609,-135.474 237.603,-125.483 243.947,-116.421"/>
<polygon fill="grey" stroke="grey" stroke-width="2" points="246.901,-118.304 249.768,-108.104 241.166,-114.29 246.901,-118.304"/>
</g>
<!-- 9&#45;&gt;1 -->
<g id="edge1" class="edge"><title>9&#45;&gt;1</title>
<path fill="none" stroke="grey" stroke-width="2" d="M162.528,-431.697C161.095,-423.983 159.374,-414.712 157.776,-406.112"/>
<polygon fill="grey" stroke="grey" stroke-width="2" points="161.185,-405.297 155.918,-396.104 154.303,-406.575 161.185,-405.297"/>
</g>
<!-- 10&#45;&gt;2 -->
<g id="edge2" class="edge"><title>10&#45;&gt;2</title>
<path fill="none" stroke="grey" stroke-width="2" d="M292.741,-287.697C292.741,-279.983 292.741,-270.712 292.741,-262.112"/>
<polygon fill="grey" stroke="grey" stroke-width="2" points="296.241,-262.104 292.741,-252.104 289.241,-262.104 296.241,-262.104"/>
</g>
<!-- 10&#45;&gt;11 -->
<g id="edge15" class="edge"><title>10&#45;&gt;11</title>
<path fill="none" stroke="grey" stroke-width="2" d="M316.493,-287.91C327.294,-278.651 338.938,-266.2 344.741,-252 350.794,-237.189 348.33,-231.592 344.741,-216 336.76,-181.326 329.661,-173.482 309.741,-144 303.037,-134.077 294.569,-124.106 286.619,-115.533"/>
<polygon fill="grey" stroke="grey" stroke-width="2" points="288.962,-112.919 279.529,-108.094 283.895,-117.748 288.962,-112.919"/>
</g>
<!-- 10&#45;&gt;13 -->
<g id="edge21" class="edge"><title>10&#45;&gt;13</title>
<path fill="none" stroke="grey" stroke-width="2" d="M266.811,-287.876C253.08,-278.808 236.035,-267.552 221.205,-257.759"/>
<polygon fill="grey" stroke="grey" stroke-width="2" points="223.045,-254.78 212.771,-252.19 219.187,-260.621 223.045,-254.78"/>
</g>
<!-- 11&#45;&gt;6 -->
<g id="edge6" class="edge"><title>11&#45;&gt;6</title>
<path fill="none" stroke="grey" stroke-width="2" d="M261.741,-71.6966C261.741,-63.9827 261.741,-54.7125 261.741,-46.1124"/>
<polygon fill="grey" stroke="grey" stroke-width="2" points="265.241,-46.1043 261.741,-36.1043 258.241,-46.1044 265.241,-46.1043"/>
</g>
<!-- 12&#45;&gt;4 -->
<g id="edge4" class="edge"><title>12&#45;&gt;4</title>
<path fill="none" stroke="grey" stroke-width="2" d="M292.741,-431.697C292.741,-423.983 292.741,-414.712 292.741,-406.112"/>
<polygon fill="grey" stroke="grey" stroke-width="2" points="296.241,-406.104 292.741,-396.104 289.241,-406.104 296.241,-406.104"/>
</g>
<!-- 13&#45;&gt;8 -->
<g id="edge8" class="edge"><title>13&#45;&gt;8</title>
<path fill="none" stroke="grey" stroke-width="2" d="M193.168,-215.697C196.096,-207.813 199.628,-198.304 202.881,-189.546"/>
<polygon fill="grey" stroke="grey" stroke-width="2" points="206.187,-190.697 206.388,-180.104 199.625,-188.26 206.187,-190.697"/>
</g>
</g>
</svg>
