<?xml version="1.0" encoding="UTF-8" standalone="no"?>
<!DOCTYPE svg PUBLIC "-//W3C//DTD SVG 1.1//EN"
 "http://www.w3.org/Graphics/SVG/1.1/DTD/svg11.dtd">
<!-- Generated by graphviz version 2.38.0 (20140413.2041)
 -->
<!-- Title: snakemake_dag Pages: 1 -->
<svg width="268pt" height="404pt"
 viewBox="0.00 0.00 268.42 404.00" xmlns="http://www.w3.org/2000/svg" xmlns:xlink="http://www.w3.org/1999/xlink">
<g id="graph0" class="graph" transform="scale(1 1) rotate(0) translate(4 400)">
<title>snakemake_dag</title>
<polygon fill="white" stroke="none" points="-4,4 -4,-400 264.419,-400 264.419,4 -4,4"/>
<!-- 0 -->
<g id="node1" class="node"><title>0</title>
<path fill="none" stroke="#d85656" stroke-width="2" d="M103.538,-396C103.538,-396 67.8171,-396 67.8171,-396 61.8171,-396 55.8171,-390 55.8171,-384 55.8171,-384 55.8171,-372 55.8171,-372 55.8171,-366 61.8171,-360 67.8171,-360 67.8171,-360 103.538,-360 103.538,-360 109.538,-360 115.538,-366 115.538,-372 115.538,-372 115.538,-384 115.538,-384 115.538,-390 109.538,-396 103.538,-396"/>
<text text-anchor="middle" x="85.6776" y="-375" font-family="sans" font-size="10.00">bwa_map</text>
</g>
<!-- 5 -->
<g id="node6" class="node"><title>5</title>
<path fill="none" stroke="#56d87b" stroke-width="2" d="M112.924,-324C112.924,-324 58.4311,-324 58.4311,-324 52.4311,-324 46.4311,-318 46.4311,-312 46.4311,-312 46.4311,-300 46.4311,-300 46.4311,-294 52.4311,-288 58.4311,-288 58.4311,-288 112.924,-288 112.924,-288 118.924,-288 124.924,-294 124.924,-300 124.924,-300 124.924,-312 124.924,-312 124.924,-318 118.924,-324 112.924,-324"/>
<text text-anchor="middle" x="85.6776" y="-303" font-family="sans" font-size="10.00">samtools_sort</text>
</g>
<!-- 0&#45;&gt;5 -->
<g id="edge7" class="edge"><title>0&#45;&gt;5</title>
<path fill="none" stroke="grey" stroke-width="2" d="M85.6776,-359.697C85.6776,-351.983 85.6776,-342.712 85.6776,-334.112"/>
<polygon fill="grey" stroke="grey" stroke-width="2" points="89.1777,-334.104 85.6776,-324.104 82.1777,-334.104 89.1777,-334.104"/>
</g>
<!-- 1 -->
<g id="node2" class="node"><title>1</title>
<path fill="none" stroke="#d8a456" stroke-width="2" d="M121.113,-252C121.113,-252 50.242,-252 50.242,-252 44.242,-252 38.242,-246 38.242,-240 38.242,-240 38.242,-228 38.242,-228 38.242,-222 44.242,-216 50.242,-216 50.242,-216 121.113,-216 121.113,-216 127.113,-216 133.113,-222 133.113,-228 133.113,-228 133.113,-240 133.113,-240 133.113,-246 127.113,-252 121.113,-252"/>
<text text-anchor="middle" x="85.6776" y="-231" font-family="sans" font-size="10.00">remove_duplicate</text>
</g>
<!-- 3 -->
<g id="node4" class="node"><title>3</title>
<path fill="none" stroke="#78d856" stroke-width="2" d="M130.448,-108C130.448,-108 40.9067,-108 40.9067,-108 34.9067,-108 28.9067,-102 28.9067,-96 28.9067,-96 28.9067,-84 28.9067,-84 28.9067,-78 34.9067,-72 40.9067,-72 40.9067,-72 130.448,-72 130.448,-72 136.448,-72 142.448,-78 142.448,-84 142.448,-84 142.448,-96 142.448,-96 142.448,-102 136.448,-108 130.448,-108"/>
<text text-anchor="middle" x="85.6776" y="-87" font-family="sans" font-size="10.00">vardict_varcall_paired</text>
</g>
<!-- 1&#45;&gt;3 -->
<g id="edge3" class="edge"><title>1&#45;&gt;3</title>
<path fill="none" stroke="grey" stroke-width="2" d="M44.4938,-215.998C29.4715,-207.541 14.1119,-195.705 5.67758,-180 -1.89253,-165.904 -1.89253,-158.096 5.67758,-144 12.4646,-131.362 23.7358,-121.23 35.7072,-113.348"/>
<polygon fill="grey" stroke="grey" stroke-width="2" points="37.7697,-116.19 44.4938,-108.002 34.1314,-110.21 37.7697,-116.19"/>
</g>
<!-- 4 -->
<g id="node5" class="node"><title>4</title>
<path fill="none" stroke="#56d8c9" stroke-width="2" d="M144.864,-180C144.864,-180 26.4909,-180 26.4909,-180 20.4909,-180 14.4909,-174 14.4909,-168 14.4909,-168 14.4909,-156 14.4909,-156 14.4909,-150 20.4909,-144 26.4909,-144 26.4909,-144 144.864,-144 144.864,-144 150.864,-144 156.864,-150 156.864,-156 156.864,-156 156.864,-168 156.864,-168 156.864,-174 150.864,-180 144.864,-180"/>
<text text-anchor="middle" x="85.6776" y="-159" font-family="sans" font-size="10.00">vardict_varcall_prepare_bed</text>
</g>
<!-- 1&#45;&gt;4 -->
<g id="edge6" class="edge"><title>1&#45;&gt;4</title>
<path fill="none" stroke="grey" stroke-width="2" d="M85.6776,-215.697C85.6776,-207.983 85.6776,-198.712 85.6776,-190.112"/>
<polygon fill="grey" stroke="grey" stroke-width="2" points="89.1777,-190.104 85.6776,-180.104 82.1777,-190.104 89.1777,-190.104"/>
</g>
<!-- 6 -->
<g id="node7" class="node"><title>6</title>
<path fill="none" stroke="#56a2d8" stroke-width="2" d="M248.661,-180C248.661,-180 186.694,-180 186.694,-180 180.694,-180 174.694,-174 174.694,-168 174.694,-168 174.694,-156 174.694,-156 174.694,-150 180.694,-144 186.694,-144 186.694,-144 248.661,-144 248.661,-144 254.661,-144 260.661,-150 260.661,-156 260.661,-156 260.661,-168 260.661,-168 260.661,-174 254.661,-180 248.661,-180"/>
<text text-anchor="middle" x="217.678" y="-159" font-family="sans" font-size="10.00">samtools_index</text>
</g>
<!-- 1&#45;&gt;6 -->
<g id="edge8" class="edge"><title>1&#45;&gt;6</title>
<path fill="none" stroke="grey" stroke-width="2" d="M117.968,-215.876C135.547,-206.554 157.487,-194.919 176.307,-184.939"/>
<polygon fill="grey" stroke="grey" stroke-width="2" points="178.068,-187.967 185.263,-180.19 174.788,-181.783 178.068,-187.967"/>
</g>
<!-- 2 -->
<g id="node3" class="node"><title>2</title>
<path fill="none" stroke="#c6d856" stroke-width="2" d="M100.678,-36C100.678,-36 70.6776,-36 70.6776,-36 64.6776,-36 58.6776,-30 58.6776,-24 58.6776,-24 58.6776,-12 58.6776,-12 58.6776,-6 64.6776,-0 70.6776,-0 70.6776,-0 100.678,-0 100.678,-0 106.678,-0 112.678,-6 112.678,-12 112.678,-12 112.678,-24 112.678,-24 112.678,-30 106.678,-36 100.678,-36"/>
<text text-anchor="middle" x="85.6776" y="-15" font-family="sans" font-size="10.00">final</text>
</g>
<!-- 3&#45;&gt;2 -->
<g id="edge2" class="edge"><title>3&#45;&gt;2</title>
<path fill="none" stroke="grey" stroke-width="2" d="M85.6776,-71.6966C85.6776,-63.9827 85.6776,-54.7125 85.6776,-46.1124"/>
<polygon fill="grey" stroke="grey" stroke-width="2" points="89.1777,-46.1043 85.6776,-36.1043 82.1777,-46.1044 89.1777,-46.1043"/>
</g>
<!-- 4&#45;&gt;3 -->
<g id="edge4" class="edge"><title>4&#45;&gt;3</title>
<path fill="none" stroke="grey" stroke-width="2" d="M85.6776,-143.697C85.6776,-135.983 85.6776,-126.712 85.6776,-118.112"/>
<polygon fill="grey" stroke="grey" stroke-width="2" points="89.1777,-118.104 85.6776,-108.104 82.1777,-118.104 89.1777,-118.104"/>
</g>
<!-- 5&#45;&gt;1 -->
<g id="edge1" class="edge"><title>5&#45;&gt;1</title>
<path fill="none" stroke="grey" stroke-width="2" d="M85.6776,-287.697C85.6776,-279.983 85.6776,-270.712 85.6776,-262.112"/>
<polygon fill="grey" stroke="grey" stroke-width="2" points="89.1777,-262.104 85.6776,-252.104 82.1777,-262.104 89.1777,-262.104"/>
</g>
<!-- 6&#45;&gt;3 -->
<g id="edge5" class="edge"><title>6&#45;&gt;3</title>
<path fill="none" stroke="grey" stroke-width="2" d="M185.387,-143.876C167.808,-134.554 145.868,-122.919 127.048,-112.939"/>
<polygon fill="grey" stroke="grey" stroke-width="2" points="128.567,-109.783 118.093,-108.19 125.287,-115.967 128.567,-109.783"/>
</g>
</g>
</svg>
