<?xml version="1.0" encoding="UTF-8" standalone="no"?>
<!DOCTYPE svg PUBLIC "-//W3C//DTD SVG 1.1//EN"
 "http://www.w3.org/Graphics/SVG/1.1/DTD/svg11.dtd">
<!-- Generated by graphviz version 2.38.0 (20140413.2041)
 -->
<!-- Title: snakemake_dag Pages: 1 -->
<svg width="321pt" height="642pt"
 viewBox="0.00 0.00 321.21 642.00" xmlns="http://www.w3.org/2000/svg" xmlns:xlink="http://www.w3.org/1999/xlink">
<g id="graph0" class="graph" transform="scale(1 1) rotate(0) translate(4 638)">
<title>snakemake_dag</title>
<polygon fill="white" stroke="none" points="-4,4 -4,-638 317.215,-638 317.215,4 -4,4"/>
<text text-anchor="middle" x="156.607" y="-618.8" font-family="Times,serif" font-size="14.00">20171213 rulegraph for variant calling</text>
<!-- 0 -->
<g id="node1" class="node"><title>0</title>
<path fill="none" stroke="#d85656" stroke-width="2" d="M220.093,-36C220.093,-36 190.093,-36 190.093,-36 184.093,-36 178.093,-30 178.093,-24 178.093,-24 178.093,-12 178.093,-12 178.093,-6 184.093,-0 190.093,-0 190.093,-0 220.093,-0 220.093,-0 226.093,-0 232.093,-6 232.093,-12 232.093,-12 232.093,-24 232.093,-24 232.093,-30 226.093,-36 220.093,-36"/>
<text text-anchor="middle" x="205.093" y="-15" font-family="sans" font-size="10.00">final</text>
</g>
<!-- 1 -->
<g id="node2" class="node"><title>1</title>
<path fill="none" stroke="#d88d56" stroke-width="2" d="M230.43,-540C230.43,-540 155.756,-540 155.756,-540 149.756,-540 143.756,-534 143.756,-528 143.756,-528 143.756,-516 143.756,-516 143.756,-510 149.756,-504 155.756,-504 155.756,-504 230.43,-504 230.43,-504 236.43,-504 242.43,-510 242.43,-516 242.43,-516 242.43,-528 242.43,-528 242.43,-534 236.43,-540 230.43,-540"/>
<text text-anchor="middle" x="193.093" y="-519" font-family="sans" font-size="10.00">ref_genome_index</text>
</g>
<!-- 7 -->
<g id="node8" class="node"><title>7</title>
<path fill="none" stroke="#56c1d8" stroke-width="2" d="M210.954,-468C210.954,-468 175.233,-468 175.233,-468 169.233,-468 163.233,-462 163.233,-456 163.233,-456 163.233,-444 163.233,-444 163.233,-438 169.233,-432 175.233,-432 175.233,-432 210.954,-432 210.954,-432 216.954,-432 222.954,-438 222.954,-444 222.954,-444 222.954,-456 222.954,-456 222.954,-462 216.954,-468 210.954,-468"/>
<text text-anchor="middle" x="193.093" y="-447" font-family="sans" font-size="10.00">bwa_map</text>
</g>
<!-- 1&#45;&gt;7 -->
<g id="edge10" class="edge"><title>1&#45;&gt;7</title>
<path fill="none" stroke="grey" stroke-width="2" d="M193.093,-503.697C193.093,-495.983 193.093,-486.712 193.093,-478.112"/>
<polygon fill="grey" stroke="grey" stroke-width="2" points="196.593,-478.104 193.093,-468.104 189.593,-478.104 196.593,-478.104"/>
</g>
<!-- 2 -->
<g id="node3" class="node"><title>2</title>
<path fill="none" stroke="#bed856" stroke-width="2" d="M117.014,-252C117.014,-252 51.1723,-252 51.1723,-252 45.1723,-252 39.1723,-246 39.1723,-240 39.1723,-240 39.1723,-228 39.1723,-228 39.1723,-222 45.1723,-216 51.1723,-216 51.1723,-216 117.014,-216 117.014,-216 123.014,-216 129.014,-222 129.014,-228 129.014,-228 129.014,-240 129.014,-240 129.014,-246 123.014,-252 117.014,-252"/>
<text text-anchor="middle" x="84.0933" y="-231" font-family="sans" font-size="10.00">samtools_merge</text>
</g>
<!-- 6 -->
<g id="node7" class="node"><title>6</title>
<path fill="none" stroke="#88d856" stroke-width="2" d="M130.28,-180C130.28,-180 11.9066,-180 11.9066,-180 5.90662,-180 -0.0933842,-174 -0.0933842,-168 -0.0933842,-168 -0.0933842,-156 -0.0933842,-156 -0.0933842,-150 5.90662,-144 11.9066,-144 11.9066,-144 130.28,-144 130.28,-144 136.28,-144 142.28,-150 142.28,-156 142.28,-156 142.28,-168 142.28,-168 142.28,-174 136.28,-180 130.28,-180"/>
<text text-anchor="middle" x="71.0933" y="-159" font-family="sans" font-size="10.00">vardict_varcall_prepare_bed</text>
</g>
<!-- 2&#45;&gt;6 -->
<g id="edge9" class="edge"><title>2&#45;&gt;6</title>
<path fill="none" stroke="grey" stroke-width="2" d="M80.8798,-215.697C79.4472,-207.983 77.7256,-198.712 76.1284,-190.112"/>
<polygon fill="grey" stroke="grey" stroke-width="2" points="79.5369,-189.297 74.2698,-180.104 72.6546,-190.575 79.5369,-189.297"/>
</g>
<!-- 3 -->
<g id="node4" class="node"><title>3</title>
<path fill="none" stroke="#56d8c1" stroke-width="2" d="M285.519,-612C285.519,-612 254.667,-612 254.667,-612 248.667,-612 242.667,-606 242.667,-600 242.667,-600 242.667,-588 242.667,-588 242.667,-582 248.667,-576 254.667,-576 254.667,-576 285.519,-576 285.519,-576 291.519,-576 297.519,-582 297.519,-588 297.519,-588 297.519,-600 297.519,-600 297.519,-606 291.519,-612 285.519,-612"/>
<text text-anchor="middle" x="270.093" y="-591" font-family="sans" font-size="10.00">get_data</text>
</g>
<!-- 3&#45;&gt;1 -->
<g id="edge2" class="edge"><title>3&#45;&gt;1</title>
<path fill="none" stroke="grey" stroke-width="2" d="M251.06,-575.697C241.549,-567.05 229.887,-556.449 219.523,-547.027"/>
<polygon fill="grey" stroke="grey" stroke-width="2" points="221.662,-544.241 211.908,-540.104 216.953,-549.421 221.662,-544.241"/>
</g>
<!-- 5 -->
<g id="node6" class="node"><title>5</title>
<path fill="none" stroke="#59d856" stroke-width="2" d="M249.864,-108C249.864,-108 160.322,-108 160.322,-108 154.322,-108 148.322,-102 148.322,-96 148.322,-96 148.322,-84 148.322,-84 148.322,-78 154.322,-72 160.322,-72 160.322,-72 249.864,-72 249.864,-72 255.864,-72 261.864,-78 261.864,-84 261.864,-84 261.864,-96 261.864,-96 261.864,-102 255.864,-108 249.864,-108"/>
<text text-anchor="middle" x="205.093" y="-87" font-family="sans" font-size="10.00">vardict_varcall_paired</text>
</g>
<!-- 3&#45;&gt;5 -->
<g id="edge8" class="edge"><title>3&#45;&gt;5</title>
<path fill="none" stroke="grey" stroke-width="2" d="M278.593,-575.993C290.865,-549.822 312.093,-497.79 312.093,-451 312.093,-451 312.093,-451 312.093,-233 312.093,-192.553 316.578,-176.93 293.093,-144 284.004,-131.255 270.802,-121.019 257.377,-113.07"/>
<polygon fill="grey" stroke="grey" stroke-width="2" points="259.005,-109.971 248.563,-108.173 255.605,-116.09 259.005,-109.971"/>
</g>
<!-- 3&#45;&gt;7 -->
<g id="edge11" class="edge"><title>3&#45;&gt;7</title>
<path fill="none" stroke="grey" stroke-width="2" d="M269.511,-575.832C268.201,-557.053 264.055,-526.619 251.093,-504 244.788,-492.997 235.413,-482.996 226.03,-474.72"/>
<polygon fill="grey" stroke="grey" stroke-width="2" points="228.131,-471.915 218.213,-468.19 223.643,-477.287 228.131,-471.915"/>
</g>
<!-- 4 -->
<g id="node5" class="node"><title>4</title>
<path fill="none" stroke="#d8bc56" stroke-width="2" d="M208.529,-324C208.529,-324 137.658,-324 137.658,-324 131.658,-324 125.658,-318 125.658,-312 125.658,-312 125.658,-300 125.658,-300 125.658,-294 131.658,-288 137.658,-288 137.658,-288 208.529,-288 208.529,-288 214.529,-288 220.529,-294 220.529,-300 220.529,-300 220.529,-312 220.529,-312 220.529,-318 214.529,-324 208.529,-324"/>
<text text-anchor="middle" x="173.093" y="-303" font-family="sans" font-size="10.00">remove_duplicate</text>
</g>
<!-- 4&#45;&gt;2 -->
<g id="edge3" class="edge"><title>4&#45;&gt;2</title>
<path fill="none" stroke="grey" stroke-width="2" d="M151.093,-287.697C139.884,-278.881 126.091,-268.032 113.939,-258.474"/>
<polygon fill="grey" stroke="grey" stroke-width="2" points="115.864,-255.535 105.84,-252.104 111.537,-261.038 115.864,-255.535"/>
</g>
<!-- 4&#45;&gt;5 -->
<g id="edge5" class="edge"><title>4&#45;&gt;5</title>
<path fill="none" stroke="grey" stroke-width="2" d="M173.702,-287.919C174.998,-258.345 178.803,-195.795 189.093,-144 190.798,-135.421 193.312,-126.244 195.845,-117.979"/>
<polygon fill="grey" stroke="grey" stroke-width="2" points="199.18,-119.041 198.891,-108.45 192.513,-116.909 199.18,-119.041"/>
</g>
<!-- 8 -->
<g id="node9" class="node"><title>8</title>
<path fill="none" stroke="#56d88a" stroke-width="2" d="M272.077,-180C272.077,-180 210.109,-180 210.109,-180 204.109,-180 198.109,-174 198.109,-168 198.109,-168 198.109,-156 198.109,-156 198.109,-150 204.109,-144 210.109,-144 210.109,-144 272.077,-144 272.077,-144 278.077,-144 284.077,-150 284.077,-156 284.077,-156 284.077,-168 284.077,-168 284.077,-174 278.077,-180 272.077,-180"/>
<text text-anchor="middle" x="241.093" y="-159" font-family="sans" font-size="10.00">samtools_index</text>
</g>
<!-- 4&#45;&gt;8 -->
<g id="edge12" class="edge"><title>4&#45;&gt;8</title>
<path fill="none" stroke="grey" stroke-width="2" d="M181.296,-287.871C193.038,-263.35 214.74,-218.032 228.519,-189.259"/>
<polygon fill="grey" stroke="grey" stroke-width="2" points="231.699,-190.72 232.862,-180.189 225.386,-187.697 231.699,-190.72"/>
</g>
<!-- 5&#45;&gt;0 -->
<g id="edge1" class="edge"><title>5&#45;&gt;0</title>
<path fill="none" stroke="grey" stroke-width="2" d="M205.093,-71.6966C205.093,-63.9827 205.093,-54.7125 205.093,-46.1124"/>
<polygon fill="grey" stroke="grey" stroke-width="2" points="208.593,-46.1043 205.093,-36.1043 201.593,-46.1044 208.593,-46.1043"/>
</g>
<!-- 6&#45;&gt;5 -->
<g id="edge6" class="edge"><title>6&#45;&gt;5</title>
<path fill="none" stroke="grey" stroke-width="2" d="M103.873,-143.876C121.718,-134.554 143.99,-122.919 163.096,-112.939"/>
<polygon fill="grey" stroke="grey" stroke-width="2" points="164.944,-115.922 172.187,-108.19 161.703,-109.718 164.944,-115.922"/>
</g>
<!-- 9 -->
<g id="node10" class="node"><title>9</title>
<path fill="none" stroke="#568ad8" stroke-width="2" d="M207.34,-396C207.34,-396 152.847,-396 152.847,-396 146.847,-396 140.847,-390 140.847,-384 140.847,-384 140.847,-372 140.847,-372 140.847,-366 146.847,-360 152.847,-360 152.847,-360 207.34,-360 207.34,-360 213.34,-360 219.34,-366 219.34,-372 219.34,-372 219.34,-384 219.34,-384 219.34,-390 213.34,-396 207.34,-396"/>
<text text-anchor="middle" x="180.093" y="-375" font-family="sans" font-size="10.00">samtools_sort</text>
</g>
<!-- 7&#45;&gt;9 -->
<g id="edge13" class="edge"><title>7&#45;&gt;9</title>
<path fill="none" stroke="grey" stroke-width="2" d="M189.88,-431.697C188.447,-423.983 186.726,-414.712 185.128,-406.112"/>
<polygon fill="grey" stroke="grey" stroke-width="2" points="188.537,-405.297 183.27,-396.104 181.655,-406.575 188.537,-405.297"/>
</g>
<!-- 8&#45;&gt;5 -->
<g id="edge7" class="edge"><title>8&#45;&gt;5</title>
<path fill="none" stroke="grey" stroke-width="2" d="M232.194,-143.697C228.096,-135.728 223.144,-126.1 218.601,-117.264"/>
<polygon fill="grey" stroke="grey" stroke-width="2" points="221.576,-115.396 213.89,-108.104 215.351,-118.598 221.576,-115.396"/>
</g>
<!-- 9&#45;&gt;4 -->
<g id="edge4" class="edge"><title>9&#45;&gt;4</title>
<path fill="none" stroke="grey" stroke-width="2" d="M178.363,-359.697C177.592,-351.983 176.665,-342.712 175.805,-334.112"/>
<polygon fill="grey" stroke="grey" stroke-width="2" points="179.281,-333.706 174.804,-324.104 172.316,-334.403 179.281,-333.706"/>
</g>
</g>
</svg>
